SplineFontDB: 3.2
FontName: RobotoLegacy-Italic
FullName: Roboto Legacy Italic
FamilyName: Roboto Legacy
Weight: Book
Copyright: Font data copyright Google 2011
Version: 1.00000; 2011
ItalicAngle: 0
UnderlinePosition: -200
UnderlineWidth: 100
Ascent: 1536
Descent: 512
InvalidEm: 0
sfntRevision: 0x00010000
LayerCount: 2
Layer: 0 1 "Back" 1
Layer: 1 1 "Fore" 0
XUID: [1021 474 -1613799265 25889]
StyleMap: 0x0001
FSType: 4
OS2Version: 3
OS2_WeightWidthSlopeOnly: 0
OS2_UseTypoMetrics: 0
CreationTime: 1221222574
ModificationTime: 1744076283
PfmFamily: 81
TTFWeight: 400
TTFWidth: 5
LineGap: 0
VLineGap: 0
Panose: 0 0 0 0 0 0 0 0 0 0
OS2TypoAscent: 1536
OS2TypoAOffset: 0
OS2TypoDescent: -512
OS2TypoDOffset: 0
OS2TypoLinegap: 102
OS2WinAscent: 1946
OS2WinAOffset: 0
OS2WinDescent: 512
OS2WinDOffset: 0
HheadAscent: 1900
HheadAOffset: 0
HheadDescent: -500
HheadDOffset: 0
OS2SubXSize: 1434
OS2SubYSize: 1331
OS2SubXOff: 0
OS2SubYOff: 287
OS2SupXSize: 1434
OS2SupYSize: 1331
OS2SupXOff: 0
OS2SupYOff: 977
OS2StrikeYSize: 102
OS2StrikeYPos: 512
OS2CapHeight: 1456
OS2XHeight: 1082
OS2Vendor: 'pyrs'
OS2CodePages: 2000019f.4f010000
OS2UnicodeRanges: e00002ef.5000205b.00000020.00000000
Lookup: 1 0 0 "'smcp' Lowercase to Small Capitals lookup 0" { "'smcp' Lowercase to Small Capitals lookup 0 subtable"  } ['smcp' ('DFLT' <'dflt' > ) ]
Lookup: 4 0 1 "'liga' Standard Ligatures lookup 1" { "'liga' Standard Ligatures lookup 1 subtable"  } ['liga' ('DFLT' <'dflt' > ) ]
Lookup: 258 0 0 "'kern' Horizontal Kerning lookup 0" { "'kern' Horizontal Kerning lookup 0 per glyph data 0"  "'kern' Horizontal Kerning lookup 0 per glyph data 1"  "'kern' Horizontal Kerning lookup 0 per glyph data 2"  "'kern' Horizontal Kerning lookup 0 kerning class 3"  } ['kern' ('DFLT' <'dflt' > ) ]
MarkAttachClasses: 1
DEI: 91125
KernClass2: 32+ 29 "'kern' Horizontal Kerning lookup 0 kerning class 3"

StartChar: exclam
Encoding: 33 33 4
Width: 539
GlyphClass: 1
Flags: W
LayerCount: 2
Fore
SplineSet
360 478 m 1,0,-1
 163 478 l 1,1,-1
 309 1456 l 1,2,-1
 506 1456 l 1,3,-1
 360 478 l 1,0,-1
289 0 m 1,4,-1
 91 0 l 1,5,-1
 122 204 l 1,6,-1
 320 204 l 1,7,-1
 289 0 l 1,4,-1
EndSplineSet
Validated: 1
EndChar

StartChar: quotedbl
Encoding: 34 34 5
Width: 733
GlyphClass: 1
Flags: W
LayerCount: 2
Fore
SplineSet
415 1186 m 1,0,-1
 279 936 l 1,1,-1
 182 936 l 1,2,-1
 217 1176 l 1,3,-1
 256 1456 l 1,4,-1
 453 1456 l 1,5,-1
 415 1186 l 1,0,-1
724 1186 m 1,6,-1
 588 936 l 1,7,-1
 491 936 l 1,8,-1
 526 1184 l 1,9,-1
 564 1456 l 1,10,-1
 762 1456 l 1,11,-1
 724 1186 l 1,6,-1
EndSplineSet
Validated: 1
EndChar

StartChar: numbersign
Encoding: 35 35 6
Width: 1276
GlyphClass: 1
Flags: W
LayerCount: 2
Fore
SplineSet
694 410 m 1,0,-1
 439 410 l 1,1,-1
 297 0 l 1,2,-1
 146 0 l 1,3,-1
 288 410 l 1,4,-1
 52 410 l 1,5,-1
 73 550 l 1,6,-1
 336 550 l 1,7,-1
 457 898 l 1,8,-1
 201 898 l 1,9,-1
 222 1040 l 1,10,-1
 506 1040 l 1,11,-1
 650 1456 l 1,12,-1
 801 1456 l 1,13,-1
 657 1040 l 1,14,-1
 912 1040 l 1,15,-1
 1056 1456 l 1,16,-1
 1207 1456 l 1,17,-1
 1063 1040 l 1,18,-1
 1262 1040 l 1,19,-1
 1241 898 l 1,20,-1
 1014 898 l 1,21,-1
 894 550 l 1,22,-1
 1114 550 l 1,23,-1
 1093 410 l 1,24,-1
 845 410 l 1,25,-1
 704 0 l 1,26,-1
 552 0 l 1,27,-1
 694 410 l 1,0,-1
487 550 m 1,28,-1
 742 550 l 1,29,-1
 863 898 l 1,30,-1
 608 898 l 1,31,-1
 487 550 l 1,28,-1
EndSplineSet
Validated: 1
EndChar

StartChar: dollar
Encoding: 36 36 7
Width: 1193
GlyphClass: 1
Flags: W
LayerCount: 2
Fore
SplineSet
843 376 m 0,0,1
 855 469 855 469 801.5 531 c 128,-1,2
 748 593 748 593 606 643 c 1,3,4
 413 704 413 704 324 806 c 128,-1,5
 235 908 235 908 259 1078 c 0,6,7
 282 1249 282 1249 391 1351 c 128,-1,8
 500 1453 500 1453 670 1473 c 1,9,-1
 701 1693 l 1,10,-1
 859 1693 l 1,11,-1
 828 1471 l 1,12,13
 987 1447 987 1447 1065 1331.5 c 128,-1,14
 1143 1216 1143 1216 1118 1026 c 1,15,-1
 922 1026 l 1,16,17
 940 1157 940 1157 889 1234 c 128,-1,18
 838 1311 838 1311 725 1311 c 256,19,20
 612 1311 612 1311 541.5 1248.5 c 128,-1,21
 471 1186 471 1186 456 1081 c 0,22,23
 442 981 442 981 494 922.5 c 128,-1,24
 546 864 546 864 698 810 c 0,25,26
 894 744 894 744 978.5 645.5 c 128,-1,27
 1063 547 1063 547 1040 378 c 0,28,29
 1015 200 1015 200 899 100.5 c 128,-1,30
 783 1 783 1 598 -16 c 1,31,-1
 572 -208 l 1,32,-1
 415 -208 l 1,33,-1
 441 -17 l 1,34,35
 276 2 276 2 178.5 111 c 128,-1,36
 81 220 81 220 111 429 c 1,37,-1
 308 429 l 1,38,39
 285 269 285 269 353 206.5 c 128,-1,40
 421 144 421 144 536 144 c 0,41,42
 660 144 660 144 744 206.5 c 128,-1,43
 828 269 828 269 843 376 c 0,0,1
EndSplineSet
Validated: 33
EndChar

StartChar: percent
Encoding: 37 37 8
Width: 1498
GlyphClass: 1
Flags: W
LayerCount: 2
Fore
SplineSet
200 1176 m 2,0,1
 219 1308 219 1308 314 1392.5 c 128,-1,2
 409 1477 409 1477 547 1477 c 0,3,4
 679 1477 679 1477 750 1389.5 c 128,-1,5
 821 1302 821 1302 802 1176 c 2,6,-1
 791 1099 l 2,7,8
 771 967 771 967 677.5 883.5 c 128,-1,9
 584 800 584 800 447 800 c 0,10,11
 314 800 314 800 241.5 887 c 128,-1,12
 169 974 169 974 189 1099 c 2,13,-1
 200 1176 l 2,0,1
335 1099 m 2,14,15
 323 1022 323 1022 356 972 c 128,-1,16
 389 922 389 922 465 922 c 0,17,18
 535 922 535 922 584 974 c 128,-1,19
 633 1026 633 1026 645 1099 c 2,20,-1
 656 1176 l 2,21,22
 667 1253 667 1253 634.5 1304 c 128,-1,23
 602 1355 602 1355 528 1355 c 0,24,25
 456 1355 456 1355 406.5 1302 c 128,-1,26
 357 1249 357 1249 346 1176 c 2,27,-1
 335 1099 l 2,14,15
783 357 m 2,28,29
 802 488 802 488 896.5 572.5 c 128,-1,30
 991 657 991 657 1129 657 c 0,31,32
 1260 657 1260 657 1331.5 569.5 c 128,-1,33
 1403 482 1403 482 1385 357 c 2,34,-1
 1373 279 l 2,35,36
 1353 147 1353 147 1259 63 c 128,-1,37
 1165 -21 1165 -21 1029 -21 c 0,38,39
 896 -21 896 -21 823.5 66 c 128,-1,40
 751 153 751 153 771 279 c 2,41,-1
 783 357 l 2,28,29
917 279 m 2,42,43
 905 201 905 201 937.5 151 c 128,-1,44
 970 101 970 101 1047 101 c 0,45,46
 1117 101 1117 101 1166 153 c 128,-1,47
 1215 205 1215 205 1227 279 c 2,48,-1
 1239 357 l 2,49,50
 1250 434 1250 434 1217 484.5 c 128,-1,51
 1184 535 1184 535 1110 535 c 0,52,53
 1038 535 1038 535 988.5 482 c 128,-1,54
 939 429 939 429 929 357 c 2,55,-1
 917 279 l 2,42,43
395 110 m 1,56,-1
 296 177 l 1,57,-1
 1177 1315 l 1,58,-1
 1276 1248 l 1,59,-1
 395 110 l 1,56,-1
EndSplineSet
Validated: 33
EndChar

StartChar: ampersand
Encoding: 38 38 9
Width: 1276
GlyphClass: 1
Flags: W
LayerCount: 2
Fore
SplineSet
43 392 m 0,0,1
 61 518 61 518 144 607 c 128,-1,2
 227 696 227 696 384 789 c 1,3,4
 320 886 320 886 293.5 964.5 c 128,-1,5
 267 1043 267 1043 280 1125 c 0,6,7
 306 1300 306 1300 416 1388.5 c 128,-1,8
 526 1477 526 1477 699 1477 c 0,9,10
 850 1477 850 1477 938.5 1385 c 128,-1,11
 1027 1293 1027 1293 1008 1167 c 0,12,13
 992 1065 992 1065 931 996.5 c 128,-1,14
 870 928 870 928 753 851 c 2,15,-1
 632 771 l 1,16,-1
 909 364 l 1,17,18
 961 430 961 430 995.5 508 c 128,-1,19
 1030 586 1030 586 1044 673 c 1,20,-1
 1220 673 l 1,21,22
 1199 536 1199 536 1144 426 c 128,-1,23
 1089 316 1089 316 1001 228 c 1,24,-1
 1157 0 l 1,25,-1
 921 0 l 1,26,-1
 851 102 l 1,27,28
 761 42 761 42 660 10.5 c 128,-1,29
 559 -21 559 -21 455 -21 c 0,30,31
 246 -21 246 -21 130.5 95 c 128,-1,32
 15 211 15 211 43 392 c 0,0,1
478 133 m 0,33,34
 548 133 548 133 621.5 158 c 128,-1,35
 695 183 695 183 764 230 c 1,36,-1
 470 663 l 1,37,-1
 426 634 l 2,38,39
 325 565 325 565 285.5 503 c 128,-1,40
 246 441 246 441 240 392 c 0,41,42
 222 275 222 275 282 204 c 128,-1,43
 342 133 342 133 478 133 c 0,33,34
477 1127 m 0,44,45
 469 1072 469 1072 487.5 1015.5 c 128,-1,46
 506 959 506 959 550 891 c 1,47,-1
 702 986 l 2,48,49
 765 1025 765 1025 792 1069 c 128,-1,50
 819 1113 819 1113 827 1167 c 0,51,52
 836 1231 836 1231 794.5 1276.5 c 128,-1,53
 753 1322 753 1322 675 1322 c 256,54,55
 597 1322 597 1322 543 1265 c 128,-1,56
 489 1208 489 1208 477 1127 c 0,44,45
EndSplineSet
Validated: 33
EndChar

StartChar: quotesingle
Encoding: 39 39 10
Width: 445
GlyphClass: 1
Flags: W
LayerCount: 2
Fore
SplineSet
422 1233 m 1,0,-1
 281 951 l 1,1,-1
 184 951 l 1,2,-1
 222 1216 l 1,3,-1
 256 1456 l 1,4,-1
 453 1456 l 1,5,-1
 422 1233 l 1,0,-1
EndSplineSet
Validated: 1
EndChar

StartChar: parenleft
Encoding: 40 40 11
Width: 679
GlyphClass: 1
Flags: W
LayerCount: 2
Fore
SplineSet
140 591 m 1,0,1
 197 1002 197 1002 391.5 1271.5 c 128,-1,2
 586 1541 586 1541 779 1636 c 1,3,-1
 785 1635 l 1,4,-1
 807 1519 l 1,5,6
 655 1412 655 1412 520 1176 c 128,-1,7
 385 940 385 940 337 593 c 1,8,-1
 335 580 l 1,9,10
 284 218 284 218 351.5 -9 c 128,-1,11
 419 -236 419 -236 544 -355 c 1,12,-1
 491 -463 l 1,13,-1
 485 -463 l 1,14,15
 323 -370 323 -370 202.5 -91.5 c 128,-1,16
 82 187 82 187 138 582 c 1,17,-1
 140 591 l 1,0,1
EndSplineSet
Validated: 33
EndChar

StartChar: parenright
Encoding: 41 41 12
Width: 687
GlyphClass: 1
Flags: W
LayerCount: 2
Fore
SplineSet
549 582 m 1,0,1
 491 170 491 170 296.5 -99 c 128,-1,2
 102 -368 102 -368 -90 -463 c 1,3,-1
 -96 -462 l 1,4,-1
 -119 -355 l 1,5,6
 31 -250 31 -250 167 -9.5 c 128,-1,7
 303 231 303 231 352 580 c 1,8,-1
 354 593 l 1,9,10
 404 950 404 950 333 1182.5 c 128,-1,11
 262 1415 262 1415 145 1528 c 1,12,-1
 198 1636 l 1,13,-1
 204 1636 l 1,14,15
 365 1543 365 1543 485.5 1264 c 128,-1,16
 606 985 606 985 551 591 c 1,17,-1
 549 582 l 1,0,1
EndSplineSet
Validated: 33
EndChar

StartChar: asterisk
Encoding: 42 42 13
Width: 884
GlyphClass: 1
Flags: W
LayerCount: 2
Fore
SplineSet
348 696 m 1,0,-1
 122 763 l 1,1,-1
 195 917 l 1,2,-1
 417 827 l 1,3,-1
 445 1081 l 1,4,-1
 606 1081 l 1,5,-1
 557 821 l 1,6,-1
 804 910 l 1,7,-1
 828 754 l 1,8,-1
 576 686 l 1,9,-1
 699 486 l 1,10,-1
 553 390 l 1,11,-1
 445 608 l 1,12,-1
 279 398 l 1,13,-1
 160 490 l 1,14,-1
 348 696 l 1,0,-1
EndSplineSet
Validated: 1
EndChar

StartChar: plus
Encoding: 43 43 14
Width: 1162
GlyphClass: 1
Flags: W
LayerCount: 2
Fore
SplineSet
714 783 m 1,0,-1
 1113 783 l 1,1,-1
 1087 605 l 1,2,-1
 688 605 l 1,3,-1
 619 146 l 1,4,-1
 422 146 l 1,5,-1
 491 605 l 1,6,-1
 89 605 l 1,7,-1
 115 783 l 1,8,-1
 517 783 l 1,9,-1
 581 1206 l 1,10,-1
 778 1206 l 1,11,-1
 714 783 l 1,0,-1
EndSplineSet
Validated: 1
EndChar

StartChar: comma
Encoding: 44 44 15
Width: 404
GlyphClass: 1
Flags: W
LayerCount: 2
Fore
SplineSet
242 48 m 1,0,-1
 46 -258 l 1,1,-1
 -71 -258 l 1,2,-1
 47 58 l 1,3,-1
 71 221 l 1,4,-1
 268 221 l 1,5,-1
 242 48 l 1,0,-1
EndSplineSet
Validated: 1
EndChar

StartChar: hyphen
Encoding: 45 45 16
Width: 923
GlyphClass: 1
Flags: W
LayerCount: 2
Fore
SplineSet
758 538 m 1,0,-1
 168 538 l 1,1,-1
 191 692 l 1,2,-1
 781 692 l 1,3,-1
 758 538 l 1,0,-1
EndSplineSet
Validated: 1
EndChar

StartChar: period
Encoding: 46 46 17
Width: 548
GlyphClass: 1
Flags: W
LayerCount: 2
Fore
SplineSet
278 0 m 1,0,-1
 81 0 l 1,1,-1
 111 202 l 1,2,-1
 308 202 l 1,3,-1
 278 0 l 1,0,-1
EndSplineSet
Validated: 1
EndChar

StartChar: slash
Encoding: 47 47 18
Width: 850
GlyphClass: 1
Flags: W
LayerCount: 2
Fore
SplineSet
85 -125 m 1,0,-1
 -83 -125 l 1,1,-1
 762 1456 l 1,2,-1
 929 1456 l 1,3,-1
 85 -125 l 1,0,-1
EndSplineSet
Validated: 1
EndChar

StartChar: zero
Encoding: 48 48 19
Width: 1153
GlyphClass: 1
Flags: W
LayerCount: 2
Fore
SplineSet
1037 514 m 2,0,1
 998 258 998 258 853 118.5 c 128,-1,2
 708 -21 708 -21 494 -21 c 0,3,4
 291 -21 291 -21 182 124.5 c 128,-1,5
 73 270 73 270 110 514 c 2,6,-1
 174 942 l 2,7,8
 212 1196 212 1196 358 1336.5 c 128,-1,9
 504 1477 504 1477 717 1477 c 0,10,11
 921 1477 921 1477 1029 1331 c 128,-1,12
 1137 1185 1137 1185 1101 942 c 2,13,-1
 1037 514 l 2,0,1
910 983 m 2,14,15
 934 1146 934 1146 878 1234 c 128,-1,16
 822 1322 822 1322 693 1322 c 0,17,18
 572 1322 572 1322 486.5 1230 c 128,-1,19
 401 1138 401 1138 377 983 c 2,20,-1
 301 474 l 2,21,22
 276 311 276 311 332.5 222 c 128,-1,23
 389 133 389 133 517 133 c 0,24,25
 639 133 639 133 724.5 225.5 c 128,-1,26
 810 318 810 318 834 474 c 2,27,-1
 910 983 l 2,14,15
EndSplineSet
Validated: 33
EndChar

StartChar: one
Encoding: 49 49 20
Width: 1153
GlyphClass: 1
Flags: W
LayerCount: 2
Fore
SplineSet
630 0 m 1,0,-1
 432 0 l 1,1,-1
 623 1274 l 1,2,-1
 306 1271 l 1,3,-1
 328 1423 l 1,4,-1
 852 1477 l 1,5,-1
 630 0 l 1,0,-1
EndSplineSet
Validated: 1
EndChar

StartChar: two
Encoding: 50 50 21
Width: 1153
GlyphClass: 1
Flags: W
LayerCount: 2
Fore
SplineSet
979 0 m 1,0,-1
 75 0 l 1,1,-1
 94 135 l 1,2,-1
 627 680 l 2,3,4
 770 828 770 828 825.5 915.5 c 128,-1,5
 881 1003 881 1003 894 1092 c 0,6,7
 908 1197 908 1197 859 1259.5 c 128,-1,8
 810 1322 810 1322 704 1322 c 0,9,10
 580 1322 580 1322 498.5 1242 c 128,-1,11
 417 1162 417 1162 401 1046 c 1,12,-1
 212 1046 l 1,13,-1
 210 1052 l 1,14,15
 231 1237 231 1237 371 1357 c 128,-1,16
 511 1477 511 1477 726 1477 c 0,17,18
 914 1477 914 1477 1014 1367.5 c 128,-1,19
 1114 1258 1114 1258 1091 1090 c 0,20,21
 1073 969 1073 969 997 864 c 128,-1,22
 921 759 921 759 763 589 c 1,23,-1
 337 160 l 1,24,-1
 339 154 l 1,25,-1
 1001 154 l 1,26,-1
 979 0 l 1,0,-1
EndSplineSet
Validated: 33
EndChar

StartChar: three
Encoding: 51 51 22
Width: 1153
GlyphClass: 1
Flags: W
LayerCount: 2
Fore
SplineSet
461 828 m 1,0,-1
 623 828 l 2,1,2
 749 828 749 828 816.5 894.5 c 128,-1,3
 884 961 884 961 902 1077 c 0,4,5
 919 1191 919 1191 870 1256.5 c 128,-1,6
 821 1322 821 1322 702 1322 c 0,7,8
 592 1322 592 1322 504.5 1250.5 c 128,-1,9
 417 1179 417 1179 402 1075 c 1,10,-1
 214 1075 l 1,11,-1
 212 1081 l 1,12,13
 233 1251 233 1251 378 1364 c 128,-1,14
 523 1477 523 1477 726 1477 c 0,15,16
 921 1477 921 1477 1024 1373.5 c 128,-1,17
 1127 1270 1127 1270 1098 1073 c 0,18,19
 1082 966 1082 966 1016 882.5 c 128,-1,20
 950 799 950 799 846 754 c 1,21,22
 948 708 948 708 993 619 c 128,-1,23
 1038 530 1038 530 1020 406 c 0,24,25
 988 198 988 198 847 88.5 c 128,-1,26
 706 -21 706 -21 501 -21 c 0,27,28
 322 -21 322 -21 193.5 89.5 c 128,-1,29
 65 200 65 200 97 378 c 1,30,-1
 99 384 l 1,31,-1
 288 384 l 1,32,33
 271 274 271 274 336.5 203.5 c 128,-1,34
 402 133 402 133 524 133 c 0,35,36
 639 133 639 133 721.5 208.5 c 128,-1,37
 804 284 804 284 822 402 c 0,38,39
 843 544 843 544 790 609.5 c 128,-1,40
 737 675 737 675 600 675 c 2,41,-1
 438 675 l 1,42,-1
 443 707 l 1,43,-1
 456 795 l 1,44,-1
 461 828 l 1,0,-1
EndSplineSet
Validated: 33
EndChar

StartChar: four
Encoding: 52 52 23
Width: 1153
GlyphClass: 1
Flags: W
LayerCount: 2
Fore
SplineSet
886 490 m 1,0,-1
 1088 490 l 1,1,-1
 1064 336 l 1,2,-1
 863 336 l 1,3,-1
 813 0 l 1,4,-1
 617 0 l 1,5,-1
 667 336 l 1,6,-1
 42 336 l 1,7,-1
 59 447 l 1,8,-1
 823 1456 l 1,9,-1
 1031 1456 l 1,10,-1
 886 490 l 1,0,-1
277 490 m 1,11,-1
 690 490 l 1,12,-1
 792 1170 l 1,13,-1
 787 1172 l 1,14,-1
 761 1124 l 1,15,-1
 277 490 l 1,11,-1
EndSplineSet
Validated: 1
EndChar

StartChar: five
Encoding: 53 53 24
Width: 1153
GlyphClass: 1
Flags: W
LayerCount: 2
Fore
SplineSet
192 647 m 1,0,-1
 397 1456 l 1,1,-1
 1126 1456 l 1,2,-1
 1100 1281 l 1,3,-1
 537 1281 l 1,4,-1
 427 862 l 1,5,6
 479 897 479 897 539.5 919.5 c 128,-1,7
 600 942 600 942 673 943 c 0,8,9
 875 945 875 945 970.5 816.5 c 128,-1,10
 1066 688 1066 688 1033 464 c 0,11,12
 998 237 998 237 862.5 108 c 128,-1,13
 727 -21 727 -21 500 -21 c 0,14,15
 321 -21 321 -21 210.5 80.5 c 128,-1,16
 100 182 100 182 133 378 c 1,17,-1
 135 383 l 1,18,-1
 314 383 l 1,19,20
 295 260 295 260 353.5 196.5 c 128,-1,21
 412 133 412 133 523 133 c 0,22,23
 643 133 643 133 727.5 222 c 128,-1,24
 812 311 812 311 835 462 c 0,25,26
 856 606 856 606 800 689.5 c 128,-1,27
 744 773 744 773 619 773 c 0,28,29
 508 773 508 773 448 737 c 128,-1,30
 388 701 388 701 353 630 c 1,31,-1
 192 647 l 1,0,-1
EndSplineSet
Validated: 33
EndChar

StartChar: six
Encoding: 54 54 25
Width: 1153
GlyphClass: 1
Flags: W
LayerCount: 2
Fore
SplineSet
783 1477 m 0,0,1
 865 1477 865 1477 949 1459.5 c 128,-1,2
 1033 1442 1033 1442 1083 1417 c 1,3,-1
 1018 1266 l 1,4,5
 965 1291 965 1291 904 1306.5 c 128,-1,6
 843 1322 843 1322 759 1322 c 0,7,8
 627 1322 627 1322 521 1204 c 128,-1,9
 415 1086 415 1086 389 909 c 2,10,-1
 373 800 l 1,11,12
 443 860 443 860 531 893.5 c 128,-1,13
 619 927 619 927 716 927 c 0,14,15
 896 927 896 927 990 800 c 128,-1,16
 1084 673 1084 673 1055 470 c 0,17,18
 1019 238 1019 238 878.5 108.5 c 128,-1,19
 738 -21 738 -21 528 -21 c 0,20,21
 333 -21 333 -21 216.5 133.5 c 128,-1,22
 100 288 100 288 140 552 c 2,23,-1
 190 887 l 2,24,25
 230 1153 230 1153 398.5 1315 c 128,-1,26
 567 1477 567 1477 783 1477 c 0,0,1
631 780 m 0,27,28
 540 780 540 780 467 739 c 128,-1,29
 394 698 394 698 347 629 c 1,30,-1
 333 533 l 2,31,32
 304 341 304 341 368 237 c 128,-1,33
 432 133 432 133 551 133 c 0,34,35
 669 133 669 133 752 227.5 c 128,-1,36
 835 322 835 322 858 470 c 0,37,38
 879 617 879 617 820.5 698.5 c 128,-1,39
 762 780 762 780 631 780 c 0,27,28
EndSplineSet
Validated: 33
EndChar

StartChar: seven
Encoding: 55 55 26
Width: 1153
GlyphClass: 1
Flags: W
LayerCount: 2
Fore
SplineSet
1178 1301 m 1,0,1
 853 973 853 973 718.5 722 c 128,-1,2
 584 471 584 471 537 159 c 2,3,-1
 513 0 l 1,4,-1
 316 0 l 1,5,-1
 340 159 l 2,6,7
 391 503 391 503 548 757 c 128,-1,8
 705 1011 705 1011 984 1301 c 1,9,-1
 212 1301 l 1,10,-1
 235 1456 l 1,11,-1
 1201 1456 l 1,12,-1
 1178 1301 l 1,0,1
EndSplineSet
Validated: 1
EndChar

StartChar: eight
Encoding: 56 56 27
Width: 1153
GlyphClass: 1
Flags: W
LayerCount: 2
Fore
SplineSet
1093 1084 m 0,0,1
 1074 965 1074 965 998 879 c 128,-1,2
 922 793 922 793 809 752 c 1,3,4
 924 706 924 706 985.5 613 c 128,-1,5
 1047 520 1047 520 1030 400 c 0,6,7
 998 191 998 191 853.5 85 c 128,-1,8
 709 -21 709 -21 504 -21 c 0,9,10
 297 -21 297 -21 174 90 c 128,-1,11
 51 201 51 201 82 400 c 0,12,13
 101 529 101 529 191.5 622 c 128,-1,14
 282 715 282 715 420 757 c 1,15,16
 316 801 316 801 262.5 887 c 128,-1,17
 209 973 209 973 226 1084 c 0,18,19
 255 1282 255 1282 391 1379.5 c 128,-1,20
 527 1477 527 1477 727 1477 c 0,21,22
 906 1477 906 1477 1013 1375 c 128,-1,23
 1120 1273 1120 1273 1093 1084 c 0,0,1
835 404 m 0,24,25
 853 527 853 527 787.5 602 c 128,-1,26
 722 677 722 677 607 677 c 0,27,28
 488 677 488 677 392.5 599.5 c 128,-1,29
 297 522 297 522 280 404 c 0,30,31
 260 277 260 277 329.5 205 c 128,-1,32
 399 133 399 133 527 133 c 0,33,34
 637 133 637 133 726.5 208 c 128,-1,35
 816 283 816 283 835 404 c 0,24,25
895 1081 m 0,36,37
 911 1190 911 1190 856 1256 c 128,-1,38
 801 1322 801 1322 703 1322 c 0,39,40
 600 1322 600 1322 519 1256 c 128,-1,41
 438 1190 438 1190 422 1081 c 0,42,43
 405 966 405 966 464.5 899 c 128,-1,44
 524 832 524 832 632 832 c 0,45,46
 725 832 725 832 801.5 901.5 c 128,-1,47
 878 971 878 971 895 1081 c 0,36,37
EndSplineSet
Validated: 33
EndChar

StartChar: nine
Encoding: 57 57 28
Width: 1153
GlyphClass: 1
Flags: W
LayerCount: 2
Fore
SplineSet
441 133 m 0,0,1
 578 133 578 133 682.5 232 c 128,-1,2
 787 331 787 331 814 509 c 2,3,-1
 831 626 l 1,4,5
 773 557 773 557 697 523 c 128,-1,6
 621 489 621 489 535 489 c 0,7,8
 333 489 333 489 229 620 c 128,-1,9
 125 751 125 751 160 978 c 0,10,11
 194 1207 194 1207 340.5 1342 c 128,-1,12
 487 1477 487 1477 676 1477 c 0,13,14
 886 1477 886 1477 1001 1339 c 128,-1,15
 1116 1201 1116 1201 1079 953 c 2,16,-1
 1013 511 l 2,17,18
 974 250 974 250 811.5 114.5 c 128,-1,19
 649 -21 649 -21 418 -21 c 0,20,21
 344 -21 344 -21 264 -5 c 128,-1,22
 184 11 184 11 119 42 c 1,23,-1
 172 192 l 1,24,25
 234 160 234 160 295 146.5 c 128,-1,26
 356 133 356 133 441 133 c 0,0,1
558 643 m 0,27,28
 657 643 657 643 736 691.5 c 128,-1,29
 815 740 815 740 859 813 c 1,30,-1
 885 982 l 2,31,32
 910 1152 910 1152 850.5 1237 c 128,-1,33
 791 1322 791 1322 658 1322 c 0,34,35
 555 1322 555 1322 467 1226 c 128,-1,36
 379 1130 379 1130 357 978 c 0,37,38
 333 822 333 822 384.5 732.5 c 128,-1,39
 436 643 436 643 558 643 c 0,27,28
EndSplineSet
Validated: 33
EndChar

StartChar: less
Encoding: 60 60 31
Width: 1040
GlyphClass: 1
Flags: W
LayerCount: 2
Fore
SplineSet
335 579 m 1,0,-1
 247 561 l 1,1,-1
 247 555 l 1,2,-1
 328 536 l 1,3,-1
 853 308 l 1,4,-1
 823 107 l 1,5,-1
 64 486 l 1,6,-1
 80 594 l 1,7,-1
 86 635 l 1,8,-1
 959 1013 l 1,9,-1
 929 812 l 1,10,-1
 335 579 l 1,0,-1
EndSplineSet
Validated: 1
EndChar

StartChar: equal
Encoding: 61 61 32
Width: 1153
GlyphClass: 1
Flags: W
LayerCount: 2
Fore
SplineSet
1029 823 m 1,0,-1
 195 823 l 1,1,-1
 220 987 l 1,2,-1
 1054 987 l 1,3,-1
 1029 823 l 1,0,-1
967 407 m 1,4,-1
 133 407 l 1,5,-1
 158 571 l 1,6,-1
 992 571 l 1,7,-1
 967 407 l 1,4,-1
EndSplineSet
Validated: 1
EndChar

StartChar: greater
Encoding: 62 62 33
Width: 1072
GlyphClass: 1
Flags: W
LayerCount: 2
Fore
SplineSet
176 798 m 1,0,-1
 205 993 l 1,1,-1
 1004 615 l 1,2,-1
 998 575 l 1,3,-1
 988 506 l 1,4,-1
 982 466 l 1,5,-1
 69 87 l 1,6,-1
 98 283 l 1,7,-1
 732 521 l 1,8,-1
 820 539 l 1,9,-1
 820 545 l 1,10,-1
 739 564 l 1,11,-1
 176 798 l 1,0,-1
EndSplineSet
Validated: 1
EndChar

StartChar: question
Encoding: 63 63 34
Width: 974
GlyphClass: 1
Flags: W
LayerCount: 2
Fore
SplineSet
337 410 m 1,0,1
 360 556 360 556 392 611.5 c 128,-1,2
 424 667 424 667 540 759 c 1,3,4
 656 875 656 875 707.5 938.5 c 128,-1,5
 759 1002 759 1002 773 1091 c 0,6,7
 789 1201 789 1201 741.5 1256 c 128,-1,8
 694 1311 694 1311 588 1311 c 0,9,10
 500 1311 500 1311 426.5 1261 c 128,-1,11
 353 1211 353 1211 339 1116 c 1,12,-1
 151 1116 l 1,13,-1
 149 1122 l 1,14,15
 171 1283 171 1283 302 1380 c 128,-1,16
 433 1477 433 1477 613 1477 c 0,17,18
 802 1477 802 1477 899.5 1375.5 c 128,-1,19
 997 1274 997 1274 970 1096 c 0,20,21
 950 961 950 961 866.5 859.5 c 128,-1,22
 783 758 783 758 645 641 c 0,23,24
 583 587 583 587 565 544 c 128,-1,25
 547 501 547 501 534 410 c 1,26,-1
 337 410 l 1,0,1
479 0 m 1,27,-1
 273 0 l 1,28,-1
 304 208 l 1,29,-1
 510 208 l 1,30,-1
 479 0 l 1,27,-1
EndSplineSet
Validated: 33
EndChar

StartChar: at
Encoding: 64 64 35
Width: 1833
GlyphClass: 1
Flags: W
LayerCount: 2
Fore
SplineSet
1727 502 m 0,0,1
 1686 288 1686 288 1552 133.5 c 128,-1,2
 1418 -21 1418 -21 1197 -21 c 0,3,4
 1127 -21 1127 -21 1079 21 c 128,-1,5
 1031 63 1031 63 1019 139 c 1,6,7
 957 58 957 58 879 18.5 c 128,-1,8
 801 -21 801 -21 705 -21 c 0,9,10
 584 -21 584 -21 531.5 100.5 c 128,-1,11
 479 222 479 222 525 416 c 0,12,13
 588 676 588 676 725.5 832 c 128,-1,14
 863 988 863 988 1028 988 c 0,15,16
 1128 988 1128 988 1191.5 961 c 128,-1,17
 1255 934 1255 934 1320 882 c 1,18,-1
 1316 878 l 1,19,-1
 1322 878 l 1,20,-1
 1183 293 l 2,21,22
 1157 183 1157 183 1181.5 141.5 c 128,-1,23
 1206 100 1206 100 1257 100 c 0,24,25
 1375 100 1375 100 1468.5 215 c 128,-1,26
 1562 330 1562 330 1596 502 c 0,27,28
 1670 884 1670 884 1542 1097.5 c 128,-1,29
 1414 1311 1414 1311 1078 1311 c 0,30,31
 782 1311 782 1311 553.5 1077.5 c 128,-1,32
 325 844 325 844 255 478 c 0,33,34
 181 102 181 102 316 -116.5 c 128,-1,35
 451 -335 451 -335 765 -335 c 0,36,37
 850 -335 850 -335 945 -313.5 c 128,-1,38
 1040 -292 1040 -292 1107 -257 c 1,39,-1
 1129 -364 l 1,40,41
 1056 -406 1056 -406 949 -429.5 c 128,-1,42
 842 -453 842 -453 743 -453 c 0,43,44
 377 -453 377 -453 201 -201 c 128,-1,45
 25 51 25 51 106 478 c 0,46,47
 188 901 188 901 458 1166 c 128,-1,48
 728 1431 728 1431 1100 1431 c 0,49,50
 1465 1431 1465 1431 1636.5 1178.5 c 128,-1,51
 1808 926 1808 926 1727 502 c 0,0,1
702 416 m 0,52,53
 670 274 670 274 691.5 200 c 128,-1,54
 713 126 713 126 787 126 c 0,55,56
 849 126 849 126 907 151 c 128,-1,57
 965 176 965 176 1018 240 c 1,58,59
 1019 253 1019 253 1021.5 266.5 c 128,-1,60
 1024 280 1024 280 1028 293 c 2,61,-1
 1156 831 l 1,62,63
 1131 843 1131 843 1104 850 c 128,-1,64
 1077 857 1077 857 1046 857 c 0,65,66
 926 857 926 857 840.5 746 c 128,-1,67
 755 635 755 635 702 416 c 0,52,53
EndSplineSet
Validated: 33
EndChar

StartChar: A
Encoding: 65 65 36
Width: 1295
GlyphClass: 1
Flags: W
LayerCount: 2
Fore
SplineSet
899 375 m 1,0,-1
 350 375 l 1,1,-1
 164 0 l 1,2,-1
 -37 0 l 1,3,-1
 706 1456 l 1,4,-1
 875 1456 l 1,5,-1
 1171 0 l 1,6,-1
 970 0 l 1,7,-1
 899 375 l 1,0,-1
432 540 m 1,8,-1
 867 540 l 1,9,-1
 749 1165 l 1,10,-1
 743 1166 l 1,11,-1
 432 540 l 1,8,-1
EndSplineSet
Validated: 1
Substitution2: "'smcp' Lowercase to Small Capitals lookup 0 subtable" A.smcp
EndChar

StartChar: B
Encoding: 66 66 37
Width: 1302
GlyphClass: 1
Flags: W
LayerCount: 2
Fore
SplineSet
90 0 m 1,0,-1
 308 1456 l 1,1,-1
 783 1456 l 2,2,3
 1002 1456 1002 1456 1120.5 1356.5 c 128,-1,4
 1239 1257 1239 1257 1210 1062 c 0,5,6
 1195 965 1195 965 1127 891 c 128,-1,7
 1059 817 1059 817 957 779 c 1,8,9
 1096 758 1096 758 1163.5 654.5 c 128,-1,10
 1231 551 1231 551 1211 411 c 0,11,12
 1179 203 1179 203 1036 101.5 c 128,-1,13
 893 0 893 0 667 0 c 2,14,-1
 90 0 l 1,0,-1
389 683 m 1,15,-1
 310 154 l 1,16,-1
 690 154 l 2,17,18
 820 154 820 154 907 221 c 128,-1,19
 994 288 994 288 1012 409 c 0,20,21
 1030 534 1030 534 965.5 606.5 c 128,-1,22
 901 679 901 679 772 683 c 1,23,-1
 759 683 l 1,24,-1
 389 683 l 1,15,-1
412 837 m 1,25,-1
 732 837 l 2,26,27
 838 837 838 837 918 898 c 128,-1,28
 998 959 998 959 1014 1066 c 0,29,30
 1032 1188 1032 1188 967 1244.5 c 128,-1,31
 902 1301 902 1301 760 1301 c 2,32,-1
 482 1301 l 1,33,-1
 412 837 l 1,25,-1
EndSplineSet
Validated: 33
Substitution2: "'smcp' Lowercase to Small Capitals lookup 0 subtable" B.smcp
EndChar

StartChar: C
Encoding: 67 67 38
Width: 1297
GlyphClass: 1
Flags: W
LayerCount: 2
Fore
SplineSet
1198 466 m 1,0,-1
 1200 460 l 1,1,2
 1172 247 1172 247 1005 113 c 128,-1,3
 838 -21 838 -21 593 -21 c 0,4,5
 356 -21 356 -21 221.5 155.5 c 128,-1,6
 87 332 87 332 128 598 c 2,7,-1
 167 857 l 2,8,9
 208 1136 208 1136 388 1306.5 c 128,-1,10
 568 1477 568 1477 818 1477 c 0,11,12
 1056 1477 1056 1477 1186.5 1344.5 c 128,-1,13
 1317 1212 1317 1212 1281 997 c 1,14,-1
 1278 991 l 1,15,-1
 1089 991 l 1,16,17
 1112 1150 1112 1150 1036 1236 c 128,-1,18
 960 1322 960 1322 794 1322 c 0,19,20
 636 1322 636 1322 514.5 1187.5 c 128,-1,21
 393 1053 393 1053 364 859 c 2,22,-1
 325 598 l 2,23,24
 293 391 293 391 371 262 c 128,-1,25
 449 133 449 133 616 133 c 0,26,27
 774 133 774 133 880 222.5 c 128,-1,28
 986 312 986 312 1010 466 c 1,29,-1
 1198 466 l 1,0,-1
EndSplineSet
Validated: 33
Substitution2: "'smcp' Lowercase to Small Capitals lookup 0 subtable" C.smcp
EndChar

StartChar: D
Encoding: 68 68 39
Width: 1387
GlyphClass: 1
Flags: W
LayerCount: 2
Fore
SplineSet
90 0 m 1,0,-1
 308 1456 l 1,1,-1
 766 1456 l 2,2,3
 1041 1456 1041 1456 1193 1278.5 c 128,-1,4
 1345 1101 1345 1101 1304 827 c 2,5,-1
 1274 628 l 2,6,7
 1230 339 1230 339 1033.5 169.5 c 128,-1,8
 837 0 837 0 548 0 c 2,9,-1
 90 0 l 1,0,-1
482 1301 m 1,10,-1
 310 154 l 1,11,-1
 571 154 l 2,12,13
 765 154 765 154 905.5 288.5 c 128,-1,14
 1046 423 1046 423 1077 628 c 2,15,-1
 1107 829 l 2,16,17
 1139 1042 1139 1042 1043 1171.5 c 128,-1,18
 947 1301 947 1301 743 1301 c 2,19,-1
 482 1301 l 1,10,-1
EndSplineSet
Validated: 33
Substitution2: "'smcp' Lowercase to Small Capitals lookup 0 subtable" D.smcp
EndChar

StartChar: E
Encoding: 69 69 40
Width: 1130
GlyphClass: 1
Flags: W
LayerCount: 2
Fore
SplineSet
986 675 m 1,0,-1
 388 675 l 1,1,-1
 310 154 l 1,2,-1
 1010 154 l 1,3,-1
 987 0 l 1,4,-1
 90 0 l 1,5,-1
 308 1456 l 1,6,-1
 1194 1456 l 1,7,-1
 1171 1301 l 1,8,-1
 481 1301 l 1,9,-1
 411 830 l 1,10,-1
 1010 830 l 1,11,-1
 986 675 l 1,0,-1
EndSplineSet
Validated: 1
Substitution2: "'smcp' Lowercase to Small Capitals lookup 0 subtable" E.smcp
EndChar

StartChar: F
Encoding: 70 70 41
Width: 1130
GlyphClass: 1
Flags: W
LayerCount: 2
Fore
SplineSet
998 644 m 1,0,-1
 383 644 l 1,1,-1
 287 0 l 1,2,-1
 90 0 l 1,3,-1
 308 1456 l 1,4,-1
 1221 1456 l 1,5,-1
 1198 1301 l 1,6,-1
 482 1301 l 1,7,-1
 406 799 l 1,8,-1
 1021 799 l 1,9,-1
 998 644 l 1,0,-1
EndSplineSet
Validated: 1
Substitution2: "'smcp' Lowercase to Small Capitals lookup 0 subtable" F.smcp
EndChar

StartChar: G
Encoding: 71 71 42
Width: 1387
GlyphClass: 1
Flags: W
LayerCount: 2
Fore
SplineSet
1166 196 m 1,0,1
 1102 115 1102 115 963 47 c 128,-1,2
 824 -21 824 -21 620 -21 c 0,3,4
 377 -21 377 -21 232.5 147.5 c 128,-1,5
 88 316 88 316 128 578 c 2,6,-1
 173 878 l 2,7,8
 214 1153 214 1153 396 1315 c 128,-1,9
 578 1477 578 1477 832 1477 c 0,10,11
 1065 1477 1065 1477 1191.5 1346 c 128,-1,12
 1318 1215 1318 1215 1284 1018 c 1,13,-1
 1281 1012 l 1,14,-1
 1092 1012 l 1,15,16
 1112 1149 1112 1149 1039.5 1235.5 c 128,-1,17
 967 1322 967 1322 808 1322 c 0,18,19
 648 1322 648 1322 523.5 1196 c 128,-1,20
 399 1070 399 1070 371 880 c 2,21,-1
 326 578 l 2,22,23
 295 377 295 377 384 255 c 128,-1,24
 473 133 473 133 643 133 c 0,25,26
 766 133 766 133 850.5 167.5 c 128,-1,27
 935 202 935 202 977 246 c 1,28,-1
 1026 574 l 1,29,-1
 696 574 l 1,30,-1
 719 728 l 1,31,-1
 1246 728 l 1,32,-1
 1166 196 l 1,0,1
EndSplineSet
Validated: 33
Substitution2: "'smcp' Lowercase to Small Capitals lookup 0 subtable" G.smcp
EndChar

StartChar: H
Encoding: 72 72 43
Width: 1441
GlyphClass: 1
Flags: W
LayerCount: 2
Fore
SplineSet
1191 0 m 1,0,-1
 994 0 l 1,1,-1
 1090 643 l 1,2,-1
 383 643 l 1,3,-1
 287 0 l 1,4,-1
 90 0 l 1,5,-1
 308 1456 l 1,6,-1
 505 1456 l 1,7,-1
 406 798 l 1,8,-1
 1113 798 l 1,9,-1
 1212 1456 l 1,10,-1
 1409 1456 l 1,11,-1
 1191 0 l 1,0,-1
EndSplineSet
Validated: 1
Substitution2: "'smcp' Lowercase to Small Capitals lookup 0 subtable" H.smcp
EndChar

StartChar: I
Encoding: 73 73 44
Width: 579
GlyphClass: 1
Flags: W
LayerCount: 2
Fore
SplineSet
308 0 m 1,0,-1
 110 0 l 1,1,-1
 328 1456 l 1,2,-1
 526 1456 l 1,3,-1
 308 0 l 1,0,-1
EndSplineSet
Validated: 1
Substitution2: "'smcp' Lowercase to Small Capitals lookup 0 subtable" I.smcp
EndChar

StartChar: J
Encoding: 74 74 45
Width: 1123
GlyphClass: 1
Flags: W
LayerCount: 2
Fore
SplineSet
897 1456 m 1,0,-1
 1094 1456 l 1,1,-1
 939 422 l 2,2,3
 907 211 907 211 767.5 95 c 128,-1,4
 628 -21 628 -21 429 -21 c 0,5,6
 236 -21 236 -21 129.5 86.5 c 128,-1,7
 23 194 23 194 58 396 c 1,8,-1
 60 401 l 1,9,-1
 250 401 l 1,10,11
 229 260 229 260 281.5 196.5 c 128,-1,12
 334 133 334 133 452 133 c 0,13,14
 557 133 557 133 639.5 212.5 c 128,-1,15
 722 292 722 292 742 422 c 2,16,-1
 897 1456 l 1,0,-1
EndSplineSet
Validated: 33
Substitution2: "'smcp' Lowercase to Small Capitals lookup 0 subtable" J.smcp
EndChar

StartChar: K
Encoding: 75 75 46
Width: 1226
GlyphClass: 1
Flags: W
LayerCount: 2
Fore
SplineSet
485 658 m 1,0,-1
 368 658 l 1,1,-1
 270 0 l 1,2,-1
 73 0 l 1,3,-1
 291 1456 l 1,4,-1
 488 1456 l 1,5,-1
 393 823 l 1,6,-1
 521 823 l 1,7,-1
 1066 1456 l 1,8,-1
 1308 1456 l 1,9,-1
 1310 1451 l 1,10,-1
 655 727 l 1,11,-1
 1117 0 l 1,12,-1
 892 0 l 1,13,-1
 485 658 l 1,0,-1
EndSplineSet
Validated: 1
Substitution2: "'smcp' Lowercase to Small Capitals lookup 0 subtable" K.smcp
EndChar

StartChar: L
Encoding: 76 76 47
Width: 1126
GlyphClass: 1
Flags: W
LayerCount: 2
Fore
SplineSet
310 154 m 1,0,-1
 1020 154 l 1,1,-1
 997 0 l 1,2,-1
 90 0 l 1,3,-1
 308 1456 l 1,4,-1
 505 1456 l 1,5,-1
 310 154 l 1,0,-1
EndSplineSet
Validated: 1
Substitution2: "'smcp' Lowercase to Small Capitals lookup 0 subtable" L.smcp
EndChar

StartChar: M
Encoding: 77 77 48
Width: 1779
GlyphClass: 1
Flags: W
LayerCount: 2
Fore
SplineSet
853 273 m 1,0,-1
 859 272 l 1,1,-1
 1501 1456 l 1,2,-1
 1746 1456 l 1,3,-1
 1528 0 l 1,4,-1
 1331 0 l 1,5,-1
 1494 1090 l 1,6,-1
 1488 1092 l 1,7,-1
 884 0 l 1,8,-1
 747 0 l 1,9,-1
 462 1128 l 1,10,-1
 456 1128 l 1,11,-1
 287 0 l 1,12,-1
 90 0 l 1,13,-1
 308 1456 l 1,14,-1
 567 1456 l 1,15,-1
 853 273 l 1,0,-1
EndSplineSet
Validated: 1
Substitution2: "'smcp' Lowercase to Small Capitals lookup 0 subtable" M.smcp
EndChar

StartChar: N
Encoding: 78 78 49
Width: 1442
GlyphClass: 1
Flags: W
LayerCount: 2
Fore
SplineSet
1191 0 m 1,0,-1
 994 0 l 1,1,-1
 459 1113 l 1,2,-1
 453 1112 l 1,3,-1
 287 0 l 1,4,-1
 90 0 l 1,5,-1
 308 1456 l 1,6,-1
 505 1456 l 1,7,-1
 1040 344 l 1,8,-1
 1046 345 l 1,9,-1
 1212 1456 l 1,10,-1
 1409 1456 l 1,11,-1
 1191 0 l 1,0,-1
EndSplineSet
Validated: 1
Substitution2: "'smcp' Lowercase to Small Capitals lookup 0 subtable" N.smcp
EndChar

StartChar: O
Encoding: 79 79 50
Width: 1396
GlyphClass: 1
Flags: W
LayerCount: 2
Fore
SplineSet
1292 598 m 2,0,1
 1249 320 1249 320 1060 149.5 c 128,-1,2
 871 -21 871 -21 604 -21 c 0,3,4
 358 -21 358 -21 220.5 156.5 c 128,-1,5
 83 334 83 334 123 598 c 2,6,-1
 162 857 l 2,7,8
 203 1134 203 1134 387 1305.5 c 128,-1,9
 571 1477 571 1477 829 1477 c 0,10,11
 1082 1477 1082 1477 1226 1298.5 c 128,-1,12
 1370 1120 1370 1120 1331 857 c 2,13,-1
 1292 598 l 2,0,1
1134 859 m 2,14,15
 1164 1066 1164 1066 1076 1190.5 c 128,-1,16
 988 1315 988 1315 804 1315 c 0,17,18
 639 1315 639 1315 513.5 1185.5 c 128,-1,19
 388 1056 388 1056 359 859 c 2,20,-1
 320 598 l 2,21,22
 288 389 288 389 371 264.5 c 128,-1,23
 454 140 454 140 628 140 c 0,24,25
 804 140 804 140 934 269 c 128,-1,26
 1064 398 1064 398 1095 598 c 2,27,-1
 1134 859 l 2,14,15
EndSplineSet
Validated: 33
Substitution2: "'smcp' Lowercase to Small Capitals lookup 0 subtable" O.smcp
EndChar

StartChar: P
Encoding: 80 80 51
Width: 1302
GlyphClass: 1
Flags: W
LayerCount: 2
Fore
SplineSet
374 584 m 1,0,-1
 287 0 l 1,1,-1
 90 0 l 1,2,-1
 308 1456 l 1,3,-1
 865 1456 l 2,4,5
 1089 1456 1089 1456 1204.5 1335 c 128,-1,6
 1320 1214 1320 1214 1292 1020 c 0,7,8
 1260 814 1260 814 1115.5 699 c 128,-1,9
 971 584 971 584 735 584 c 2,10,-1
 374 584 l 1,0,-1
397 738 m 1,11,-1
 758 738 l 2,12,13
 900 738 900 738 988 818.5 c 128,-1,14
 1076 899 1076 899 1094 1018 c 0,15,16
 1112 1143 1112 1143 1051.5 1222 c 128,-1,17
 991 1301 991 1301 842 1301 c 2,18,-1
 482 1301 l 1,19,-1
 397 738 l 1,11,-1
EndSplineSet
Validated: 33
Substitution2: "'smcp' Lowercase to Small Capitals lookup 0 subtable" P.smcp
EndChar

StartChar: Q
Encoding: 81 81 52
Width: 1427
GlyphClass: 1
Flags: W
LayerCount: 2
Fore
SplineSet
1292 598 m 2,0,1
 1273 478 1273 478 1225 375.5 c 128,-1,2
 1177 273 1177 273 1105 194 c 1,3,-1
 1288 -14 l 1,4,-1
 1134 -143 l 1,5,-1
 946 67 l 1,6,7
 870 23 870 23 783.5 1 c 128,-1,8
 697 -21 697 -21 604 -21 c 0,9,10
 358 -21 358 -21 220.5 156.5 c 128,-1,11
 83 334 83 334 123 598 c 2,12,-1
 162 857 l 2,13,14
 203 1134 203 1134 387 1305.5 c 128,-1,15
 571 1477 571 1477 829 1477 c 0,16,17
 1082 1477 1082 1477 1226 1298.5 c 128,-1,18
 1370 1120 1370 1120 1331 857 c 2,19,-1
 1292 598 l 2,0,1
1134 859 m 2,20,21
 1164 1066 1164 1066 1076 1190.5 c 128,-1,22
 988 1315 988 1315 804 1315 c 0,23,24
 639 1315 639 1315 513.5 1185.5 c 128,-1,25
 388 1056 388 1056 359 859 c 2,26,-1
 320 598 l 2,27,28
 288 389 288 389 371 264.5 c 128,-1,29
 454 140 454 140 628 140 c 0,30,31
 804 140 804 140 934 269 c 128,-1,32
 1064 398 1064 398 1095 598 c 2,33,-1
 1134 859 l 2,20,21
EndSplineSet
Validated: 33
Substitution2: "'smcp' Lowercase to Small Capitals lookup 0 subtable" Q.smcp
EndChar

StartChar: R
Encoding: 82 82 53
Width: 1303
GlyphClass: 1
Flags: W
LayerCount: 2
Fore
SplineSet
381 631 m 1,0,-1
 287 0 l 1,1,-1
 90 0 l 1,2,-1
 308 1455 l 1,3,-1
 806 1455 l 2,4,5
 1036 1455 1036 1455 1150.5 1348 c 128,-1,6
 1265 1241 1265 1241 1235 1041 c 0,7,8
 1217 923 1217 923 1146 841.5 c 128,-1,9
 1075 760 1075 760 954 713 c 1,10,11
 1065 673 1065 673 1107 584.5 c 128,-1,12
 1149 496 1149 496 1131 371 c 2,13,-1
 1110 234 l 2,14,15
 1099 163 1099 163 1106.5 110.5 c 128,-1,16
 1114 58 1114 58 1146 24 c 1,17,-1
 1142 0 l 1,18,-1
 939 0 l 1,19,20
 905 34 905 34 904 99 c 128,-1,21
 903 164 903 164 913 236 c 2,22,-1
 933 369 l 2,23,24
 951 492 951 492 893.5 561.5 c 128,-1,25
 836 631 836 631 719 631 c 2,26,-1
 381 631 l 1,0,-1
404 786 m 1,27,-1
 686 786 l 2,28,29
 846 786 846 786 932 850.5 c 128,-1,30
 1018 915 1018 915 1038 1043 c 0,31,32
 1057 1170 1057 1170 996.5 1235.5 c 128,-1,33
 936 1301 936 1301 783 1301 c 2,34,-1
 482 1301 l 1,35,-1
 404 786 l 1,27,-1
EndSplineSet
Validated: 33
Substitution2: "'smcp' Lowercase to Small Capitals lookup 0 subtable" R.smcp
EndChar

StartChar: S
Encoding: 83 83 54
Width: 1243
GlyphClass: 1
Flags: W
LayerCount: 2
Fore
SplineSet
945 334 m 0,0,1
 961 446 961 446 894 515 c 128,-1,2
 827 584 827 584 638 646 c 1,3,4
 408 716 408 716 304.5 821 c 128,-1,5
 201 926 201 926 230 1120 c 0,6,7
 255 1290 255 1290 393.5 1383.5 c 128,-1,8
 532 1477 532 1477 735 1477 c 0,9,10
 970 1477 970 1477 1101 1358 c 128,-1,11
 1232 1239 1232 1239 1196 1032 c 1,12,-1
 1194 1026 l 1,13,-1
 1005 1026 l 1,14,15
 1024 1157 1024 1157 944 1239.5 c 128,-1,16
 864 1322 864 1322 711 1322 c 0,17,18
 598 1322 598 1322 518.5 1264.5 c 128,-1,19
 439 1207 439 1207 427 1122 c 0,20,21
 409 1001 409 1001 469.5 939.5 c 128,-1,22
 530 878 530 878 731 810 c 0,23,24
 966 733 966 733 1068.5 630.5 c 128,-1,25
 1171 528 1171 528 1142 336 c 0,26,27
 1115 159 1115 159 973.5 69 c 128,-1,28
 832 -21 832 -21 619 -21 c 0,29,30
 385 -21 385 -21 226.5 87 c 128,-1,31
 68 195 68 195 107 423 c 1,32,-1
 110 429 l 1,33,-1
 298 429 l 1,34,35
 274 269 274 269 379 201 c 128,-1,36
 484 133 484 133 642 133 c 0,37,38
 757 133 757 133 844 189.5 c 128,-1,39
 931 246 931 246 945 334 c 0,0,1
EndSplineSet
Validated: 33
Substitution2: "'smcp' Lowercase to Small Capitals lookup 0 subtable" S.smcp
EndChar

StartChar: T
Encoding: 84 84 55
Width: 1225
GlyphClass: 1
Flags: W
LayerCount: 2
Fore
SplineSet
1303 1301 m 1,0,-1
 823 1301 l 1,1,-1
 628 0 l 1,2,-1
 431 0 l 1,3,-1
 626 1301 l 1,4,-1
 152 1301 l 1,5,-1
 175 1456 l 1,6,-1
 1326 1456 l 1,7,-1
 1303 1301 l 1,0,-1
EndSplineSet
Validated: 1
Substitution2: "'smcp' Lowercase to Small Capitals lookup 0 subtable" T.smcp
EndChar

StartChar: U
Encoding: 85 85 56
Width: 1386
GlyphClass: 1
Flags: W
LayerCount: 2
Fore
SplineSet
1382 1456 m 1,0,-1
 1237 489 l 2,1,2
 1200 240 1200 240 1026 109.5 c 128,-1,3
 852 -21 852 -21 603 -21 c 0,4,5
 374 -21 374 -21 239 115.5 c 128,-1,6
 104 252 104 252 140 489 c 2,7,-1
 285 1456 l 1,8,-1
 482 1456 l 1,9,-1
 337 489 l 2,10,11
 311 315 311 315 392 224 c 128,-1,12
 473 133 473 133 626 133 c 0,13,14
 780 133 780 133 897.5 228 c 128,-1,15
 1015 323 1015 323 1040 489 c 2,16,-1
 1185 1456 l 1,17,-1
 1382 1456 l 1,0,-1
EndSplineSet
Validated: 33
Substitution2: "'smcp' Lowercase to Small Capitals lookup 0 subtable" U.smcp
EndChar

StartChar: V
Encoding: 86 86 57
Width: 1295
GlyphClass: 1
Flags: W
LayerCount: 2
Fore
SplineSet
589 382 m 1,0,-1
 604 262 l 1,1,-1
 610 261 l 1,2,-1
 661 382 l 1,3,-1
 1198 1456 l 1,4,-1
 1411 1456 l 1,5,-1
 652 0 l 1,6,-1
 483 0 l 1,7,-1
 160 1456 l 1,8,-1
 374 1456 l 1,9,-1
 589 382 l 1,0,-1
EndSplineSet
Validated: 1
Substitution2: "'smcp' Lowercase to Small Capitals lookup 0 subtable" V.smcp
EndChar

StartChar: W
Encoding: 87 87 58
Width: 1763
GlyphClass: 1
Flags: W
LayerCount: 2
Fore
SplineSet
458 505 m 1,0,-1
 454 314 l 1,1,-1
 460 313 l 1,2,-1
 523 505 l 1,3,-1
 923 1456 l 1,4,-1
 1116 1456 l 1,5,-1
 1234 505 l 1,6,-1
 1238 311 l 1,7,-1
 1244 310 l 1,8,-1
 1301 505 l 1,9,-1
 1651 1456 l 1,10,-1
 1865 1456 l 1,11,-1
 1295 0 l 1,12,-1
 1119 0 l 1,13,-1
 980 1010 l 1,14,-1
 977 1140 l 1,15,-1
 971 1141 l 1,16,-1
 931 1010 l 1,17,-1
 484 0 l 1,18,-1
 308 0 l 1,19,-1
 175 1456 l 1,20,-1
 388 1456 l 1,21,-1
 458 505 l 1,0,-1
EndSplineSet
Validated: 1
Substitution2: "'smcp' Lowercase to Small Capitals lookup 0 subtable" W.smcp
EndChar

StartChar: X
Encoding: 88 88 59
Width: 1295
GlyphClass: 1
Flags: W
LayerCount: 2
Fore
SplineSet
703 888 m 1,0,-1
 1128 1456 l 1,1,-1
 1366 1456 l 1,2,-1
 796 734 l 1,3,-1
 1158 0 l 1,4,-1
 923 0 l 1,5,-1
 661 578 l 1,6,-1
 224 0 l 1,7,-1
 -14 0 l 1,8,-1
 568 734 l 1,9,-1
 214 1456 l 1,10,-1
 450 1456 l 1,11,-1
 703 888 l 1,0,-1
EndSplineSet
Validated: 1
Substitution2: "'smcp' Lowercase to Small Capitals lookup 0 subtable" X.smcp
EndChar

StartChar: Y
Encoding: 89 89 60
Width: 1295
GlyphClass: 1
Flags: W
LayerCount: 2
Fore
SplineSet
673 716 m 1,0,-1
 1163 1456 l 1,1,-1
 1388 1456 l 1,2,-1
 736 512 l 1,3,-1
 659 0 l 1,4,-1
 463 0 l 1,5,-1
 542 527 l 1,6,-1
 178 1456 l 1,7,-1
 403 1456 l 1,8,-1
 673 716 l 1,0,-1
EndSplineSet
Validated: 1
Substitution2: "'smcp' Lowercase to Small Capitals lookup 0 subtable" Y.smcp
EndChar

StartChar: Z
Encoding: 90 90 61
Width: 1145
GlyphClass: 1
Flags: W
LayerCount: 2
Fore
SplineSet
269 154 m 1,0,-1
 1009 154 l 1,1,-1
 986 0 l 1,2,-1
 41 0 l 1,3,-1
 43 146 l 1,4,-1
 859 1301 l 1,5,-1
 193 1301 l 1,6,-1
 216 1456 l 1,7,-1
 1110 1456 l 1,8,-1
 1089 1315 l 1,9,-1
 269 154 l 1,0,-1
EndSplineSet
Validated: 1
Substitution2: "'smcp' Lowercase to Small Capitals lookup 0 subtable" Z.smcp
EndChar

StartChar: bracketleft
Encoding: 91 91 62
Width: 552
GlyphClass: 1
Flags: W
LayerCount: 2
Fore
SplineSet
664 1509 m 1,0,-1
 476 1509 l 1,1,-1
 243 -157 l 1,2,-1
 431 -157 l 1,3,-1
 409 -312 l 1,4,-1
 24 -312 l 1,5,-1
 301 1664 l 1,6,-1
 686 1664 l 1,7,-1
 664 1509 l 1,0,-1
EndSplineSet
Validated: 1
EndChar

StartChar: backslash
Encoding: 92 92 63
Width: 846
GlyphClass: 1
Flags: W
LayerCount: 2
Fore
SplineSet
177 1456 m 1,0,-1
 363 1456 l 1,1,-1
 734 -125 l 1,2,-1
 548 -125 l 1,3,-1
 177 1456 l 1,0,-1
EndSplineSet
Validated: 1
EndChar

StartChar: bracketright
Encoding: 93 93 64
Width: 552
GlyphClass: 1
Flags: W
LayerCount: 2
Fore
SplineSet
169 1664 m 1,0,-1
 555 1664 l 1,1,-1
 278 -312 l 1,2,-1
 -108 -312 l 1,3,-1
 -86 -157 l 1,4,-1
 103 -157 l 1,5,-1
 336 1509 l 1,6,-1
 147 1509 l 1,7,-1
 169 1664 l 1,0,-1
EndSplineSet
Validated: 1
EndChar

StartChar: asciicircum
Encoding: 94 94 65
Width: 856
GlyphClass: 1
Flags: W
LayerCount: 2
Fore
SplineSet
273 729 m 1,0,-1
 90 729 l 1,1,-1
 498 1456 l 1,2,-1
 632 1456 l 1,3,-1
 821 729 l 1,4,-1
 640 729 l 1,5,-1
 537 1148 l 1,6,-1
 532 1217 l 1,7,-1
 526 1218 l 1,8,-1
 499 1148 l 1,9,-1
 273 729 l 1,0,-1
EndSplineSet
Validated: 1
EndChar

StartChar: underscore
Encoding: 95 95 66
Width: 931
GlyphClass: 1
Flags: W
LayerCount: 2
Fore
SplineSet
824 -154 m 1,0,-1
 -99 -154 l 1,1,-1
 -76 0 l 1,2,-1
 847 0 l 1,3,-1
 824 -154 l 1,0,-1
EndSplineSet
Validated: 1
EndChar

StartChar: grave
Encoding: 96 96 67
Width: 641
GlyphClass: 1
Flags: W
LayerCount: 2
Fore
SplineSet
590 1252 m 1,0,-1
 432 1252 l 1,1,-1
 219 1513 l 1,2,-1
 222 1518 l 1,3,-1
 453 1518 l 1,4,-1
 590 1252 l 1,0,-1
EndSplineSet
Validated: 1
EndChar

StartChar: a
Encoding: 97 97 68
Width: 1126
GlyphClass: 1
Flags: W
LayerCount: 2
Fore
SplineSet
728 0 m 1,0,1
 726 56 726 56 726 90.5 c 128,-1,2
 726 125 726 125 730 161 c 1,3,4
 663 84 663 84 566.5 31.5 c 128,-1,5
 470 -21 470 -21 369 -21 c 0,6,7
 206 -21 206 -21 127.5 66.5 c 128,-1,8
 49 154 49 154 72 304 c 0,9,10
 95 464 95 464 232 549 c 128,-1,11
 369 634 369 634 587 634 c 2,12,-1
 801 634 l 1,13,-1
 817 741 l 2,14,15
 832 840 832 840 782.5 893.5 c 128,-1,16
 733 947 733 947 626 947 c 0,17,18
 535 947 535 947 466 899 c 128,-1,19
 397 851 397 851 388 784 c 1,20,-1
 200 782 l 1,21,-1
 199 788 l 1,22,23
 211 911 211 911 342 1006.5 c 128,-1,24
 473 1102 473 1102 660 1102 c 0,25,26
 837 1102 837 1102 938 1007.5 c 128,-1,27
 1039 913 1039 913 1014 739 c 2,28,-1
 936 218 l 2,29,30
 926 157 926 157 924.5 104.5 c 128,-1,31
 923 52 923 52 931 0 c 1,32,-1
 728 0 l 1,0,1
423 144 m 0,33,34
 525 144 525 144 621 200 c 128,-1,35
 717 256 717 256 754 326 c 1,36,-1
 781 501 l 1,37,-1
 560 501 l 2,38,39
 445 501 445 501 362 440 c 128,-1,40
 279 379 279 379 268 300 c 0,41,42
 256 225 256 225 294.5 184.5 c 128,-1,43
 333 144 333 144 423 144 c 0,33,34
EndSplineSet
Validated: 33
Substitution2: "'smcp' Lowercase to Small Capitals lookup 0 subtable" A.smcp
EndChar

StartChar: b
Encoding: 98 98 69
Width: 1164
GlyphClass: 1
Flags: W
LayerCount: 2
Fore
SplineSet
1062 500 m 2,0,1
 1025 257 1025 257 893 118 c 128,-1,2
 761 -21 761 -21 562 -21 c 0,3,4
 457 -21 457 -21 384 23 c 128,-1,5
 311 67 311 67 270 152 c 1,6,-1
 214 0 l 1,7,-1
 63 0 l 1,8,-1
 297 1560 l 1,9,-1
 494 1560 l 1,10,-1
 403 954 l 1,11,12
 466 1026 466 1026 547 1064 c 128,-1,13
 628 1102 628 1102 728 1102 c 0,14,15
 920 1102 920 1102 1011.5 940.5 c 128,-1,16
 1103 779 1103 779 1065 521 c 2,17,-1
 1062 500 l 2,0,1
868 521 m 2,18,19
 897 714 897 714 846 828 c 128,-1,20
 795 942 795 942 654 942 c 0,21,22
 566 942 566 942 495.5 896.5 c 128,-1,23
 425 851 425 851 376 774 c 1,24,-1
 306 308 l 1,25,26
 332 228 332 228 387 183.5 c 128,-1,27
 442 139 442 139 536 139 c 0,28,29
 670 139 670 139 755.5 239.5 c 128,-1,30
 841 340 841 340 865 500 c 2,31,-1
 868 521 l 2,18,19
EndSplineSet
Validated: 33
Substitution2: "'smcp' Lowercase to Small Capitals lookup 0 subtable" B.smcp
EndChar

StartChar: c
Encoding: 99 99 70
Width: 1072
GlyphClass: 1
Flags: W
LayerCount: 2
Fore
SplineSet
513 133 m 0,0,1
 600 133 600 133 678.5 194 c 128,-1,2
 757 255 757 255 771 342 c 1,3,-1
 949 342 l 1,4,-1
 951 336 l 1,5,6
 933 190 933 190 794.5 84.5 c 128,-1,7
 656 -21 656 -21 490 -21 c 0,8,9
 272 -21 272 -21 166.5 135.5 c 128,-1,10
 61 292 61 292 95 520 c 2,11,-1
 101 562 l 2,12,13
 137 799 137 799 283 950.5 c 128,-1,14
 429 1102 429 1102 658 1102 c 0,15,16
 833 1102 833 1102 935 989 c 128,-1,17
 1037 876 1037 876 1008 714 c 1,18,-1
 1006 709 l 1,19,-1
 826 709 l 1,20,21
 841 812 841 812 788 879.5 c 128,-1,22
 735 947 735 947 635 947 c 0,23,24
 496 947 496 947 409 832.5 c 128,-1,25
 322 718 322 718 299 562 c 2,26,-1
 293 520 l 2,27,28
 267 352 267 352 316 242.5 c 128,-1,29
 365 133 365 133 513 133 c 0,0,1
EndSplineSet
Validated: 33
Substitution2: "'smcp' Lowercase to Small Capitals lookup 0 subtable" C.smcp
EndChar

StartChar: d
Encoding: 100 100 71
Width: 1164
GlyphClass: 1
Flags: W
LayerCount: 2
Fore
SplineSet
96 521 m 2,0,1
 136 792 136 792 270 947 c 128,-1,2
 404 1102 404 1102 607 1102 c 0,3,4
 700 1102 700 1102 768.5 1065 c 128,-1,5
 837 1028 837 1028 880 958 c 1,6,-1
 970 1560 l 1,7,-1
 1167 1560 l 1,8,-1
 933 0 l 1,9,-1
 782 0 l 1,10,-1
 773 137 l 1,11,12
 708 59 708 59 624 19 c 128,-1,13
 540 -21 540 -21 437 -21 c 0,14,15
 246 -21 246 -21 152 124 c 128,-1,16
 58 269 58 269 93 500 c 2,17,-1
 96 521 l 2,0,1
290 500 m 2,18,19
 264 331 264 331 316.5 235 c 128,-1,20
 369 139 369 139 511 139 c 0,21,22
 596 139 596 139 663 180 c 128,-1,23
 730 221 730 221 780 294 c 1,24,-1
 855 795 l 1,25,26
 827 863 827 863 772.5 902.5 c 128,-1,27
 718 942 718 942 633 942 c 0,28,29
 497 942 497 942 408.5 823.5 c 128,-1,30
 320 705 320 705 293 521 c 2,31,-1
 290 500 l 2,18,19
EndSplineSet
Validated: 33
Substitution2: "'smcp' Lowercase to Small Capitals lookup 0 subtable" D.smcp
EndChar

StartChar: e
Encoding: 101 101 72
Width: 1072
GlyphClass: 1
Flags: W
LayerCount: 2
Fore
SplineSet
508 -21 m 0,0,1
 284 -21 284 -21 171.5 130 c 128,-1,2
 59 281 59 281 95 520 c 2,3,-1
 102 564 l 2,4,5
 137 806 137 806 292.5 954 c 128,-1,6
 448 1102 448 1102 645 1102 c 0,7,8
 854 1102 854 1102 946 965 c 128,-1,9
 1038 828 1038 828 1005 608 c 2,10,-1
 990 504 l 1,11,-1
 290 504 l 1,12,13
 267 332 267 332 324 232.5 c 128,-1,14
 381 133 381 133 531 133 c 0,15,16
 627 133 627 133 709.5 162 c 128,-1,17
 792 191 792 191 852 240 c 1,18,-1
 910 112 l 1,19,20
 844 56 844 56 743 17.5 c 128,-1,21
 642 -21 642 -21 508 -21 c 0,0,1
622 947 m 0,22,23
 523 947 523 947 442.5 867 c 128,-1,24
 362 787 362 787 327 665 c 1,25,-1
 329 659 l 1,26,-1
 816 659 l 1,27,-1
 818 675 l 2,28,29
 836 796 836 796 790 871.5 c 128,-1,30
 744 947 744 947 622 947 c 0,22,23
EndSplineSet
Validated: 33
Substitution2: "'smcp' Lowercase to Small Capitals lookup 0 subtable" E.smcp
EndChar

StartChar: f
Encoding: 102 102 73
Width: 674
GlyphClass: 1
Flags: W
LayerCount: 2
Fore
SplineSet
145 0 m 1,0,-1
 285 936 l 1,1,-1
 116 936 l 1,2,-1
 138 1082 l 1,3,-1
 307 1082 l 1,4,-1
 328 1219 l 2,5,6
 355 1399 355 1399 458 1490 c 128,-1,7
 561 1581 561 1581 725 1581 c 0,8,9
 758 1581 758 1581 793 1575 c 128,-1,10
 828 1569 828 1569 867 1560 c 1,11,-1
 821 1410 l 1,12,13
 803 1414 803 1414 777.5 1417 c 128,-1,14
 752 1420 752 1420 725 1420 c 0,15,16
 642 1420 642 1420 590.5 1367.5 c 128,-1,17
 539 1315 539 1315 525 1219 c 2,18,-1
 504 1082 l 1,19,-1
 700 1082 l 1,20,-1
 678 936 l 1,21,-1
 482 936 l 1,22,-1
 342 0 l 1,23,-1
 145 0 l 1,0,-1
EndSplineSet
Validated: 1
Substitution2: "'smcp' Lowercase to Small Capitals lookup 0 subtable" F.smcp
EndChar

StartChar: g
Encoding: 103 103 74
Width: 1164
GlyphClass: 1
Flags: W
LayerCount: 2
Fore
SplineSet
106 521 m 2,0,1
 146 792 146 792 280 947 c 128,-1,2
 414 1102 414 1102 616 1102 c 0,3,4
 717 1102 717 1102 789 1059 c 128,-1,5
 861 1016 861 1016 903 935 c 1,6,-1
 949 1082 l 1,7,-1
 1106 1082 l 1,8,-1
 943 -6 l 2,9,10
 910 -222 910 -222 774.5 -329.5 c 128,-1,11
 639 -437 639 -437 408 -437 c 0,12,13
 333 -437 333 -437 244 -415 c 128,-1,14
 155 -393 155 -393 92 -357 c 1,15,-1
 145 -204 l 1,16,17
 198 -234 198 -234 275.5 -252.5 c 128,-1,18
 353 -271 353 -271 431 -271 c 0,19,20
 569 -271 569 -271 647.5 -204.5 c 128,-1,21
 726 -138 726 -138 746 -6 c 2,22,-1
 764 117 l 1,23,24
 701 49 701 49 621.5 14 c 128,-1,25
 542 -21 542 -21 446 -21 c 0,26,27
 256 -21 256 -21 162 124 c 128,-1,28
 68 269 68 269 103 500 c 2,29,-1
 106 521 l 2,0,1
300 500 m 2,30,31
 274 331 274 331 326.5 235 c 128,-1,32
 379 139 379 139 520 139 c 0,33,34
 606 139 606 139 673 180.5 c 128,-1,35
 740 222 740 222 791 297 c 1,36,-1
 866 792 l 1,37,38
 837 861 837 861 782.5 901.5 c 128,-1,39
 728 942 728 942 642 942 c 0,40,41
 507 942 507 942 418.5 823 c 128,-1,42
 330 704 330 704 303 521 c 2,43,-1
 300 500 l 2,30,31
EndSplineSet
Validated: 33
Substitution2: "'smcp' Lowercase to Small Capitals lookup 0 subtable" G.smcp
EndChar

StartChar: h
Encoding: 104 104 75
Width: 1164
GlyphClass: 1
Flags: W
LayerCount: 2
Fore
SplineSet
401 943 m 1,0,1
 469 1019 469 1019 556 1060.5 c 128,-1,2
 643 1102 643 1102 743 1102 c 0,3,4
 910 1102 910 1102 993.5 997 c 128,-1,5
 1077 892 1077 892 1046 678 c 2,6,-1
 944 0 l 1,7,-1
 747 0 l 1,8,-1
 849 680 l 2,9,10
 870 818 870 818 822 880 c 128,-1,11
 774 942 774 942 659 942 c 0,12,13
 574 942 574 942 502.5 906 c 128,-1,14
 431 870 431 870 381 806 c 1,15,-1
 260 0 l 1,16,-1
 63 0 l 1,17,-1
 297 1560 l 1,18,-1
 494 1560 l 1,19,-1
 401 943 l 1,0,1
EndSplineSet
Validated: 33
Substitution2: "'smcp' Lowercase to Small Capitals lookup 0 subtable" H.smcp
EndChar

StartChar: i
Encoding: 105 105 76
Width: 516
GlyphClass: 1
Flags: W
LayerCount: 2
Fore
SplineSet
276 0 m 1,0,-1
 79 0 l 1,1,-1
 241 1082 l 1,2,-1
 438 1082 l 1,3,-1
 276 0 l 1,0,-1
480 1359 m 1,4,-1
 283 1359 l 1,5,-1
 313 1560 l 1,6,-1
 510 1560 l 1,7,-1
 480 1359 l 1,4,-1
EndSplineSet
Validated: 1
Substitution2: "'smcp' Lowercase to Small Capitals lookup 0 subtable" I.smcp
EndChar

StartChar: j
Encoding: 106 106 77
Width: 530
GlyphClass: 1
Flags: W
LayerCount: 2
Fore
SplineSet
452 1082 m 1,0,-1
 277 -89 l 2,1,2
 250 -262 250 -262 152 -349.5 c 128,-1,3
 54 -437 54 -437 -101 -437 c 0,4,5
 -130 -437 -130 -437 -156 -432.5 c 128,-1,6
 -182 -428 -182 -428 -209 -419 c 1,7,-1
 -172 -264 l 1,8,9
 -159 -269 -159 -269 -132.5 -272.5 c 128,-1,10
 -106 -276 -106 -276 -90 -276 c 0,11,12
 -26 -276 -26 -276 19.5 -231.5 c 128,-1,13
 65 -187 65 -187 80 -89 c 2,14,-1
 255 1082 l 1,15,-1
 452 1082 l 1,0,-1
488 1363 m 1,16,-1
 291 1363 l 1,17,-1
 321 1560 l 1,18,-1
 518 1560 l 1,19,-1
 488 1363 l 1,16,-1
EndSplineSet
Validated: 1
Substitution2: "'smcp' Lowercase to Small Capitals lookup 0 subtable" J.smcp
EndChar

StartChar: k
Encoding: 107 107 78
Width: 1050
GlyphClass: 1
Flags: W
LayerCount: 2
Fore
SplineSet
438 499 m 1,0,-1
 336 499 l 1,1,-1
 261 0 l 1,2,-1
 64 0 l 1,3,-1
 298 1560 l 1,4,-1
 495 1560 l 1,5,-1
 359 656 l 1,6,-1
 458 656 l 1,7,-1
 847 1082 l 1,8,-1
 1075 1082 l 1,9,-1
 1078 1076 l 1,10,-1
 616 583 l 1,11,-1
 955 0 l 1,12,-1
 722 0 l 1,13,-1
 438 499 l 1,0,-1
EndSplineSet
Validated: 1
Substitution2: "'smcp' Lowercase to Small Capitals lookup 0 subtable" K.smcp
EndChar

StartChar: l
Encoding: 108 108 79
Width: 516
GlyphClass: 1
Flags: W
LayerCount: 2
Fore
SplineSet
276 0 m 1,0,-1
 79 0 l 1,1,-1
 313 1560 l 1,2,-1
 510 1560 l 1,3,-1
 276 0 l 1,0,-1
EndSplineSet
Validated: 1
Substitution2: "'smcp' Lowercase to Small Capitals lookup 0 subtable" L.smcp
EndChar

StartChar: m
Encoding: 109 109 80
Width: 1790
GlyphClass: 1
Flags: W
LayerCount: 2
Fore
SplineSet
394 945 m 1,0,1
 458 1021 458 1021 545 1061.5 c 128,-1,2
 632 1102 632 1102 742 1102 c 0,3,4
 845 1102 845 1102 916 1052 c 128,-1,5
 987 1002 987 1002 1012 903 c 1,6,7
 1076 996 1076 996 1168.5 1049 c 128,-1,8
 1261 1102 1261 1102 1375 1102 c 0,9,10
 1534 1102 1534 1102 1615.5 987.5 c 128,-1,11
 1697 873 1697 873 1664 647 c 2,12,-1
 1567 0 l 1,13,-1
 1370 0 l 1,14,-1
 1467 649 l 2,15,16
 1492 815 1492 815 1447.5 878.5 c 128,-1,17
 1403 942 1403 942 1292 942 c 0,18,19
 1195 942 1195 942 1120.5 871 c 128,-1,20
 1046 800 1046 800 1018 694 c 0,21,22
 1017 692 1017 692 1017 690.5 c 128,-1,23
 1017 689 1017 689 1017 687 c 2,24,-1
 914 0 l 1,25,-1
 716 0 l 1,26,-1
 813 649 l 2,27,28
 837 807 837 807 791.5 874.5 c 128,-1,29
 746 942 746 942 638 942 c 0,30,31
 550 942 550 942 485.5 902.5 c 128,-1,32
 421 863 421 863 379 793 c 1,33,-1
 260 0 l 1,34,-1
 63 0 l 1,35,-1
 225 1082 l 1,36,-1
 401 1082 l 1,37,-1
 394 945 l 1,0,1
EndSplineSet
Validated: 33
Substitution2: "'smcp' Lowercase to Small Capitals lookup 0 subtable" M.smcp
EndChar

StartChar: n
Encoding: 110 110 81
Width: 1164
GlyphClass: 1
Flags: W
LayerCount: 2
Fore
SplineSet
392 927 m 1,0,1
 458 1011 458 1011 546.5 1056.5 c 128,-1,2
 635 1102 635 1102 739 1102 c 0,3,4
 908 1102 908 1102 991.5 998.5 c 128,-1,5
 1075 895 1075 895 1043 683 c 2,6,-1
 941 0 l 1,7,-1
 744 0 l 1,8,-1
 846 679 l 2,9,10
 868 827 868 827 821 884.5 c 128,-1,11
 774 942 774 942 656 942 c 0,12,13
 568 942 568 942 498 903.5 c 128,-1,14
 428 865 428 865 380 797 c 1,15,-1
 260 0 l 1,16,-1
 63 0 l 1,17,-1
 225 1082 l 1,18,-1
 401 1082 l 1,19,-1
 392 927 l 1,0,1
EndSplineSet
Validated: 33
Substitution2: "'smcp' Lowercase to Small Capitals lookup 0 subtable" N.smcp
EndChar

StartChar: o
Encoding: 111 111 82
Width: 1164
GlyphClass: 1
Flags: W
LayerCount: 2
Fore
SplineSet
100 551 m 1,0,1
 137 800 137 800 288.5 951 c 128,-1,2
 440 1102 440 1102 665 1102 c 0,3,4
 881 1102 881 1102 992.5 945.5 c 128,-1,5
 1104 789 1104 789 1069 551 c 1,6,-1
 1065 529 l 1,7,8
 1027 278 1027 278 876 128.5 c 128,-1,9
 725 -21 725 -21 499 -21 c 0,10,11
 283 -21 283 -21 171.5 135 c 128,-1,12
 60 291 60 291 96 529 c 1,13,-1
 100 551 l 1,0,1
293 529 m 1,14,15
 266 351 266 351 322 242 c 128,-1,16
 378 133 378 133 522 133 c 0,17,18
 657 133 657 133 749.5 246.5 c 128,-1,19
 842 360 842 360 868 529 c 1,20,-1
 872 551 l 1,21,22
 898 727 898 727 841.5 837 c 128,-1,23
 785 947 785 947 642 947 c 0,24,25
 506 947 506 947 413.5 832.5 c 128,-1,26
 321 718 321 718 297 551 c 1,27,-1
 293 529 l 1,14,15
EndSplineSet
Validated: 33
Substitution2: "'smcp' Lowercase to Small Capitals lookup 0 subtable" O.smcp
EndChar

StartChar: p
Encoding: 112 112 83
Width: 1164
GlyphClass: 1
Flags: W
LayerCount: 2
Fore
SplineSet
1060 500 m 2,0,1
 1023 257 1023 257 891.5 118 c 128,-1,2
 760 -21 760 -21 561 -21 c 0,3,4
 464 -21 464 -21 393 14.5 c 128,-1,5
 322 50 322 50 278 119 c 1,6,-1
 198 -416 l 1,7,-1
 1 -416 l 1,8,-1
 225 1082 l 1,9,-1
 376 1082 l 1,10,-1
 386 942 l 1,11,12
 451 1020 451 1020 536 1061 c 128,-1,13
 621 1102 621 1102 726 1102 c 0,14,15
 919 1102 919 1102 1010 940.5 c 128,-1,16
 1101 779 1101 779 1063 521 c 2,17,-1
 1060 500 l 2,0,1
866 521 m 2,18,19
 895 712 895 712 840 827 c 128,-1,20
 785 942 785 942 643 942 c 0,21,22
 561 942 561 942 494.5 902.5 c 128,-1,23
 428 863 428 863 379 795 c 1,24,-1
 301 275 l 1,25,26
 329 208 329 208 383 170.5 c 128,-1,27
 437 133 437 133 524 133 c 0,28,29
 658 133 658 133 748.5 236.5 c 128,-1,30
 839 340 839 340 863 500 c 2,31,-1
 866 521 l 2,18,19
EndSplineSet
Validated: 33
Substitution2: "'smcp' Lowercase to Small Capitals lookup 0 subtable" P.smcp
EndChar

StartChar: q
Encoding: 113 113 84
Width: 1164
GlyphClass: 1
Flags: W
LayerCount: 2
Fore
SplineSet
96 521 m 2,0,1
 136 792 136 792 270 947 c 128,-1,2
 404 1102 404 1102 607 1102 c 0,3,4
 703 1102 703 1102 772.5 1063 c 128,-1,5
 842 1024 842 1024 884 950 c 1,6,-1
 933 1082 l 1,7,-1
 1084 1082 l 1,8,-1
 860 -416 l 1,9,-1
 663 -416 l 1,10,-1
 740 102 l 1,11,12
 680 41 680 41 604 10 c 128,-1,13
 528 -21 528 -21 437 -21 c 0,14,15
 246 -21 246 -21 152 124 c 128,-1,16
 58 269 58 269 93 500 c 2,17,-1
 96 521 l 2,0,1
290 500 m 2,18,19
 264 330 264 330 316 231.5 c 128,-1,20
 368 133 368 133 510 133 c 0,21,22
 588 133 588 133 652 170 c 128,-1,23
 716 207 716 207 766 274 c 1,24,-1
 847 816 l 1,25,26
 818 877 818 877 765 912 c 128,-1,27
 712 947 712 947 634 947 c 0,28,29
 498 947 498 947 409 826 c 128,-1,30
 320 705 320 705 293 521 c 2,31,-1
 290 500 l 2,18,19
EndSplineSet
Validated: 33
Substitution2: "'smcp' Lowercase to Small Capitals lookup 0 subtable" Q.smcp
EndChar

StartChar: r
Encoding: 114 114 85
Width: 717
GlyphClass: 1
Flags: W
LayerCount: 2
Fore
SplineSet
711 908 m 1,0,-1
 611 914 l 1,1,2
 534 914 534 914 475 875.5 c 128,-1,3
 416 837 416 837 375 767 c 1,4,-1
 260 0 l 1,5,-1
 63 0 l 1,6,-1
 225 1082 l 1,7,-1
 401 1082 l 1,8,-1
 397 929 l 1,9,10
 455 1011 455 1011 529 1056.5 c 128,-1,11
 603 1102 603 1102 692 1102 c 0,12,13
 713 1102 713 1102 733.5 1098.5 c 128,-1,14
 754 1095 754 1095 766 1091 c 1,15,-1
 711 908 l 1,0,-1
EndSplineSet
Validated: 1
Substitution2: "'smcp' Lowercase to Small Capitals lookup 0 subtable" R.smcp
EndChar

StartChar: s
Encoding: 115 115 86
Width: 1071
GlyphClass: 1
Flags: W
LayerCount: 2
Fore
SplineSet
738 291 m 0,0,1
 747 358 747 358 704 398 c 128,-1,2
 661 438 661 438 526 469 c 0,3,4
 340 510 340 510 247.5 584 c 128,-1,5
 155 658 155 658 173 782 c 0,6,7
 192 920 192 920 316.5 1011 c 128,-1,8
 441 1102 441 1102 622 1102 c 0,9,10
 798 1102 798 1102 902 1001 c 128,-1,11
 1006 900 1006 900 983 769 c 1,12,-1
 981 763 l 1,13,-1
 792 763 l 1,14,15
 802 835 802 835 749 891 c 128,-1,16
 696 947 696 947 601 947 c 0,17,18
 501 947 501 947 440.5 899.5 c 128,-1,19
 380 852 380 852 371 788 c 0,20,21
 362 722 362 722 401 688 c 128,-1,22
 440 654 440 654 577 625 c 0,23,24
 770 583 770 583 862 506 c 128,-1,25
 954 429 954 429 937 305 c 0,26,27
 916 156 916 156 788 67.5 c 128,-1,28
 660 -21 660 -21 470 -21 c 0,29,30
 272 -21 272 -21 163.5 85 c 128,-1,31
 55 191 55 191 80 329 c 1,32,-1
 82 335 l 1,33,-1
 271 335 l 1,34,35
 262 230 262 230 328 181.5 c 128,-1,36
 394 133 394 133 492 133 c 0,37,38
 593 133 593 133 660 178 c 128,-1,39
 727 223 727 223 738 291 c 0,0,1
EndSplineSet
Validated: 33
Substitution2: "'smcp' Lowercase to Small Capitals lookup 0 subtable" S.smcp
EndChar

StartChar: t
Encoding: 116 116 87
Width: 690
GlyphClass: 1
Flags: W
LayerCount: 2
Fore
SplineSet
538 1343 m 1,0,-1
 499 1082 l 1,1,-1
 704 1082 l 1,2,-1
 682 936 l 1,3,-1
 477 936 l 1,4,-1
 379 279 l 2,5,6
 367 200 367 200 393.5 170.5 c 128,-1,7
 420 141 420 141 473 141 c 0,8,9
 489 141 489 141 511.5 145.5 c 128,-1,10
 534 150 534 150 548 155 c 1,11,-1
 555 20 l 1,12,13
 530 2 530 2 485.5 -9.5 c 128,-1,14
 441 -21 441 -21 399 -21 c 0,15,16
 283 -21 283 -21 220.5 52 c 128,-1,17
 158 125 158 125 182 279 c 2,18,-1
 280 936 l 1,19,-1
 108 936 l 1,20,-1
 130 1082 l 1,21,-1
 302 1082 l 1,22,-1
 341 1343 l 1,23,-1
 538 1343 l 1,0,-1
EndSplineSet
Validated: 33
Substitution2: "'smcp' Lowercase to Small Capitals lookup 0 subtable" T.smcp
EndChar

StartChar: u
Encoding: 117 117 88
Width: 1164
GlyphClass: 1
Flags: W
LayerCount: 2
Fore
SplineSet
763 0 m 1,0,-1
 774 155 l 1,1,2
 710 69 710 69 623.5 24 c 128,-1,3
 537 -21 537 -21 431 -21 c 0,4,5
 260 -21 260 -21 175 93.5 c 128,-1,6
 90 208 90 208 126 444 c 2,7,-1
 221 1082 l 1,8,-1
 418 1082 l 1,9,-1
 322 442 l 2,10,11
 295 263 295 263 336 201 c 128,-1,12
 377 139 377 139 487 139 c 0,13,14
 590 139 590 139 666 183.5 c 128,-1,15
 742 228 742 228 790 309 c 1,16,-1
 905 1082 l 1,17,-1
 1102 1082 l 1,18,-1
 940 0 l 1,19,-1
 763 0 l 1,0,-1
EndSplineSet
Validated: 33
Substitution2: "'smcp' Lowercase to Small Capitals lookup 0 subtable" U.smcp
EndChar

StartChar: v
Encoding: 118 118 89
Width: 1030
GlyphClass: 1
Flags: W
LayerCount: 2
Fore
SplineSet
472 319 m 1,0,-1
 478 243 l 1,1,-1
 484 242 l 1,2,-1
 514 319 l 1,3,-1
 877 1082 l 1,4,-1
 1078 1082 l 1,5,-1
 518 0 l 1,6,-1
 369 0 l 1,7,-1
 128 1082 l 1,8,-1
 330 1082 l 1,9,-1
 472 319 l 1,0,-1
EndSplineSet
Validated: 1
Substitution2: "'smcp' Lowercase to Small Capitals lookup 0 subtable" V.smcp
EndChar

StartChar: w
Encoding: 119 119 90
Width: 1550
GlyphClass: 1
Flags: W
LayerCount: 2
Fore
SplineSet
399 394 m 1,0,-1
 403 256 l 1,1,-1
 408 255 l 1,2,-1
 456 394 l 1,3,-1
 775 1082 l 1,4,-1
 933 1082 l 1,5,-1
 1047 394 l 1,6,-1
 1052 239 l 1,7,-1
 1058 238 l 1,8,-1
 1113 394 l 1,9,-1
 1376 1082 l 1,10,-1
 1582 1082 l 1,11,-1
 1106 0 l 1,12,-1
 947 0 l 1,13,-1
 832 659 l 1,14,-1
 817 830 l 1,15,-1
 811 831 l 1,16,-1
 747 659 l 1,17,-1
 438 0 l 1,18,-1
 279 0 l 1,19,-1
 127 1082 l 1,20,-1
 332 1082 l 1,21,-1
 399 394 l 1,0,-1
EndSplineSet
Validated: 1
Substitution2: "'smcp' Lowercase to Small Capitals lookup 0 subtable" W.smcp
EndChar

StartChar: x
Encoding: 120 120 91
Width: 1030
GlyphClass: 1
Flags: W
LayerCount: 2
Fore
SplineSet
532 683 m 1,0,-1
 822 1082 l 1,1,-1
 1045 1082 l 1,2,-1
 1048 1077 l 1,3,-1
 621 547 l 1,4,-1
 900 0 l 1,5,-1
 674 0 l 1,6,-1
 495 409 l 1,7,-1
 194 0 l 1,8,-1
 -27 0 l 1,9,-1
 -30 5 l 1,10,-1
 409 547 l 1,11,-1
 138 1082 l 1,12,-1
 365 1082 l 1,13,-1
 532 683 l 1,0,-1
EndSplineSet
Validated: 1
Substitution2: "'smcp' Lowercase to Small Capitals lookup 0 subtable" X.smcp
EndChar

StartChar: y
Encoding: 121 121 92
Width: 1030
GlyphClass: 1
Flags: W
LayerCount: 2
Fore
SplineSet
454 401 m 1,0,-1
 469 265 l 1,1,-1
 475 264 l 1,2,-1
 863 1082 l 1,3,-1
 1082 1082 l 1,4,-1
 440 -166 l 2,5,6
 382 -275 382 -275 293.5 -356 c 128,-1,7
 205 -437 205 -437 75 -437 c 0,8,9
 52 -437 52 -437 16 -431.5 c 128,-1,10
 -20 -426 -20 -426 -40 -421 c 1,11,-1
 3 -266 l 2,12,13
 0 -265 0 -265 39.5 -268 c 128,-1,14
 79 -271 79 -271 90 -271 c 0,15,16
 150 -271 150 -271 201.5 -212.5 c 128,-1,17
 253 -154 253 -154 287 -91 c 2,18,-1
 352 22 l 1,19,-1
 108 1082 l 1,20,-1
 328 1082 l 1,21,-1
 454 401 l 1,0,-1
EndSplineSet
Validated: 1
Substitution2: "'smcp' Lowercase to Small Capitals lookup 0 subtable" Y.smcp
EndChar

StartChar: z
Encoding: 122 122 93
Width: 1030
GlyphClass: 1
Flags: W
LayerCount: 2
Fore
SplineSet
277 159 m 1,0,-1
 279 154 l 1,1,-1
 897 154 l 1,2,-1
 874 0 l 1,3,-1
 14 0 l 1,4,-1
 35 138 l 1,5,-1
 733 921 l 1,6,-1
 731 926 l 1,7,-1
 160 926 l 1,8,-1
 183 1082 l 1,9,-1
 1002 1082 l 1,10,-1
 982 948 l 1,11,-1
 277 159 l 1,0,-1
EndSplineSet
Validated: 1
Substitution2: "'smcp' Lowercase to Small Capitals lookup 0 subtable" Z.smcp
EndChar

StartChar: braceleft
Encoding: 123 123 94
Width: 696
GlyphClass: 1
Flags: W
LayerCount: 2
Fore
SplineSet
505 -364 m 1,0,1
 318 -309 318 -309 252.5 -189 c 128,-1,2
 187 -69 187 -69 211 101 c 2,3,-1
 240 306 l 2,4,5
 256 422 256 422 213.5 482.5 c 128,-1,6
 171 543 171 543 64 543 c 1,7,-1
 67 566 l 1,8,-1
 81 667 l 1,9,-1
 85 690 l 1,10,11
 187 690 187 690 248.5 752.5 c 128,-1,12
 310 815 310 815 327 926 c 2,13,-1
 355 1132 l 2,14,15
 379 1309 379 1309 477.5 1425.5 c 128,-1,16
 576 1542 576 1542 780 1597 c 1,17,-1
 803 1480 l 1,18,19
 688 1445 688 1445 629 1355 c 128,-1,20
 570 1265 570 1265 552 1132 c 2,21,-1
 524 926 l 2,22,23
 508 817 508 817 454.5 736.5 c 128,-1,24
 401 656 401 656 309 613 c 1,25,26
 386 566 386 566 418 486 c 128,-1,27
 450 406 450 406 437 306 c 2,28,-1
 408 101 l 2,29,30
 388 -35 388 -35 422 -122.5 c 128,-1,31
 456 -210 456 -210 562 -246 c 1,32,-1
 505 -364 l 1,0,1
EndSplineSet
Validated: 33
EndChar

StartChar: bar
Encoding: 124 124 95
Width: 507
GlyphClass: 1
Flags: W
LayerCount: 2
Fore
SplineSet
222 -270 m 1,0,-1
 25 -270 l 1,1,-1
 283 1456 l 1,2,-1
 480 1456 l 1,3,-1
 222 -270 l 1,0,-1
EndSplineSet
Validated: 1
EndChar

StartChar: braceright
Encoding: 125 125 96
Width: 696
GlyphClass: 1
Flags: W
LayerCount: 2
Fore
SplineSet
-88 -246 m 1,0,1
 26 -210 26 -210 85 -120.5 c 128,-1,2
 144 -31 144 -31 163 101 c 2,3,-1
 192 306 l 2,4,5
 207 418 207 418 263.5 497.5 c 128,-1,6
 320 577 320 577 420 618 c 1,7,8
 334 661 334 661 298.5 741 c 128,-1,9
 263 821 263 821 279 926 c 2,10,-1
 307 1132 l 2,11,12
 326 1268 326 1268 292 1356.5 c 128,-1,13
 258 1445 258 1445 153 1480 c 1,14,-1
 211 1597 l 1,15,16
 397 1542 397 1542 462.5 1422.5 c 128,-1,17
 528 1303 528 1303 504 1132 c 2,18,-1
 476 926 l 2,19,20
 459 809 459 809 501 749.5 c 128,-1,21
 543 690 543 690 652 690 c 1,22,-1
 636 575 l 1,23,-1
 635 575 l 1,24,-1
 631 543 l 1,25,26
 527 543 527 543 465.5 479.5 c 128,-1,27
 404 416 404 416 389 306 c 2,28,-1
 360 101 l 2,29,30
 334 -75 334 -75 236.5 -192 c 128,-1,31
 139 -309 139 -309 -64 -364 c 1,32,-1
 -88 -246 l 1,0,1
EndSplineSet
Validated: 33
EndChar

StartChar: asciitilde
Encoding: 126 126 97
Width: 1391
GlyphClass: 1
Flags: W
LayerCount: 2
Fore
SplineSet
1286 741 m 1,0,-1
 1288 735 l 1,1,2
 1271 596 1271 596 1172 498.5 c 128,-1,3
 1073 401 1073 401 941 401 c 0,4,5
 855 401 855 401 784 434.5 c 128,-1,6
 713 468 713 468 639 541 c 0,7,8
 586 589 586 589 540.5 613 c 128,-1,9
 495 637 495 637 445 637 c 0,10,11
 380 637 380 637 324 583.5 c 128,-1,12
 268 530 268 530 258 456 c 1,13,-1
 126 473 l 1,14,-1
 124 479 l 1,15,16
 140 616 140 616 237.5 709.5 c 128,-1,17
 335 803 335 803 468 803 c 0,18,19
 552 803 552 803 625 767.5 c 128,-1,20
 698 732 698 732 772 664 c 0,21,22
 824 613 824 613 868.5 590 c 128,-1,23
 913 567 913 567 964 567 c 0,24,25
 1028 567 1028 567 1085.5 624 c 128,-1,26
 1143 681 1143 681 1154 758 c 1,27,-1
 1286 741 l 1,0,-1
EndSplineSet
Validated: 1
EndChar

StartChar: exclamdown
Encoding: 161 161 99
Width: 507
GlyphClass: 1
Flags: W
LayerCount: 2
Fore
SplineSet
205 -374 m 1,0,-1
 8 -374 l 1,1,-1
 155 604 l 1,2,-1
 352 604 l 1,3,-1
 205 -374 l 1,0,-1
392 876 m 1,4,-1
 195 876 l 1,5,-1
 226 1082 l 1,6,-1
 423 1082 l 1,7,-1
 392 876 l 1,4,-1
EndSplineSet
Validated: 1
EndChar

StartChar: cent
Encoding: 162 162 100
Width: 1122
GlyphClass: 1
Flags: W
LayerCount: 2
Fore
SplineSet
513 133 m 0,0,1
 600 133 600 133 678.5 194 c 128,-1,2
 757 255 757 255 771 342 c 1,3,-1
 950 342 l 1,4,-1
 952 336 l 1,5,6
 938 215 938 215 835 118.5 c 128,-1,7
 732 22 732 22 595 -9 c 1,8,-1
 559 -245 l 1,9,-1
 361 -245 l 1,10,-1
 396 -12 l 1,11,12
 224 22 224 22 144 171 c 128,-1,13
 64 320 64 320 95 520 c 2,14,-1
 101 562 l 2,15,16
 132 772 132 772 252 917 c 128,-1,17
 372 1062 372 1062 562 1094 c 1,18,-1
 596 1318 l 1,19,-1
 794 1318 l 1,20,-1
 759 1090 l 1,21,22
 891 1058 891 1058 962.5 953 c 128,-1,23
 1034 848 1034 848 1013 709 c 1,24,-1
 826 709 l 1,25,26
 841 812 841 812 788 879.5 c 128,-1,27
 735 947 735 947 635 947 c 0,28,29
 496 947 496 947 409 832.5 c 128,-1,30
 322 718 322 718 299 562 c 2,31,-1
 293 520 l 2,32,33
 267 352 267 352 316 242.5 c 128,-1,34
 365 133 365 133 513 133 c 0,0,1
EndSplineSet
Validated: 33
EndChar

StartChar: sterling
Encoding: 163 163 101
Width: 1194
GlyphClass: 1
Flags: W
LayerCount: 2
Fore
SplineSet
443 615 m 1,0,-1
 426 466 l 1,1,2
 411 373 411 373 384 292.5 c 128,-1,3
 357 212 357 212 320 154 c 1,4,-1
 1054 154 l 1,5,-1
 1030 0 l 1,6,-1
 54 0 l 1,7,-1
 77 154 l 1,8,-1
 87 154 l 1,9,10
 137 167 137 167 176 265 c 128,-1,11
 215 363 215 363 230 466 c 2,12,-1
 246 615 l 1,13,-1
 82 615 l 1,14,-1
 106 770 l 1,15,-1
 264 770 l 1,16,-1
 294 1040 l 1,17,18
 326 1252 326 1252 454 1364.5 c 128,-1,19
 582 1477 582 1477 772 1477 c 0,20,21
 964 1477 964 1477 1062 1371.5 c 128,-1,22
 1160 1266 1160 1266 1131 1096 c 1,23,-1
 1128 1090 l 1,24,-1
 938 1090 l 1,25,26
 956 1213 956 1213 902 1267.5 c 128,-1,27
 848 1322 848 1322 748 1322 c 0,28,29
 652 1322 652 1322 581 1247 c 128,-1,30
 510 1172 510 1172 491 1040 c 2,31,-1
 460 770 l 1,32,-1
 879 770 l 1,33,-1
 855 615 l 1,34,-1
 443 615 l 1,0,-1
EndSplineSet
Validated: 33
EndChar

StartChar: currency
Encoding: 164 164 102
Width: 1456
GlyphClass: 1
Flags: W
LayerCount: 2
Fore
SplineSet
1036 105 m 1,0,1
 950 44 950 44 851.5 12 c 128,-1,2
 753 -20 753 -20 651 -20 c 0,3,4
 554 -20 554 -20 467 13.5 c 128,-1,5
 380 47 380 47 312 110 c 1,6,-1
 159 -26 l 1,7,-1
 41 112 l 1,8,-1
 202 254 l 1,9,10
 162 330 162 330 148.5 420 c 128,-1,11
 135 510 135 510 150 608 c 0,12,13
 165 713 165 713 207.5 807.5 c 128,-1,14
 250 902 250 902 314 979 c 1,15,-1
 193 1125 l 1,16,-1
 353 1264 l 1,17,-1
 471 1121 l 1,18,19
 553 1175 553 1175 647 1204.5 c 128,-1,20
 741 1234 741 1234 839 1234 c 0,21,22
 932 1234 932 1234 1016 1202 c 128,-1,23
 1100 1170 1100 1170 1168 1113 c 1,24,-1
 1340 1265 l 1,25,-1
 1459 1125 l 1,26,-1
 1283 969 l 1,27,28
 1324 891 1324 891 1339 799 c 128,-1,29
 1354 707 1354 707 1340 608 c 0,30,31
 1324 507 1324 507 1285.5 417 c 128,-1,32
 1247 327 1247 327 1189 253 c 1,33,-1
 1307 112 l 1,34,-1
 1146 -27 l 1,35,-1
 1036 105 l 1,0,1
332 608 m 0,36,37
 303 413 303 413 403 284 c 128,-1,38
 503 155 503 155 677 155 c 0,39,40
 841 155 841 155 984.5 288.5 c 128,-1,41
 1128 422 1128 422 1156 608 c 0,42,43
 1184 801 1184 801 1084.5 929.5 c 128,-1,44
 985 1058 985 1058 813 1058 c 0,45,46
 647 1058 647 1058 503.5 925 c 128,-1,47
 360 792 360 792 332 608 c 0,36,37
EndSplineSet
Validated: 33
EndChar

StartChar: yen
Encoding: 165 165 103
Width: 1243
GlyphClass: 1
Flags: W
LayerCount: 2
Fore
SplineSet
653 793 m 1,0,-1
 1113 1456 l 1,1,-1
 1337 1456 l 1,2,-1
 812 738 l 1,3,-1
 1124 738 l 1,4,-1
 1105 615 l 1,5,-1
 722 615 l 1,6,-1
 697 448 l 1,7,-1
 1080 448 l 1,8,-1
 1062 326 l 1,9,-1
 679 326 l 1,10,-1
 630 0 l 1,11,-1
 433 0 l 1,12,-1
 482 326 l 1,13,-1
 107 326 l 1,14,-1
 125 448 l 1,15,-1
 500 448 l 1,16,-1
 525 615 l 1,17,-1
 150 615 l 1,18,-1
 169 738 l 1,19,-1
 479 738 l 1,20,-1
 168 1456 l 1,21,-1
 394 1456 l 1,22,-1
 653 793 l 1,0,-1
EndSplineSet
Validated: 1
EndChar

StartChar: brokenbar
Encoding: 166 166 104
Width: 499
GlyphClass: 1
Flags: W
LayerCount: 2
Fore
SplineSet
25 -270 m 1,0,-1
 143 522 l 1,1,-1
 340 522 l 1,2,-1
 222 -270 l 1,3,-1
 25 -270 l 1,0,-1
367 698 m 1,4,-1
 170 698 l 1,5,-1
 283 1456 l 1,6,-1
 480 1456 l 1,7,-1
 367 698 l 1,4,-1
EndSplineSet
Validated: 1
EndChar

StartChar: section
Encoding: 167 167 105
Width: 1259
GlyphClass: 1
Flags: W
LayerCount: 2
Fore
SplineSet
1133 431 m 0,0,1
 1118 333 1118 333 1060.5 263.5 c 128,-1,2
 1003 194 1003 194 910 155 c 1,3,4
 971 105 971 105 994.5 37.5 c 128,-1,5
 1018 -30 1018 -30 1005 -128 c 0,6,7
 977 -307 977 -307 832 -401 c 128,-1,8
 687 -495 687 -495 459 -495 c 0,9,10
 245 -495 245 -495 106 -391.5 c 128,-1,11
 -33 -288 -33 -288 4 -70 c 1,12,-1
 6 -64 l 1,13,-1
 196 -62 l 1,14,15
 173 -211 173 -211 258.5 -275.5 c 128,-1,16
 344 -340 344 -340 482 -340 c 0,17,18
 613 -340 613 -340 703.5 -280 c 128,-1,19
 794 -220 794 -220 808 -130 c 0,20,21
 821 -36 821 -36 758 12.5 c 128,-1,22
 695 61 695 61 498 125 c 1,23,24
 268 188 268 188 169 281 c 128,-1,25
 70 374 70 374 97 551 c 0,26,27
 111 645 111 645 167.5 715 c 128,-1,28
 224 785 224 785 316 826 c 1,29,30
 257 876 257 876 234 945 c 128,-1,31
 211 1014 211 1014 226 1110 c 0,32,33
 251 1282 251 1282 398.5 1379.5 c 128,-1,34
 546 1477 546 1477 773 1477 c 0,35,36
 997 1477 997 1477 1114.5 1364.5 c 128,-1,37
 1232 1252 1232 1252 1197 1052 c 1,38,-1
 1195 1046 l 1,39,-1
 1006 1046 l 1,40,41
 1024 1169 1024 1169 957 1245.5 c 128,-1,42
 890 1322 890 1322 749 1322 c 0,43,44
 609 1322 609 1322 522.5 1261.5 c 128,-1,45
 436 1201 436 1201 423 1112 c 0,46,47
 407 1009 407 1009 465.5 962 c 128,-1,48
 524 915 524 915 729 856 c 0,49,50
 963 787 963 787 1061 696.5 c 128,-1,51
 1159 606 1159 606 1133 431 c 0,0,1
626 689 m 0,52,53
 582 700 582 700 543 713 c 128,-1,54
 504 726 504 726 469 740 c 1,55,56
 395 720 395 720 349 670.5 c 128,-1,57
 303 621 303 621 294 553 c 0,58,59
 278 449 278 449 337.5 400 c 128,-1,60
 397 351 397 351 601 291 c 0,61,62
 643 279 643 279 681 266 c 128,-1,63
 719 253 719 253 754 240 c 1,64,65
 829 261 829 261 877.5 311 c 128,-1,66
 926 361 926 361 936 428 c 0,67,68
 950 522 950 522 886 573.5 c 128,-1,69
 822 625 822 625 626 689 c 0,52,53
EndSplineSet
Validated: 33
EndChar

StartChar: dieresis
Encoding: 168 168 106
Width: 1021
GlyphClass: 1
Flags: W
LayerCount: 2
Fore
SplineSet
960 1256 m 1,0,-1
 741 1256 l 1,1,-1
 769 1456 l 1,2,-1
 988 1456 l 1,3,-1
 960 1256 l 1,0,-1
490 1256 m 1,4,-1
 271 1256 l 1,5,-1
 299 1456 l 1,6,-1
 518 1456 l 1,7,-1
 490 1256 l 1,4,-1
EndSplineSet
Validated: 1
EndChar

StartChar: copyright
Encoding: 169 169 107
Width: 1604
GlyphClass: 1
Flags: W
LayerCount: 2
Fore
SplineSet
1119 596 m 1,0,-1
 1121 590 l 1,1,2
 1102 434 1102 434 1003.5 358 c 128,-1,3
 905 282 905 282 746 282 c 0,4,5
 593 282 593 282 511.5 389.5 c 128,-1,6
 430 497 430 497 456 669 c 2,7,-1
 474 788 l 2,8,9
 500 967 500 967 609.5 1071 c 128,-1,10
 719 1175 719 1175 880 1175 c 0,11,12
 1032 1175 1032 1175 1111 1095 c 128,-1,13
 1190 1015 1190 1015 1164 867 c 1,14,-1
 1162 862 l 1,15,-1
 1015 862 l 1,16,17
 1030 961 1030 961 991.5 1002.5 c 128,-1,18
 953 1044 953 1044 861 1044 c 0,19,20
 771 1044 771 1044 707 973 c 128,-1,21
 643 902 643 902 626 789 c 2,22,-1
 608 669 l 2,23,24
 590 547 590 547 630.5 479.5 c 128,-1,25
 671 412 671 412 766 412 c 0,26,27
 854 412 854 412 906.5 455.5 c 128,-1,28
 959 499 959 499 974 596 c 1,29,-1
 1119 596 l 1,0,-1
238 729 m 0,30,31
 196 453 196 453 340 276.5 c 128,-1,32
 484 100 484 100 733 100 c 0,33,34
 968 100 968 100 1172 283 c 128,-1,35
 1376 466 1376 466 1416 729 c 0,36,37
 1457 1003 1457 1003 1313 1178.5 c 128,-1,38
 1169 1354 1169 1354 921 1354 c 0,39,40
 684 1354 684 1354 480.5 1172 c 128,-1,41
 277 990 277 990 238 729 c 0,30,31
117 729 m 0,42,43
 166 1056 166 1056 402.5 1266 c 128,-1,44
 639 1476 639 1476 939 1476 c 0,45,46
 1222 1476 1222 1476 1402.5 1258 c 128,-1,47
 1583 1040 1583 1040 1536 729 c 0,48,49
 1487 401 1487 401 1250 190 c 128,-1,50
 1013 -21 1013 -21 715 -21 c 0,51,52
 431 -21 431 -21 250.5 197.5 c 128,-1,53
 70 416 70 416 117 729 c 0,42,43
EndSplineSet
Validated: 33
EndChar

StartChar: ordfeminine
Encoding: 170 170 108
Width: 917
GlyphClass: 1
Flags: W
LayerCount: 2
Fore
SplineSet
639 706 m 1,0,1
 635 728 635 728 633 752.5 c 128,-1,2
 631 777 631 777 632 801 c 1,3,4
 592 754 592 754 531 723 c 128,-1,5
 470 692 470 692 393 692 c 0,6,7
 279 692 279 692 220.5 754 c 128,-1,8
 162 816 162 816 178 920 c 0,9,10
 195 1034 195 1034 287.5 1092 c 128,-1,11
 380 1150 380 1150 543 1150 c 2,12,-1
 681 1150 l 1,13,-1
 689 1202 l 2,14,15
 699 1267 699 1267 674.5 1300 c 128,-1,16
 650 1333 650 1333 591 1333 c 0,17,18
 527 1333 527 1333 485 1306 c 128,-1,19
 443 1279 443 1279 436 1230 c 1,20,-1
 277 1243 l 1,21,-1
 275 1249 l 1,22,23
 285 1351 285 1351 378 1414 c 128,-1,24
 471 1477 471 1477 613 1477 c 0,25,26
 742 1477 742 1477 811.5 1405 c 128,-1,27
 881 1333 881 1333 861 1201 c 2,28,-1
 814 887 l 2,29,30
 806 836 806 836 806 792.5 c 128,-1,31
 806 749 806 749 813 706 c 1,32,-1
 639 706 l 1,0,1
456 831 m 0,33,34
 505 831 505 831 564 861 c 128,-1,35
 623 891 623 891 647 926 c 1,36,-1
 664 1036 l 1,37,-1
 526 1036 l 2,38,39
 454 1036 454 1036 406 1003 c 128,-1,40
 358 970 358 970 352 924 c 0,41,42
 344 877 344 877 369.5 854 c 128,-1,43
 395 831 395 831 456 831 c 0,33,34
EndSplineSet
Validated: 33
EndChar

StartChar: logicalnot
Encoding: 172 172 110
Width: 1137
GlyphClass: 1
Flags: W
LayerCount: 2
Fore
SplineSet
991 726 m 1,0,-1
 989 717 l 1,1,-1
 978 637 l 1,2,-1
 977 637 l 1,3,-1
 938 375 l 1,4,-1
 740 375 l 1,5,-1
 779 637 l 1,6,-1
 143 637 l 1,7,-1
 167 802 l 1,8,-1
 1002 802 l 1,9,-1
 991 726 l 1,0,-1
EndSplineSet
Validated: 1
EndChar

StartChar: registered
Encoding: 174 174 112
Width: 1604
GlyphClass: 1
Flags: W
LayerCount: 2
Fore
SplineSet
117 729 m 0,0,1
 166 1056 166 1056 402.5 1266 c 128,-1,2
 639 1476 639 1476 939 1476 c 0,3,4
 1222 1476 1222 1476 1402.5 1258 c 128,-1,5
 1583 1040 1583 1040 1536 729 c 0,6,7
 1487 401 1487 401 1250 190 c 128,-1,8
 1013 -21 1013 -21 715 -21 c 0,9,10
 431 -21 431 -21 250.5 197.5 c 128,-1,11
 70 416 70 416 117 729 c 0,0,1
238 729 m 0,12,13
 196 453 196 453 340 276.5 c 128,-1,14
 484 100 484 100 733 100 c 0,15,16
 968 100 968 100 1171.5 283 c 128,-1,17
 1375 466 1375 466 1415 729 c 0,18,19
 1456 1003 1456 1003 1312.5 1178.5 c 128,-1,20
 1169 1354 1169 1354 921 1354 c 0,21,22
 684 1354 684 1354 480.5 1172 c 128,-1,23
 277 990 277 990 238 729 c 0,12,13
670 654 m 1,24,-1
 620 316 l 1,25,-1
 471 316 l 1,26,-1
 599 1166 l 1,27,-1
 879 1166 l 2,28,29
 1025 1166 1025 1166 1104 1100 c 128,-1,30
 1183 1034 1183 1034 1165 909 c 0,31,32
 1155 844 1155 844 1115 798 c 128,-1,33
 1075 752 1075 752 1007 721 c 1,34,35
 1067 694 1067 694 1089.5 640.5 c 128,-1,36
 1112 587 1112 587 1102 515 c 2,37,-1
 1094 459 l 2,38,39
 1087 416 1087 416 1086 384.5 c 128,-1,40
 1085 353 1085 353 1092 332 c 1,41,-1
 1089 316 l 1,42,-1
 936 316 l 1,43,44
 931 337 931 337 934.5 375 c 128,-1,45
 938 413 938 413 945 460 c 2,46,-1
 953 514 l 2,47,48
 964 589 964 589 936 621.5 c 128,-1,49
 908 654 908 654 830 654 c 2,50,-1
 670 654 l 1,24,-1
690 784 m 1,51,-1
 843 784 l 2,52,53
 908 785 908 785 958 816.5 c 128,-1,54
 1008 848 1008 848 1017 904 c 0,55,56
 1028 980 1028 980 993 1008 c 128,-1,57
 958 1036 958 1036 859 1036 c 2,58,-1
 728 1036 l 1,59,-1
 690 784 l 1,51,-1
EndSplineSet
Validated: 33
EndChar

StartChar: macron
Encoding: 175 175 113
AltUni2: 0002c9.ffffffff.0 0002c9.ffffffff.0
Width: 950
GlyphClass: 1
Flags: W
LayerCount: 2
Fore
SplineSet
952 1310 m 1,0,-1
 231 1310 l 1,1,-1
 252 1456 l 1,2,-1
 973 1456 l 1,3,-1
 952 1310 l 1,0,-1
EndSplineSet
Validated: 1
EndChar

StartChar: degree
Encoding: 176 176 114
Width: 763
GlyphClass: 1
Flags: W
LayerCount: 2
Fore
SplineSet
230 1216 m 0,0,1
 247 1326 247 1326 333.5 1401.5 c 128,-1,2
 420 1477 420 1477 527 1477 c 0,3,4
 626 1477 626 1477 690.5 1399 c 128,-1,5
 755 1321 755 1321 739 1216 c 0,6,7
 722 1104 722 1104 638 1031.5 c 128,-1,8
 554 959 554 959 449 959 c 0,9,10
 347 959 347 959 280.5 1034 c 128,-1,11
 214 1109 214 1109 230 1216 c 0,0,1
361 1216 m 0,12,13
 352 1159 352 1159 383.5 1124 c 128,-1,14
 415 1089 415 1089 468 1089 c 0,15,16
 518 1089 518 1089 559.5 1125.5 c 128,-1,17
 601 1162 601 1162 610 1216 c 0,18,19
 618 1273 618 1273 588.5 1309.5 c 128,-1,20
 559 1346 559 1346 507 1346 c 0,21,22
 456 1346 456 1346 412.5 1308 c 128,-1,23
 369 1270 369 1270 361 1216 c 0,12,13
EndSplineSet
Validated: 33
EndChar

StartChar: plusminus
Encoding: 177 177 115
Width: 1097
GlyphClass: 1
Flags: W
LayerCount: 2
Fore
SplineSet
701 856 m 1,0,-1
 1060 856 l 1,1,-1
 1038 702 l 1,2,-1
 680 702 l 1,3,-1
 622 289 l 1,4,-1
 445 289 l 1,5,-1
 503 702 l 1,6,-1
 122 702 l 1,7,-1
 144 856 l 1,8,-1
 524 856 l 1,9,-1
 582 1267 l 1,10,-1
 759 1267 l 1,11,-1
 701 856 l 1,0,-1
898 4 m 1,12,-1
 63 4 l 1,13,-1
 86 159 l 1,14,-1
 921 159 l 1,15,-1
 898 4 l 1,12,-1
EndSplineSet
Validated: 1
EndChar

StartChar: twosuperior
Encoding: 178 178 116
Width: 868
GlyphClass: 1
Flags: W
LayerCount: 2
Fore
SplineSet
734 667 m 1,0,-1
 142 667 l 1,1,-1
 162 797 l 1,2,-1
 503 1059 l 2,3,4
 581 1119 581 1119 608.5 1156.5 c 128,-1,5
 636 1194 636 1194 642 1236 c 0,6,7
 649 1287 649 1287 626 1317.5 c 128,-1,8
 603 1348 603 1348 544 1348 c 0,9,10
 480 1348 480 1348 437 1315.5 c 128,-1,11
 394 1283 394 1283 387 1234 c 1,12,-1
 227 1234 l 1,13,-1
 225 1240 l 1,14,15
 234 1343 234 1343 327.5 1411 c 128,-1,16
 421 1479 421 1479 564 1479 c 0,17,18
 694 1479 694 1479 762.5 1414 c 128,-1,19
 831 1349 831 1349 814 1235 c 0,20,21
 802 1152 802 1152 752 1100 c 128,-1,22
 702 1048 702 1048 565 938 c 2,23,-1
 391 803 l 1,24,-1
 393 797 l 1,25,-1
 754 797 l 1,26,-1
 734 667 l 1,0,-1
EndSplineSet
Validated: 33
EndChar

StartChar: threesuperior
Encoding: 179 179 117
Width: 876
GlyphClass: 1
Flags: W
LayerCount: 2
Fore
SplineSet
383 1137 m 1,0,-1
 515 1137 l 2,1,2
 579 1137 579 1137 617 1166 c 128,-1,3
 655 1195 655 1195 663 1246 c 0,4,5
 670 1291 670 1291 638 1319 c 128,-1,6
 606 1347 606 1347 536 1347 c 0,7,8
 483 1347 483 1347 443 1323 c 128,-1,9
 403 1299 403 1299 398 1259 c 1,10,-1
 236 1259 l 1,11,-1
 235 1265 l 1,12,13
 243 1363 243 1363 335.5 1420.5 c 128,-1,14
 428 1478 428 1478 556 1478 c 0,15,16
 696 1478 696 1478 773 1418 c 128,-1,17
 850 1358 850 1358 834 1249 c 0,18,19
 825 1191 825 1191 783 1145.5 c 128,-1,20
 741 1100 741 1100 676 1076 c 1,21,22
 741 1051 741 1051 772 1004 c 128,-1,23
 803 957 803 957 794 890 c 0,24,25
 776 774 776 774 678 714.5 c 128,-1,26
 580 655 580 655 432 655 c 0,27,28
 310 655 310 655 226 713.5 c 128,-1,29
 142 772 142 772 164 882 c 1,30,-1
 166 888 l 1,31,-1
 329 888 l 1,32,33
 322 840 322 840 355 812.5 c 128,-1,34
 388 785 388 785 452 785 c 0,35,36
 521 785 521 785 569 815 c 128,-1,37
 617 845 617 845 624 892 c 0,38,39
 633 957 633 957 601.5 984 c 128,-1,40
 570 1011 570 1011 496 1011 c 2,41,-1
 364 1011 l 1,42,-1
 377 1098 l 1,43,-1
 383 1137 l 1,0,-1
EndSplineSet
Validated: 33
EndChar

StartChar: acute
Encoding: 180 180 118
Width: 654
GlyphClass: 1
Flags: W
LayerCount: 2
Fore
SplineSet
454 1518 m 1,0,-1
 683 1518 l 1,1,-1
 685 1512 l 1,2,-1
 379 1252 l 1,3,-1
 238 1252 l 1,4,-1
 236 1257 l 1,5,-1
 454 1518 l 1,0,-1
EndSplineSet
Validated: 1
EndChar

StartChar: mu
Encoding: 181 181 119
Width: 1164
GlyphClass: 1
Flags: W
LayerCount: 2
Fore
SplineSet
431 1082 m 1,0,-1
 338 460 l 2,1,2
 308 262 308 262 352.5 197.5 c 128,-1,3
 397 133 397 133 502 133 c 0,4,5
 598 133 598 133 665.5 171.5 c 128,-1,6
 733 210 733 210 776 284 c 1,7,-1
 895 1082 l 1,8,-1
 1092 1082 l 1,9,-1
 930 0 l 1,10,-1
 753 0 l 1,11,-1
 760 104 l 1,12,13
 707 42 707 42 638.5 10.5 c 128,-1,14
 570 -21 570 -21 487 -21 c 0,15,16
 417 -21 417 -21 364.5 -4.5 c 128,-1,17
 312 12 312 12 276 49 c 1,18,-1
 207 -416 l 1,19,-1
 11 -416 l 1,20,-1
 235 1082 l 1,21,-1
 431 1082 l 1,0,-1
EndSplineSet
Validated: 33
EndChar

StartChar: paragraph
Encoding: 182 182 120
Width: 1006
GlyphClass: 1
Flags: W
LayerCount: 2
Fore
SplineSet
559 0 m 1,0,-1
 637 520 l 1,1,-1
 553 520 l 2,2,3
 329 520 329 520 214.5 651 c 128,-1,4
 100 782 100 782 131 988 c 0,5,6
 163 1202 163 1202 310.5 1329 c 128,-1,7
 458 1456 458 1456 693 1456 c 2,8,-1
 974 1456 l 1,9,-1
 756 0 l 1,10,-1
 559 0 l 1,0,-1
EndSplineSet
Validated: 33
EndChar

StartChar: periodcentered
Encoding: 183 183 121
Width: 540
GlyphClass: 1
Flags: W
LayerCount: 2
Fore
SplineSet
373 624 m 1,0,-1
 175 624 l 1,1,-1
 206 836 l 1,2,-1
 404 836 l 1,3,-1
 373 624 l 1,0,-1
EndSplineSet
Validated: 1
EndChar

StartChar: cedilla
Encoding: 184 184 122
Width: 509
GlyphClass: 1
Flags: W
LayerCount: 2
Fore
SplineSet
212 0 m 1,0,-1
 192 -52 l 1,1,2
 255 -63 255 -63 292 -104 c 128,-1,3
 329 -145 329 -145 317 -225 c 0,4,5
 302 -324 302 -324 215.5 -379.5 c 128,-1,6
 129 -435 129 -435 -19 -435 c 1,7,-1
 -10 -326 l 1,8,9
 59 -326 59 -326 108 -301.5 c 128,-1,10
 157 -277 157 -277 165 -228 c 0,11,12
 172 -178 172 -178 139.5 -160 c 128,-1,13
 107 -142 107 -142 20 -135 c 1,14,-1
 72 0 l 1,15,-1
 212 0 l 1,0,-1
EndSplineSet
Validated: 33
EndChar

StartChar: onesuperior
Encoding: 185 185 123
Width: 557
GlyphClass: 1
Flags: W
LayerCount: 2
Fore
SplineSet
416 665 m 1,0,-1
 242 665 l 1,1,-1
 340 1320 l 1,2,-1
 213 1320 l 1,3,-1
 233 1454 l 1,4,-1
 538 1477 l 1,5,-1
 416 665 l 1,0,-1
EndSplineSet
Validated: 1
EndChar

StartChar: ordmasculine
Encoding: 186 186 124
Width: 933
GlyphClass: 1
Flags: W
LayerCount: 2
Fore
SplineSet
211 1142 m 2,0,1
 234 1295 234 1295 341 1386 c 128,-1,2
 448 1477 448 1477 607 1477 c 0,3,4
 759 1477 759 1477 841.5 1382.5 c 128,-1,5
 924 1288 924 1288 902 1142 c 2,6,-1
 885 1025 l 2,7,8
 861 870 861 870 755.5 780.5 c 128,-1,9
 650 691 650 691 491 691 c 0,10,11
 339 691 339 691 255.5 784.5 c 128,-1,12
 172 878 172 878 194 1025 c 2,13,-1
 211 1142 l 2,0,1
367 1025 m 2,14,15
 353 934 353 934 389 883 c 128,-1,16
 425 832 425 832 512 832 c 0,17,18
 591 832 591 832 645 885.5 c 128,-1,19
 699 939 699 939 713 1025 c 2,20,-1
 730 1142 l 2,21,22
 743 1229 743 1229 706.5 1281 c 128,-1,23
 670 1333 670 1333 585 1333 c 0,24,25
 504 1333 504 1333 450.5 1279 c 128,-1,26
 397 1225 397 1225 384 1142 c 2,27,-1
 367 1025 l 2,14,15
EndSplineSet
Validated: 33
EndChar

StartChar: questiondown
Encoding: 191 191 129
Width: 1013
GlyphClass: 1
Flags: W
LayerCount: 2
Fore
SplineSet
666 672 m 1,0,1
 642 526 642 526 609.5 470.5 c 128,-1,2
 577 415 577 415 462 323 c 1,3,4
 342 202 342 202 292 140.5 c 128,-1,5
 242 79 242 79 230 -8 c 0,6,7
 213 -118 213 -118 260.5 -173 c 128,-1,8
 308 -228 308 -228 415 -228 c 0,9,10
 503 -228 503 -228 576 -178 c 128,-1,11
 649 -128 649 -128 663 -33 c 1,12,-1
 851 -33 l 1,13,-1
 853 -39 l 1,14,15
 830 -200 830 -200 699.5 -297 c 128,-1,16
 569 -394 569 -394 390 -394 c 0,17,18
 200 -394 200 -394 102.5 -292.5 c 128,-1,19
 5 -191 5 -191 32 -13 c 0,20,21
 51 120 51 120 134 221 c 128,-1,22
 217 322 217 322 357 441 c 0,23,24
 418 494 418 494 436 537 c 128,-1,25
 454 580 454 580 469 672 c 1,26,-1
 666 672 l 1,0,1
523 1083 m 1,27,-1
 729 1083 l 1,28,-1
 698 874 l 1,29,-1
 492 874 l 1,30,-1
 523 1083 l 1,27,-1
EndSplineSet
Validated: 33
EndChar

StartChar: AE
Encoding: 198 198 136
Width: 1999
GlyphClass: 1
Flags: W
LayerCount: 2
Fore
SplineSet
1844 0 m 1,0,-1
 949 0 l 1,1,-1
 986 350 l 1,2,-1
 430 350 l 1,3,-1
 176 0 l 1,4,-1
 -66 0 l 1,5,-1
 1033 1456 l 1,6,-1
 2000 1456 l 1,7,-1
 1977 1301 l 1,8,-1
 1286 1301 l 1,9,-1
 1236 835 l 1,10,-1
 1826 835 l 1,11,-1
 1803 680 l 1,12,-1
 1219 680 l 1,13,-1
 1162 154 l 1,14,-1
 1867 154 l 1,15,-1
 1844 0 l 1,0,-1
1006 529 m 1,16,-1
 1082 1237 l 1,17,-1
 1076 1240 l 1,18,-1
 560 529 l 1,19,-1
 1006 529 l 1,16,-1
EndSplineSet
Validated: 1
EndChar

StartChar: Eth
Encoding: 208 208 146
Width: 1387
GlyphClass: 1
Flags: W
LayerCount: 2
Fore
SplineSet
90 0 m 1,0,-1
 189 663 l 1,1,-1
 21 663 l 1,2,-1
 45 818 l 1,3,-1
 212 818 l 1,4,-1
 308 1456 l 1,5,-1
 766 1456 l 2,6,7
 1041 1456 1041 1456 1193 1278.5 c 128,-1,8
 1345 1101 1345 1101 1304 827 c 2,9,-1
 1274 628 l 2,10,11
 1230 339 1230 339 1033.5 169.5 c 128,-1,12
 837 0 837 0 548 0 c 2,13,-1
 90 0 l 1,0,-1
662 663 m 1,14,-1
 386 663 l 1,15,-1
 310 154 l 1,16,-1
 571 154 l 2,17,18
 765 154 765 154 905.5 288.5 c 128,-1,19
 1046 423 1046 423 1077 628 c 2,20,-1
 1107 829 l 2,21,22
 1139 1042 1139 1042 1043 1171.5 c 128,-1,23
 947 1301 947 1301 743 1301 c 2,24,-1
 482 1301 l 1,25,-1
 409 818 l 1,26,-1
 686 818 l 1,27,-1
 662 663 l 1,14,-1
EndSplineSet
Validated: 33
Substitution2: "'smcp' Lowercase to Small Capitals lookup 0 subtable" Eth.smcp
EndChar

StartChar: multiply
Encoding: 215 215 153
Width: 1096
GlyphClass: 1
Flags: W
LayerCount: 2
Fore
SplineSet
61 351 m 1,0,-1
 438 685 l 1,1,-1
 161 1019 l 1,2,-1
 306 1145 l 1,3,-1
 582 812 l 1,4,-1
 959 1145 l 1,5,-1
 1066 1019 l 1,6,-1
 688 685 l 1,7,-1
 966 351 l 1,8,-1
 821 225 l 1,9,-1
 544 557 l 1,10,-1
 168 225 l 1,11,-1
 61 351 l 1,0,-1
EndSplineSet
Validated: 1
EndChar

StartChar: Oslash
Encoding: 216 216 154
Width: 1396
GlyphClass: 1
Flags: W
LayerCount: 2
Fore
SplineSet
1292 598 m 2,0,1
 1249 320 1249 320 1060 149.5 c 128,-1,2
 871 -21 871 -21 604 -21 c 0,3,4
 521 -21 521 -21 449.5 0 c 128,-1,5
 378 21 378 21 319 63 c 1,6,-1
 202 -94 l 1,7,-1
 53 -94 l 1,8,-1
 231 145 l 1,9,10
 159 229 159 229 130.5 346 c 128,-1,11
 102 463 102 463 123 598 c 2,12,-1
 162 857 l 2,13,14
 203 1134 203 1134 387 1305.5 c 128,-1,15
 571 1477 571 1477 829 1477 c 0,16,17
 921 1477 921 1477 1001 1450.5 c 128,-1,18
 1081 1424 1081 1424 1146 1376 c 1,19,-1
 1251 1517 l 1,20,-1
 1400 1517 l 1,21,-1
 1232 1291 l 1,22,23
 1296 1206 1296 1206 1322.5 1094.5 c 128,-1,24
 1349 983 1349 983 1331 857 c 2,25,-1
 1292 598 l 2,0,1
320 598 m 2,26,27
 306 510 306 510 313.5 436.5 c 128,-1,28
 321 363 321 363 348 312 c 1,29,-1
 354 311 l 1,30,-1
 1039 1233 l 1,31,32
 996 1272 996 1272 936.5 1293.5 c 128,-1,33
 877 1315 877 1315 804 1315 c 0,34,35
 639 1315 639 1315 513.5 1185.5 c 128,-1,36
 388 1056 388 1056 359 859 c 2,37,-1
 320 598 l 2,26,27
1134 859 m 2,38,39
 1145 937 1145 937 1139 1004 c 128,-1,40
 1133 1071 1133 1071 1112 1120 c 1,41,-1
 1106 1121 l 1,42,-1
 425 205 l 1,43,44
 463 173 463 173 514.5 156.5 c 128,-1,45
 566 140 566 140 628 140 c 0,46,47
 804 140 804 140 934 269 c 128,-1,48
 1064 398 1064 398 1095 598 c 2,49,-1
 1134 859 l 2,38,39
EndSplineSet
Validated: 33
EndChar

StartChar: Thorn
Encoding: 222 222 160
Width: 1209
GlyphClass: 1
Flags: W
LayerCount: 2
Fore
SplineSet
498 1456 m 1,0,-1
 454 1163 l 1,1,-1
 723 1163 l 2,2,3
 946 1163 946 1163 1062.5 1043.5 c 128,-1,4
 1179 924 1179 924 1152 738 c 0,5,6
 1122 541 1122 541 976 427 c 128,-1,7
 830 313 830 313 596 313 c 2,8,-1
 327 313 l 1,9,-1
 280 0 l 1,10,-1
 83 0 l 1,11,-1
 301 1456 l 1,12,-1
 498 1456 l 1,0,-1
431 1009 m 1,13,-1
 350 467 l 1,14,-1
 619 467 l 2,15,16
 760 467 760 467 848 546 c 128,-1,17
 936 625 936 625 953 736 c 0,18,19
 970 854 970 854 909 931.5 c 128,-1,20
 848 1009 848 1009 700 1009 c 2,21,-1
 431 1009 l 1,13,-1
EndSplineSet
Validated: 33
EndChar

StartChar: germandbls
Encoding: 223 223 161
Width: 1221
GlyphClass: 1
Flags: W
LayerCount: 2
Fore
SplineSet
253 0 m 1,0,-1
 57 0 l 1,1,-1
 219 1082 l 2,2,3
 254 1313 254 1313 388 1434 c 128,-1,4
 522 1555 522 1555 708 1555 c 0,5,6
 863 1555 863 1555 953.5 1468 c 128,-1,7
 1044 1381 1044 1381 1020 1216 c 0,8,9
 1001 1091 1001 1091 920.5 984 c 128,-1,10
 840 877 840 877 832 821 c 0,11,12
 819 734 819 734 971 594 c 128,-1,13
 1123 454 1123 454 1103 316 c 0,14,15
 1077 143 1077 143 961.5 61 c 128,-1,16
 846 -21 846 -21 666 -21 c 0,17,18
 585 -21 585 -21 498 -0.5 c 128,-1,19
 411 20 411 20 379 50 c 1,20,-1
 446 209 l 1,21,22
 485 181 485 181 546.5 157 c 128,-1,23
 608 133 608 133 669 133 c 0,24,25
 772 133 772 133 832.5 181 c 128,-1,26
 893 229 893 229 905 306 c 0,27,28
 918 395 918 395 765.5 536.5 c 128,-1,29
 613 678 613 678 635 823 c 0,30,31
 648 908 648 908 734.5 1016.5 c 128,-1,32
 821 1125 821 1125 833 1200 c 0,33,34
 847 1298 847 1298 805 1349.5 c 128,-1,35
 763 1401 763 1401 695 1401 c 0,36,37
 595 1401 595 1401 516.5 1317 c 128,-1,38
 438 1233 438 1233 415 1082 c 2,39,-1
 253 0 l 1,0,-1
EndSplineSet
Validated: 33
Substitution2: "'smcp' Lowercase to Small Capitals lookup 0 subtable" germandbls.smcp
EndChar

StartChar: ae
Encoding: 230 230 168
Width: 1789
GlyphClass: 1
Flags: W
LayerCount: 2
Fore
SplineSet
1209 -21 m 0,0,1
 1078 -21 1078 -21 981.5 28.5 c 128,-1,2
 885 78 885 78 830 170 c 1,3,4
 763 90 763 90 642.5 34.5 c 128,-1,5
 522 -21 522 -21 360 -21 c 0,6,7
 196 -21 196 -21 113.5 67 c 128,-1,8
 31 155 31 155 54 304 c 0,9,10
 77 467 77 467 203.5 550 c 128,-1,11
 330 633 330 633 553 633 c 2,12,-1
 782 633 l 1,13,-1
 795 720 l 2,14,15
 811 830 811 830 768.5 888.5 c 128,-1,16
 726 947 726 947 628 947 c 0,17,18
 529 947 529 947 457.5 891.5 c 128,-1,19
 386 836 386 836 375 759 c 1,20,-1
 191 777 l 1,21,-1
 189 783 l 1,22,23
 205 926 205 926 332 1014 c 128,-1,24
 459 1102 459 1102 651 1102 c 0,25,26
 759 1102 759 1102 840.5 1061.5 c 128,-1,27
 922 1021 922 1021 963 945 c 1,28,29
 1037 1020 1037 1020 1131.5 1061 c 128,-1,30
 1226 1102 1226 1102 1330 1102 c 0,31,32
 1536 1102 1536 1102 1635.5 970.5 c 128,-1,33
 1735 839 1735 839 1702 614 c 2,34,-1
 1684 495 l 1,35,-1
 968 495 l 1,36,37
 948 327 948 327 1011.5 230 c 128,-1,38
 1075 133 1075 133 1232 133 c 0,39,40
 1331 133 1331 133 1405.5 161.5 c 128,-1,41
 1480 190 1480 190 1562 239 c 1,42,-1
 1608 101 l 1,43,44
 1548 57 1548 57 1448.5 18 c 128,-1,45
 1349 -21 1349 -21 1209 -21 c 0,0,1
422 133 m 0,46,47
 495 133 495 133 585.5 177.5 c 128,-1,48
 676 222 676 222 728 278 c 1,49,-1
 760 491 l 1,50,-1
 534 491 l 2,51,52
 418 491 418 491 339.5 434.5 c 128,-1,53
 261 378 261 378 250 300 c 0,54,55
 238 223 238 223 281 178 c 128,-1,56
 324 133 324 133 422 133 c 0,46,47
1307 947 m 0,57,58
 1199 947 1199 947 1115.5 861.5 c 128,-1,59
 1032 776 1032 776 1000 646 c 1,60,-1
 1002 640 l 1,61,-1
 1509 640 l 1,62,-1
 1514 671 l 2,63,64
 1532 797 1532 797 1484 872 c 128,-1,65
 1436 947 1436 947 1307 947 c 0,57,58
EndSplineSet
Validated: 33
EndChar

StartChar: eth
Encoding: 240 240 178
Width: 1202
GlyphClass: 1
Flags: W
LayerCount: 2
Fore
SplineSet
987 1297 m 1,0,1
 1067 1193 1067 1193 1098 1055.5 c 128,-1,2
 1129 918 1129 918 1105 755 c 2,3,-1
 1072 535 l 2,4,5
 1034 281 1034 281 869 130 c 128,-1,6
 704 -21 704 -21 486 -21 c 0,7,8
 277 -21 277 -21 154 120.5 c 128,-1,9
 31 262 31 262 62 466 c 0,10,11
 97 703 97 703 255 840.5 c 128,-1,12
 413 978 413 978 628 978 c 0,13,14
 716 978 716 978 791 939 c 128,-1,15
 866 900 866 900 910 838 c 1,16,-1
 915 842 l 1,17,18
 924 958 924 958 895.5 1047.5 c 128,-1,19
 867 1137 867 1137 808 1203 c 1,20,-1
 489 1035 l 1,21,-1
 428 1137 l 1,22,-1
 702 1281 l 1,23,-1
 702 1287 l 1,24,25
 670 1306 670 1306 631 1323 c 128,-1,26
 592 1340 592 1340 550 1353 c 1,27,-1
 635 1517 l 1,28,29
 710 1498 710 1498 777.5 1465 c 128,-1,30
 845 1432 845 1432 901 1386 c 1,31,-1
 1138 1511 l 1,32,-1
 1199 1409 l 1,33,-1
 987 1297 l 1,0,1
513 133 m 0,34,35
 641 133 641 133 745 248 c 128,-1,36
 849 363 849 363 875 535 c 2,37,-1
 898 684 l 1,38,39
 873 743 873 743 798 783 c 128,-1,40
 723 823 723 823 604 823 c 0,41,42
 479 823 479 823 380 718 c 128,-1,43
 281 613 281 613 259 466 c 0,44,45
 238 330 238 330 305 231.5 c 128,-1,46
 372 133 372 133 513 133 c 0,34,35
EndSplineSet
Validated: 33
Substitution2: "'smcp' Lowercase to Small Capitals lookup 0 subtable" Eth.smcp
EndChar

StartChar: divide
Encoding: 247 247 185
Width: 1170
GlyphClass: 1
Flags: W
LayerCount: 2
Fore
SplineSet
1079 597 m 1,0,-1
 81 597 l 1,1,-1
 109 785 l 1,2,-1
 1107 785 l 1,3,-1
 1079 597 l 1,0,-1
740 999 m 1,4,-1
 542 999 l 1,5,-1
 572 1202 l 1,6,-1
 770 1202 l 1,7,-1
 740 999 l 1,4,-1
617 180 m 1,8,-1
 419 180 l 1,9,-1
 449 383 l 1,10,-1
 647 383 l 1,11,-1
 617 180 l 1,8,-1
EndSplineSet
Validated: 1
EndChar

StartChar: oslash
Encoding: 248 248 186
Width: 1164
GlyphClass: 1
Flags: W
LayerCount: 2
Fore
SplineSet
100 551 m 1,0,1
 137 800 137 800 288.5 951 c 128,-1,2
 440 1102 440 1102 665 1102 c 0,3,4
 720 1102 720 1102 769.5 1090.5 c 128,-1,5
 819 1079 819 1079 863 1057 c 1,6,-1
 960 1209 l 1,7,-1
 1089 1209 l 1,8,-1
 951 994 l 1,9,10
 1027 919 1027 919 1058 803.5 c 128,-1,11
 1089 688 1089 688 1069 551 c 1,12,-1
 1065 529 l 1,13,14
 1027 278 1027 278 876 128.5 c 128,-1,15
 725 -21 725 -21 499 -21 c 0,16,17
 450 -21 450 -21 405.5 -12 c 128,-1,18
 361 -3 361 -3 321 14 c 1,19,-1
 225 -135 l 1,20,-1
 96 -135 l 1,21,-1
 229 72 l 1,22,23
 144 145 144 145 109 264 c 128,-1,24
 74 383 74 383 96 529 c 1,25,-1
 100 551 l 1,0,1
293 529 m 2,26,27
 279 435 279 435 287.5 359.5 c 128,-1,28
 296 284 296 284 329 238 c 1,29,-1
 335 236 l 1,30,-1
 770 914 l 1,31,32
 743 930 743 930 711.5 938.5 c 128,-1,33
 680 947 680 947 642 947 c 0,34,35
 506 947 506 947 413.5 832.5 c 128,-1,36
 321 718 321 718 297 551 c 1,37,-1
 293 529 l 2,26,27
872 551 m 2,38,39
 884 635 884 635 877.5 705 c 128,-1,40
 871 775 871 775 846 821 c 1,41,-1
 840 822 l 1,42,-1
 412 155 l 1,43,44
 434 144 434 144 462 138.5 c 128,-1,45
 490 133 490 133 522 133 c 0,46,47
 657 133 657 133 749.5 246.5 c 128,-1,48
 842 360 842 360 868 529 c 1,49,-1
 872 551 l 2,38,39
EndSplineSet
Validated: 33
EndChar

StartChar: thorn
Encoding: 254 254 192
Width: 1186
GlyphClass: 1
Flags: W
LayerCount: 2
Fore
SplineSet
1070 500 m 2,0,1
 1033 257 1033 257 901.5 118 c 128,-1,2
 770 -21 770 -21 571 -21 c 0,3,4
 474 -21 474 -21 403 14.5 c 128,-1,5
 332 50 332 50 288 119 c 1,6,-1
 270 0 l 1,7,-1
 208 -416 l 1,8,-1
 11 -416 l 1,9,-1
 73 0 l 1,10,-1
 139 440 l 1,11,-1
 235 1082 l 1,12,-1
 307 1560 l 1,13,-1
 504 1560 l 1,14,-1
 414 963 l 1,15,16
 477 1031 477 1031 557.5 1066.5 c 128,-1,17
 638 1102 638 1102 736 1102 c 0,18,19
 929 1102 929 1102 1020 940.5 c 128,-1,20
 1111 779 1111 779 1073 521 c 2,21,-1
 1070 500 l 2,0,1
876 521 m 2,22,23
 905 712 905 712 850 827 c 128,-1,24
 795 942 795 942 653 942 c 0,25,26
 571 942 571 942 504.5 902.5 c 128,-1,27
 438 863 438 863 389 795 c 1,28,-1
 363 619 l 1,29,-1
 311 275 l 1,30,31
 339 208 339 208 393 170.5 c 128,-1,32
 447 133 447 133 534 133 c 0,33,34
 668 133 668 133 758.5 236.5 c 128,-1,35
 849 340 849 340 873 500 c 2,36,-1
 876 521 l 2,22,23
EndSplineSet
Validated: 33
EndChar

StartChar: Dcroat
Encoding: 272 272 210
Width: 1387
GlyphClass: 1
Flags: W
LayerCount: 2
Fore
SplineSet
90 0 m 1,0,-1
 189 663 l 1,1,-1
 21 663 l 1,2,-1
 45 818 l 1,3,-1
 212 818 l 1,4,-1
 308 1456 l 1,5,-1
 766 1456 l 2,6,7
 1041 1456 1041 1456 1193 1278.5 c 128,-1,8
 1345 1101 1345 1101 1304 827 c 2,9,-1
 1274 628 l 2,10,11
 1230 339 1230 339 1033.5 169.5 c 128,-1,12
 837 0 837 0 548 0 c 2,13,-1
 90 0 l 1,0,-1
662 663 m 1,14,-1
 386 663 l 1,15,-1
 310 154 l 1,16,-1
 571 154 l 2,17,18
 765 154 765 154 905.5 288.5 c 128,-1,19
 1046 423 1046 423 1077 628 c 2,20,-1
 1107 829 l 2,21,22
 1139 1042 1139 1042 1043 1171.5 c 128,-1,23
 947 1301 947 1301 743 1301 c 2,24,-1
 482 1301 l 1,25,-1
 409 818 l 1,26,-1
 686 818 l 1,27,-1
 662 663 l 1,14,-1
EndSplineSet
Validated: 33
Substitution2: "'smcp' Lowercase to Small Capitals lookup 0 subtable" Dcroat.smcp
EndChar

StartChar: dcroat
Encoding: 273 273 211
Width: 1164
GlyphClass: 1
Flags: W
LayerCount: 2
Fore
SplineSet
1315 1231 m 1,0,-1
 1117 1231 l 1,1,-1
 933 0 l 1,2,-1
 782 0 l 1,3,-1
 773 137 l 1,4,5
 708 59 708 59 624 19 c 128,-1,6
 540 -21 540 -21 437 -21 c 0,7,8
 246 -21 246 -21 152 124 c 128,-1,9
 58 269 58 269 93 500 c 2,10,-1
 96 521 l 2,11,12
 136 792 136 792 270 947 c 128,-1,13
 404 1102 404 1102 607 1102 c 0,14,15
 700 1102 700 1102 768.5 1065 c 128,-1,16
 837 1028 837 1028 880 958 c 1,17,-1
 920 1231 l 1,18,-1
 674 1231 l 1,19,-1
 697 1386 l 1,20,-1
 944 1386 l 1,21,-1
 970 1560 l 1,22,-1
 1167 1560 l 1,23,-1
 1141 1386 l 1,24,-1
 1338 1386 l 1,25,-1
 1315 1231 l 1,0,-1
290 500 m 2,26,27
 264 331 264 331 316.5 235 c 128,-1,28
 369 139 369 139 511 139 c 0,29,30
 596 139 596 139 663 180 c 128,-1,31
 730 221 730 221 780 294 c 1,32,-1
 855 795 l 1,33,34
 827 863 827 863 772.5 902.5 c 128,-1,35
 718 942 718 942 633 942 c 0,36,37
 497 942 497 942 408.5 823.5 c 128,-1,38
 320 705 320 705 293 521 c 2,39,-1
 290 500 l 2,26,27
EndSplineSet
Validated: 33
Substitution2: "'smcp' Lowercase to Small Capitals lookup 0 subtable" Dcroat.smcp
EndChar

StartChar: Hbar
Encoding: 294 294 232
Width: 1439
GlyphClass: 1
Flags: W
LayerCount: 2
Fore
SplineSet
1374 1169 m 1,0,-1
 1518 1169 l 1,1,-1
 1497 1024 l 1,2,-1
 1352 1024 l 1,3,-1
 1199 0 l 1,4,-1
 1002 0 l 1,5,-1
 1098 643 l 1,6,-1
 391 643 l 1,7,-1
 295 0 l 1,8,-1
 98 0 l 1,9,-1
 251 1024 l 1,10,-1
 105 1024 l 1,11,-1
 126 1169 l 1,12,-1
 273 1169 l 1,13,-1
 316 1456 l 1,14,-1
 513 1456 l 1,15,-1
 470 1169 l 1,16,-1
 1177 1169 l 1,17,-1
 1220 1456 l 1,18,-1
 1417 1456 l 1,19,-1
 1374 1169 l 1,0,-1
414 798 m 1,20,-1
 1121 798 l 1,21,-1
 1155 1024 l 1,22,-1
 448 1024 l 1,23,-1
 414 798 l 1,20,-1
EndSplineSet
Validated: 1
EndChar

StartChar: hbar
Encoding: 295 295 233
Width: 1164
GlyphClass: 1
Flags: W
LayerCount: 2
Fore
SplineSet
718 1231 m 1,0,-1
 444 1231 l 1,1,-1
 401 943 l 1,2,3
 469 1019 469 1019 556 1060.5 c 128,-1,4
 643 1102 643 1102 743 1102 c 0,5,6
 910 1102 910 1102 993.5 997 c 128,-1,7
 1077 892 1077 892 1046 678 c 2,8,-1
 944 0 l 1,9,-1
 747 0 l 1,10,-1
 849 680 l 2,11,12
 870 818 870 818 822 880 c 128,-1,13
 774 942 774 942 659 942 c 0,14,15
 574 942 574 942 502.5 906 c 128,-1,16
 431 870 431 870 381 806 c 1,17,-1
 260 0 l 1,18,-1
 63 0 l 1,19,-1
 247 1231 l 1,20,-1
 77 1231 l 1,21,-1
 100 1386 l 1,22,-1
 271 1386 l 1,23,-1
 297 1560 l 1,24,-1
 494 1560 l 1,25,-1
 468 1386 l 1,26,-1
 741 1386 l 1,27,-1
 718 1231 l 1,0,-1
EndSplineSet
Validated: 33
EndChar

StartChar: dotlessi
Encoding: 305 305 243
Width: 515
GlyphClass: 1
Flags: W
LayerCount: 2
Fore
SplineSet
270 0 m 1,0,-1
 73 0 l 1,1,-1
 235 1082 l 1,2,-1
 432 1082 l 1,3,-1
 270 0 l 1,0,-1
EndSplineSet
Validated: 1
EndChar

StartChar: kgreenlandic
Encoding: 312 312 250
Width: 1144
GlyphClass: 1
Flags: W
LayerCount: 2
Fore
SplineSet
439 459 m 1,0,-1
 338 459 l 1,1,-1
 270 0 l 1,2,-1
 73 0 l 1,3,-1
 235 1082 l 1,4,-1
 432 1082 l 1,5,-1
 363 625 l 1,6,-1
 448 625 l 1,7,-1
 904 1082 l 1,8,-1
 1134 1082 l 1,9,-1
 1136 1076 l 1,10,-1
 609 563 l 1,11,-1
 1013 0 l 1,12,-1
 765 0 l 1,13,-1
 439 459 l 1,0,-1
EndSplineSet
Validated: 1
EndChar

StartChar: Lslash
Encoding: 321 321 259
Width: 1077
GlyphClass: 1
Flags: W
LayerCount: 2
Fore
SplineSet
406 843 m 1,0,-1
 688 929 l 1,1,-1
 663 763 l 1,2,-1
 381 677 l 1,3,-1
 303 154 l 1,4,-1
 1013 154 l 1,5,-1
 990 0 l 1,6,-1
 83 0 l 1,7,-1
 175 615 l 1,8,-1
 46 576 l 1,9,-1
 71 742 l 1,10,-1
 200 781 l 1,11,-1
 301 1456 l 1,12,-1
 498 1456 l 1,13,-1
 406 843 l 1,0,-1
EndSplineSet
Validated: 1
EndChar

StartChar: lslash
Encoding: 322 322 260
Width: 558
GlyphClass: 1
Flags: W
LayerCount: 2
Fore
SplineSet
427 872 m 1,0,-1
 586 930 l 1,1,-1
 561 765 l 1,2,-1
 402 707 l 1,3,-1
 296 0 l 1,4,-1
 99 0 l 1,5,-1
 194 632 l 1,6,-1
 44 578 l 1,7,-1
 68 743 l 1,8,-1
 219 797 l 1,9,-1
 333 1560 l 1,10,-1
 530 1560 l 1,11,-1
 427 872 l 1,0,-1
EndSplineSet
Validated: 1
EndChar

StartChar: Eng
Encoding: 330 330 268
Width: 1416
GlyphClass: 1
Flags: W
LayerCount: 2
Fore
SplineSet
1400 1456 m 1,0,-1
 1169 -89 l 2,1,2
 1142 -262 1142 -262 1044 -349.5 c 128,-1,3
 946 -437 946 -437 790 -437 c 0,4,5
 760 -437 760 -437 734 -432.5 c 128,-1,6
 708 -428 708 -428 681 -419 c 1,7,-1
 718 -269 l 1,8,9
 730 -274 730 -274 763.5 -278 c 128,-1,10
 797 -282 797 -282 814 -282 c 0,11,12
 872 -282 872 -282 915 -230 c 128,-1,13
 958 -178 958 -178 972 -89 c 2,14,-1
 985 0 l 1,15,-1
 450 1113 l 1,16,-1
 444 1112 l 1,17,-1
 278 0 l 1,18,-1
 81 0 l 1,19,-1
 299 1456 l 1,20,-1
 496 1456 l 1,21,-1
 1031 343 l 1,22,-1
 1037 344 l 1,23,-1
 1203 1456 l 1,24,-1
 1400 1456 l 1,0,-1
EndSplineSet
Validated: 1
EndChar

StartChar: eng
Encoding: 331 331 269
Width: 1164
GlyphClass: 1
Flags: W
LayerCount: 2
Fore
SplineSet
393 938 m 1,0,1
 458 1017 458 1017 544.5 1059.5 c 128,-1,2
 631 1102 631 1102 732 1102 c 0,3,4
 900 1102 900 1102 983.5 998.5 c 128,-1,5
 1067 895 1067 895 1035 683 c 2,6,-1
 920 -89 l 2,7,8
 893 -262 893 -262 795 -349.5 c 128,-1,9
 697 -437 697 -437 541 -437 c 0,10,11
 511 -437 511 -437 485 -432.5 c 128,-1,12
 459 -428 459 -428 432 -419 c 1,13,-1
 470 -259 l 1,14,15
 483 -264 483 -264 515.5 -267.5 c 128,-1,16
 548 -271 548 -271 566 -271 c 0,17,18
 625 -271 625 -271 667 -223.5 c 128,-1,19
 709 -176 709 -176 723 -89 c 2,20,-1
 838 679 l 2,21,22
 860 827 860 827 812.5 884.5 c 128,-1,23
 765 942 765 942 647 942 c 0,24,25
 564 942 564 942 497 907.5 c 128,-1,26
 430 873 430 873 382 812 c 1,27,-1
 260 0 l 1,28,-1
 63 0 l 1,29,-1
 225 1082 l 1,30,-1
 401 1082 l 1,31,-1
 393 938 l 1,0,1
EndSplineSet
Validated: 33
EndChar

StartChar: OE
Encoding: 338 338 276
Width: 1960
GlyphClass: 1
Flags: W
LayerCount: 2
Fore
SplineSet
1722 0 m 1,0,-1
 873 0 l 1,1,2
 781 -10 781 -10 714.5 -15.5 c 128,-1,3
 648 -21 648 -21 581 -21 c 0,4,5
 341 -21 341 -21 205.5 146.5 c 128,-1,6
 70 314 70 314 110 576 c 2,7,-1
 156 880 l 2,8,9
 197 1155 197 1155 374.5 1316 c 128,-1,10
 552 1477 552 1477 804 1477 c 0,11,12
 871 1477 871 1477 943.5 1471 c 128,-1,13
 1016 1465 1016 1465 1091 1456 c 1,14,-1
 1929 1456 l 1,15,-1
 1906 1301 l 1,16,-1
 1216 1301 l 1,17,-1
 1146 830 l 1,18,-1
 1745 830 l 1,19,-1
 1721 675 l 1,20,-1
 1123 675 l 1,21,-1
 1045 154 l 1,22,-1
 1745 154 l 1,23,-1
 1722 0 l 1,0,-1
604 134 m 0,24,25
 664 134 664 134 726.5 138.5 c 128,-1,26
 789 143 789 143 848 153 c 1,27,-1
 1020 1303 l 1,28,29
 963 1312 963 1312 903 1317 c 128,-1,30
 843 1322 843 1322 780 1322 c 0,31,32
 617 1322 617 1322 501 1207.5 c 128,-1,33
 385 1093 385 1093 353 882 c 2,34,-1
 307 576 l 2,35,36
 274 354 274 354 353 244 c 128,-1,37
 432 134 432 134 604 134 c 0,24,25
EndSplineSet
Validated: 33
EndChar

StartChar: oe
Encoding: 339 339 277
Width: 1854
GlyphClass: 1
Flags: W
LayerCount: 2
Fore
SplineSet
1288 -21 m 0,0,1
 1159 -21 1159 -21 1065.5 31 c 128,-1,2
 972 83 972 83 921 178 c 1,3,4
 844 82 844 82 736.5 30.5 c 128,-1,5
 629 -21 629 -21 499 -21 c 0,6,7
 283 -21 283 -21 171.5 135 c 128,-1,8
 60 291 60 291 96 529 c 1,9,-1
 100 551 l 1,10,11
 137 800 137 800 288.5 951 c 128,-1,12
 440 1102 440 1102 665 1102 c 0,13,14
 787 1102 787 1102 879 1048 c 128,-1,15
 971 994 971 994 1022 898 c 1,16,17
 1099 995 1099 995 1204.5 1048.5 c 128,-1,18
 1310 1102 1310 1102 1425 1102 c 0,19,20
 1634 1102 1634 1102 1726 965 c 128,-1,21
 1818 828 1818 828 1785 608 c 2,22,-1
 1770 504 l 1,23,-1
 1070 504 l 1,24,25
 1047 332 1047 332 1104 232.5 c 128,-1,26
 1161 133 1161 133 1311 133 c 0,27,28
 1407 133 1407 133 1489.5 162 c 128,-1,29
 1572 191 1572 191 1632 240 c 1,30,-1
 1690 112 l 1,31,32
 1624 56 1624 56 1523 17.5 c 128,-1,33
 1422 -21 1422 -21 1288 -21 c 0,0,1
293 529 m 1,34,35
 266 351 266 351 322 242 c 128,-1,36
 378 133 378 133 522 133 c 0,37,38
 657 133 657 133 749.5 246.5 c 128,-1,39
 842 360 842 360 868 529 c 1,40,-1
 872 551 l 1,41,42
 898 727 898 727 841.5 837 c 128,-1,43
 785 947 785 947 642 947 c 0,44,45
 506 947 506 947 413.5 832.5 c 128,-1,46
 321 718 321 718 297 551 c 1,47,-1
 293 529 l 1,34,35
1402 947 m 0,48,49
 1303 947 1303 947 1222.5 867 c 128,-1,50
 1142 787 1142 787 1107 665 c 1,51,-1
 1109 659 l 1,52,-1
 1596 659 l 1,53,-1
 1598 675 l 2,54,55
 1616 796 1616 796 1570 871.5 c 128,-1,56
 1524 947 1524 947 1402 947 c 0,48,49
EndSplineSet
Validated: 33
EndChar

StartChar: Tbar
Encoding: 358 358 296
Width: 1225
GlyphClass: 1
Flags: W
LayerCount: 2
Fore
SplineSet
971 820 m 1,0,-1
 751 820 l 1,1,-1
 628 0 l 1,2,-1
 431 0 l 1,3,-1
 554 820 l 1,4,-1
 330 820 l 1,5,-1
 353 975 l 1,6,-1
 577 975 l 1,7,-1
 626 1301 l 1,8,-1
 152 1301 l 1,9,-1
 175 1456 l 1,10,-1
 1326 1456 l 1,11,-1
 1303 1301 l 1,12,-1
 823 1301 l 1,13,-1
 774 975 l 1,14,-1
 994 975 l 1,15,-1
 971 820 l 1,0,-1
EndSplineSet
Validated: 1
Substitution2: "'smcp' Lowercase to Small Capitals lookup 0 subtable" Tbar.smcp
EndChar

StartChar: tbar
Encoding: 359 359 297
Width: 690
GlyphClass: 1
Flags: W
LayerCount: 2
Fore
SplineSet
538 1343 m 1,0,-1
 499 1082 l 1,1,-1
 704 1082 l 1,2,-1
 682 936 l 1,3,-1
 477 936 l 1,4,-1
 450 755 l 1,5,-1
 680 755 l 1,6,-1
 657 600 l 1,7,-1
 427 600 l 1,8,-1
 379 279 l 2,9,10
 367 200 367 200 393.5 170.5 c 128,-1,11
 420 141 420 141 473 141 c 0,12,13
 489 141 489 141 511.5 145.5 c 128,-1,14
 534 150 534 150 548 155 c 1,15,-1
 555 20 l 1,16,17
 530 2 530 2 485.5 -9.5 c 128,-1,18
 441 -21 441 -21 399 -21 c 0,19,20
 283 -21 283 -21 220.5 52 c 128,-1,21
 158 125 158 125 182 279 c 2,22,-1
 230 600 l 1,23,-1
 16 600 l 1,24,-1
 39 755 l 1,25,-1
 253 755 l 1,26,-1
 280 936 l 1,27,-1
 108 936 l 1,28,-1
 130 1082 l 1,29,-1
 302 1082 l 1,30,-1
 341 1343 l 1,31,-1
 538 1343 l 1,0,-1
EndSplineSet
Validated: 33
Substitution2: "'smcp' Lowercase to Small Capitals lookup 0 subtable" Tbar.smcp
EndChar

StartChar: longs
Encoding: 383 383 321
Width: 516
GlyphClass: 1
Flags: W
LayerCount: 2
Fore
SplineSet
79 0 m 1,0,-1
 262 1219 l 2,1,2
 289 1399 289 1399 392.5 1490 c 128,-1,3
 496 1581 496 1581 660 1581 c 0,4,5
 692 1581 692 1581 727 1575 c 128,-1,6
 762 1569 762 1569 801 1560 c 1,7,-1
 755 1415 l 1,8,9
 736 1420 736 1420 714.5 1423 c 128,-1,10
 693 1426 693 1426 668 1426 c 0,11,12
 584 1426 584 1426 528.5 1370.5 c 128,-1,13
 473 1315 473 1315 459 1219 c 2,14,-1
 276 0 l 1,15,-1
 79 0 l 1,0,-1
EndSplineSet
Validated: 1
EndChar

StartChar: florin
Encoding: 402 402 322
Width: 702
GlyphClass: 1
Flags: W
LayerCount: 2
Fore
SplineSet
665 936 m 1,0,-1
 469 936 l 1,1,-1
 326 -89 l 2,2,3
 301 -262 301 -262 204.5 -349.5 c 128,-1,4
 108 -437 108 -437 -48 -437 c 0,5,6
 -77 -437 -77 -437 -103.5 -432.5 c 128,-1,7
 -130 -428 -130 -428 -157 -419 c 1,8,-1
 -122 -269 l 1,9,10
 -110 -274 -110 -274 -76.5 -278 c 128,-1,11
 -43 -282 -43 -282 -26 -282 c 0,12,13
 32 -282 32 -282 74 -230 c 128,-1,14
 116 -178 116 -178 129 -89 c 2,15,-1
 272 936 l 1,16,-1
 103 936 l 1,17,-1
 123 1082 l 1,18,-1
 292 1082 l 1,19,-1
 312 1219 l 2,20,21
 336 1399 336 1399 438.5 1490 c 128,-1,22
 541 1581 541 1581 705 1581 c 0,23,24
 738 1581 738 1581 773 1575 c 128,-1,25
 808 1569 808 1569 847 1560 c 1,26,-1
 802 1410 l 1,27,28
 785 1414 785 1414 760 1417 c 128,-1,29
 735 1420 735 1420 708 1420 c 0,30,31
 624 1420 624 1420 573 1368 c 128,-1,32
 522 1316 522 1316 509 1219 c 2,33,-1
 489 1082 l 1,34,-1
 685 1082 l 1,35,-1
 665 936 l 1,0,-1
EndSplineSet
Validated: 1
EndChar

StartChar: Ohorn
Encoding: 416 416 323
Width: 1403
GlyphClass: 1
Flags: W
LayerCount: 2
Fore
SplineSet
1287 598 m 2,0,1
 1244 320 1244 320 1055 149.5 c 128,-1,2
 866 -21 866 -21 599 -21 c 0,3,4
 353 -21 353 -21 215.5 156.5 c 128,-1,5
 78 334 78 334 118 598 c 2,6,-1
 157 857 l 2,7,8
 198 1134 198 1134 382 1305.5 c 128,-1,9
 566 1477 566 1477 824 1477 c 0,10,11
 939 1477 939 1477 1034.5 1437 c 128,-1,12
 1130 1397 1130 1397 1199 1324 c 1,13,14
 1322 1334 1322 1334 1403 1420 c 128,-1,15
 1484 1506 1484 1506 1506 1653 c 1,16,-1
 1696 1653 l 1,17,-1
 1698 1648 l 1,18,19
 1671 1450 1671 1450 1566.5 1332.5 c 128,-1,20
 1462 1215 1462 1215 1291 1181 c 1,21,22
 1320 1109 1320 1109 1329.5 1027 c 128,-1,23
 1339 945 1339 945 1326 857 c 2,24,-1
 1287 598 l 2,0,1
1129 859 m 2,25,26
 1159 1066 1159 1066 1071 1190.5 c 128,-1,27
 983 1315 983 1315 799 1315 c 0,28,29
 634 1315 634 1315 508.5 1185.5 c 128,-1,30
 383 1056 383 1056 354 859 c 2,31,-1
 315 598 l 2,32,33
 283 389 283 389 366 264.5 c 128,-1,34
 449 140 449 140 623 140 c 0,35,36
 799 140 799 140 929 269 c 128,-1,37
 1059 398 1059 398 1090 598 c 2,38,-1
 1129 859 l 2,25,26
EndSplineSet
Validated: 33
EndChar

StartChar: ohorn
Encoding: 417 417 324
Width: 1175
GlyphClass: 1
Flags: W
LayerCount: 2
Fore
SplineSet
100 551 m 1,0,1
 137 800 137 800 288.5 951 c 128,-1,2
 440 1102 440 1102 665 1102 c 0,3,4
 763 1102 763 1102 841.5 1067 c 128,-1,5
 920 1032 920 1032 975 968 c 1,6,7
 1060 985 1060 985 1112.5 1052.5 c 128,-1,8
 1165 1120 1165 1120 1181 1223 c 1,9,-1
 1352 1223 l 1,10,-1
 1354 1218 l 1,11,12
 1335 1072 1335 1072 1255.5 980.5 c 128,-1,13
 1176 889 1176 889 1040 859 c 1,14,15
 1066 793 1066 793 1073.5 714.5 c 128,-1,16
 1081 636 1081 636 1069 551 c 2,17,-1
 1065 529 l 1,18,19
 1027 278 1027 278 876 128.5 c 128,-1,20
 725 -21 725 -21 499 -21 c 0,21,22
 283 -21 283 -21 171.5 135 c 128,-1,23
 60 291 60 291 96 529 c 1,24,-1
 100 551 l 1,0,1
293 529 m 1,25,26
 266 351 266 351 322 242 c 128,-1,27
 378 133 378 133 522 133 c 0,28,29
 657 133 657 133 749.5 246.5 c 128,-1,30
 842 360 842 360 868 529 c 1,31,-1
 872 551 l 1,32,33
 898 727 898 727 841.5 837 c 128,-1,34
 785 947 785 947 642 947 c 0,35,36
 506 947 506 947 413.5 832.5 c 128,-1,37
 321 718 321 718 297 551 c 1,38,-1
 293 529 l 1,25,26
EndSplineSet
Validated: 33
EndChar

StartChar: Uhorn
Encoding: 431 431 325
Width: 1430
GlyphClass: 1
Flags: W
LayerCount: 2
Fore
SplineSet
1382 1456 m 1,0,-1
 1356 1281 l 1,1,-1
 1361 1278 l 1,2,3
 1449 1306 1449 1306 1508.5 1387.5 c 128,-1,4
 1568 1469 1568 1469 1587 1591 c 1,5,-1
 1776 1591 l 1,6,-1
 1779 1585 l 1,7,8
 1751 1384 1751 1384 1636 1265 c 128,-1,9
 1521 1146 1521 1146 1331 1115 c 1,10,-1
 1237 489 l 2,11,12
 1200 240 1200 240 1026 109.5 c 128,-1,13
 852 -21 852 -21 603 -21 c 0,14,15
 374 -21 374 -21 239 115.5 c 128,-1,16
 104 252 104 252 140 489 c 2,17,-1
 285 1456 l 1,18,-1
 482 1456 l 1,19,-1
 337 489 l 2,20,21
 311 315 311 315 392 224 c 128,-1,22
 473 133 473 133 626 133 c 0,23,24
 780 133 780 133 897.5 228 c 128,-1,25
 1015 323 1015 323 1040 489 c 2,26,-1
 1185 1456 l 1,27,-1
 1382 1456 l 1,0,-1
EndSplineSet
Validated: 33
EndChar

StartChar: uhorn
Encoding: 432 432 326
Width: 1204
GlyphClass: 1
Flags: W
LayerCount: 2
Fore
SplineSet
1484 1227 m 1,0,-1
 1486 1221 l 1,1,2
 1461 1036 1461 1036 1359.5 943 c 128,-1,3
 1258 850 1258 850 1065 838 c 1,4,-1
 940 0 l 1,5,-1
 763 0 l 1,6,-1
 774 155 l 1,7,8
 710 69 710 69 623.5 24 c 128,-1,9
 537 -21 537 -21 431 -21 c 0,10,11
 260 -21 260 -21 175 93.5 c 128,-1,12
 90 208 90 208 126 444 c 2,13,-1
 221 1082 l 1,14,-1
 418 1082 l 1,15,-1
 322 442 l 2,16,17
 295 263 295 263 336 201 c 128,-1,18
 377 139 377 139 487 139 c 0,19,20
 590 139 590 139 666 183.5 c 128,-1,21
 742 228 742 228 790 309 c 1,22,-1
 905 1082 l 1,23,-1
 1102 1082 l 1,24,-1
 1085 969 l 1,25,-1
 1090 966 l 1,26,27
 1189 975 1189 975 1242.5 1039.5 c 128,-1,28
 1296 1104 1296 1104 1315 1227 c 1,29,-1
 1484 1227 l 1,0,-1
EndSplineSet
Validated: 33
EndChar

StartChar: uni0237
Encoding: 567 567 336
Width: 523
GlyphClass: 1
Flags: W
LayerCount: 2
Fore
SplineSet
450 1082 m 1,0,-1
 275 -89 l 2,1,2
 248 -262 248 -262 150 -349.5 c 128,-1,3
 52 -437 52 -437 -103 -437 c 0,4,5
 -132 -437 -132 -437 -158 -432.5 c 128,-1,6
 -184 -428 -184 -428 -211 -419 c 1,7,-1
 -174 -269 l 1,8,9
 -161 -274 -161 -274 -128.5 -278 c 128,-1,10
 -96 -282 -96 -282 -79 -282 c 0,11,12
 -21 -282 -21 -282 21.5 -230 c 128,-1,13
 64 -178 64 -178 78 -89 c 2,14,-1
 253 1082 l 1,15,-1
 450 1082 l 1,0,-1
EndSplineSet
Validated: 1
EndChar

StartChar: circumflex
Encoding: 710 710 338
Width: 979
GlyphClass: 1
Flags: W
LayerCount: 2
Fore
SplineSet
897 1277 m 1,0,-1
 893 1252 l 1,1,-1
 732 1252 l 1,2,-1
 607 1400 l 1,3,-1
 439 1252 l 1,4,-1
 279 1252 l 1,5,-1
 283 1278 l 1,6,-1
 564 1515 l 1,7,-1
 684 1515 l 1,8,-1
 897 1277 l 1,0,-1
EndSplineSet
Validated: 1
EndChar

StartChar: caron
Encoding: 711 711 339
Width: 922
GlyphClass: 1
Flags: W
LayerCount: 2
Fore
SplineSet
578 1367 m 1,0,-1
 747 1515 l 1,1,-1
 917 1515 l 1,2,-1
 915 1497 l 1,3,-1
 621 1252 l 1,4,-1
 502 1252 l 1,5,-1
 284 1495 l 1,6,-1
 287 1515 l 1,7,-1
 453 1515 l 1,8,-1
 578 1367 l 1,0,-1
EndSplineSet
Validated: 1
EndChar

StartChar: breve
Encoding: 728 728 340
Width: 876
GlyphClass: 1
Flags: W
LayerCount: 2
Fore
SplineSet
850 1456 m 1,0,-1
 852 1450 l 1,1,2
 840 1330 840 1330 749.5 1259 c 128,-1,3
 659 1188 659 1188 520 1188 c 0,4,5
 387 1188 387 1188 314 1262 c 128,-1,6
 241 1336 241 1336 262 1450 c 1,7,-1
 265 1456 l 1,8,-1
 416 1456 l 1,9,10
 406 1388 406 1388 434.5 1348 c 128,-1,11
 463 1308 463 1308 537 1308 c 0,12,13
 606 1308 606 1308 648.5 1350 c 128,-1,14
 691 1392 691 1392 700 1456 c 1,15,-1
 850 1456 l 1,0,-1
EndSplineSet
Validated: 33
EndChar

StartChar: dotaccent
Encoding: 729 729 341
Width: 556
GlyphClass: 1
Flags: W
LayerCount: 2
Fore
SplineSet
486 1255 m 1,0,-1
 268 1255 l 1,1,-1
 298 1456 l 1,2,-1
 516 1456 l 1,3,-1
 486 1255 l 1,0,-1
EndSplineSet
Validated: 1
EndChar

StartChar: ring
Encoding: 730 730 342
Width: 696
GlyphClass: 1
Flags: W
LayerCount: 2
Fore
SplineSet
281 1308 m 0,0,1
 292 1383 292 1383 350.5 1430 c 128,-1,2
 409 1477 409 1477 483 1477 c 0,3,4
 552 1477 552 1477 596 1428 c 128,-1,5
 640 1379 640 1379 630 1308 c 0,6,7
 619 1232 619 1232 562.5 1188 c 128,-1,8
 506 1144 506 1144 433 1144 c 0,9,10
 362 1144 362 1144 316 1190 c 128,-1,11
 270 1236 270 1236 281 1308 c 0,0,1
381 1308 m 256,12,13
 376 1276 376 1276 395 1255 c 128,-1,14
 414 1234 414 1234 446 1234 c 0,15,16
 475 1234 475 1234 500 1255 c 128,-1,17
 525 1276 525 1276 530 1308 c 0,18,19
 535 1342 535 1342 517.5 1363.5 c 128,-1,20
 500 1385 500 1385 469 1385 c 0,21,22
 439 1385 439 1385 412.5 1362.5 c 128,-1,23
 386 1340 386 1340 381 1308 c 256,12,13
EndSplineSet
Validated: 33
EndChar

StartChar: ogonek
Encoding: 731 731 343
Width: 562
GlyphClass: 1
Flags: W
LayerCount: 2
Fore
SplineSet
308 0 m 1,0,1
 230 -52 230 -52 183.5 -99.5 c 128,-1,2
 137 -147 137 -147 129 -201 c 0,3,4
 121 -245 121 -245 140 -268 c 128,-1,5
 159 -291 159 -291 211 -291 c 0,6,7
 237 -291 237 -291 263 -283 c 128,-1,8
 289 -275 289 -275 314 -265 c 1,9,-1
 329 -388 l 1,10,11
 290 -407 290 -407 244.5 -419.5 c 128,-1,12
 199 -432 199 -432 139 -432 c 0,13,14
 48 -432 48 -432 -6 -376.5 c 128,-1,15
 -60 -321 -60 -321 -45 -223 c 0,16,17
 -33 -140 -33 -140 37.5 -70 c 128,-1,18
 108 0 108 0 245 57 c 1,19,-1
 308 0 l 1,0,1
EndSplineSet
Validated: 33
EndChar

StartChar: tilde
Encoding: 732 732 344
Width: 979
GlyphClass: 1
Flags: W
LayerCount: 2
Fore
SplineSet
963 1491 m 1,0,1
 949 1394 949 1394 881 1330.5 c 128,-1,2
 813 1267 813 1267 722 1267 c 0,3,4
 655 1267 655 1267 583 1313.5 c 128,-1,5
 511 1360 511 1360 459 1360 c 0,6,7
 418 1360 418 1360 383.5 1327 c 128,-1,8
 349 1294 349 1294 343 1249 c 1,9,-1
 239 1275 l 1,10,11
 251 1371 251 1371 319.5 1438 c 128,-1,12
 388 1505 388 1505 480 1505 c 0,13,14
 532 1505 532 1505 611 1458 c 128,-1,15
 690 1411 690 1411 743 1411 c 0,16,17
 782 1411 782 1411 817 1443.5 c 128,-1,18
 852 1476 852 1476 859 1523 c 1,19,-1
 963 1491 l 1,0,1
EndSplineSet
Validated: 1
EndChar

StartChar: hungarumlaut
Encoding: 733 733 345
Width: 762
GlyphClass: 1
Flags: W
LayerCount: 2
Fore
SplineSet
758 1518 m 1,0,-1
 987 1518 l 1,1,-1
 989 1512 l 1,2,-1
 650 1252 l 1,3,-1
 480 1252 l 1,4,-1
 478 1258 l 1,5,-1
 758 1518 l 1,0,-1
432 1518 m 1,6,-1
 642 1518 l 1,7,-1
 644 1512 l 1,8,-1
 365 1252 l 1,9,-1
 215 1252 l 1,10,-1
 213 1257 l 1,11,-1
 432 1518 l 1,6,-1
EndSplineSet
Validated: 1
EndChar

StartChar: uni02F3
Encoding: 755 755 346
Width: 672
GlyphClass: 1
Flags: W
LayerCount: 2
Fore
SplineSet
67 -234 m 0,0,1
 77 -167 77 -167 128 -125.5 c 128,-1,2
 179 -84 179 -84 246 -84 c 0,3,4
 307 -84 307 -84 346.5 -127 c 128,-1,5
 386 -170 386 -170 377 -234 c 0,6,7
 366 -300 366 -300 316.5 -339.5 c 128,-1,8
 267 -379 267 -379 202 -379 c 0,9,10
 138 -379 138 -379 97.5 -338 c 128,-1,11
 57 -297 57 -297 67 -234 c 0,0,1
156 -234 m 0,12,13
 151 -261 151 -261 168 -279.5 c 128,-1,14
 185 -298 185 -298 214 -298 c 0,15,16
 239 -298 239 -298 261 -279.5 c 128,-1,17
 283 -261 283 -261 288 -234 c 0,18,19
 292 -203 292 -203 276 -184 c 128,-1,20
 260 -165 260 -165 234 -165 c 0,21,22
 207 -165 207 -165 183.5 -185 c 128,-1,23
 160 -205 160 -205 156 -234 c 0,12,13
EndSplineSet
Validated: 33
EndChar

StartChar: hook
Encoding: 777 777 350
Width: 0
GlyphClass: 1
Flags: W
LayerCount: 2
Fore
SplineSet
-551 1242 m 1,0,-1
 -529 1396 l 1,1,2
 -450 1400 -450 1400 -416 1415 c 128,-1,3
 -382 1430 -382 1430 -377 1469 c 0,4,5
 -370 1507 -370 1507 -412.5 1526.5 c 128,-1,6
 -455 1546 -455 1546 -525 1546 c 1,7,-1
 -502 1654 l 1,8,9
 -353 1654 -353 1654 -282 1604.5 c 128,-1,10
 -211 1555 -211 1555 -225 1465 c 0,11,12
 -235 1395 -235 1395 -283.5 1358.5 c 128,-1,13
 -332 1322 -332 1322 -399 1313 c 1,14,-1
 -411 1242 l 1,15,-1
 -551 1242 l 1,0,-1
EndSplineSet
Validated: 33
EndChar

StartChar: uni030F
Encoding: 783 783 351
Width: 0
GlyphClass: 1
Flags: W
LayerCount: 2
Fore
SplineSet
-394 1252 m 1,0,-1
 -572 1252 l 1,1,-1
 -832 1512 l 1,2,-1
 -830 1518 l 1,3,-1
 -600 1518 l 1,4,-1
 -394 1252 l 1,0,-1
-130 1252 m 1,5,-1
 -287 1252 l 1,6,-1
 -493 1518 l 1,7,-1
 -274 1518 l 1,8,-1
 -130 1252 l 1,5,-1
EndSplineSet
Validated: 1
EndChar

StartChar: dotbelow
Encoding: 803 803 352
Width: 0
GlyphClass: 1
Flags: W
LayerCount: 2
Fore
SplineSet
-621 -337 m 1,0,-1
 -839 -337 l 1,1,-1
 -809 -137 l 1,2,-1
 -591 -137 l 1,3,-1
 -621 -337 l 1,0,-1
EndSplineSet
Validated: 1
EndChar

StartChar: tonos
Encoding: 900 900 353
Width: 526
GlyphClass: 1
Flags: W
LayerCount: 2
Fore
SplineSet
387 1543 m 1,0,-1
 595 1543 l 1,1,-1
 400 1272 l 1,2,-1
 317 1272 l 1,3,-1
 387 1543 l 1,0,-1
EndSplineSet
Validated: 1
EndChar

StartChar: dieresistonos
Encoding: 901 901 354
Width: 1045
GlyphClass: 1
Flags: W
LayerCount: 2
Fore
SplineSet
977 1256 m 1,0,-1
 778 1256 l 1,1,-1
 808 1456 l 1,2,-1
 1007 1456 l 1,3,-1
 977 1256 l 1,0,-1
467 1256 m 1,4,-1
 269 1256 l 1,5,-1
 299 1456 l 1,6,-1
 497 1456 l 1,7,-1
 467 1256 l 1,4,-1
677 1730 m 1,8,-1
 895 1730 l 1,9,-1
 728 1468 l 1,10,-1
 586 1468 l 1,11,-1
 677 1730 l 1,8,-1
EndSplineSet
Validated: 1
EndChar

StartChar: Gamma
Encoding: 915 915 366
Width: 1123
GlyphClass: 1
Flags: W
LayerCount: 2
Fore
SplineSet
1171 1301 m 1,0,-1
 475 1301 l 1,1,-1
 280 0 l 1,2,-1
 83 0 l 1,3,-1
 301 1456 l 1,4,-1
 1194 1456 l 1,5,-1
 1171 1301 l 1,0,-1
EndSplineSet
Validated: 1
EndChar

StartChar: Delta
Encoding: 916 916 367
AltUni2: 002206.ffffffff.0 002206.ffffffff.0
Width: 1447
GlyphClass: 1
Flags: W
LayerCount: 2
Fore
SplineSet
785 1456 m 1,0,-1
 954 1456 l 1,1,-1
 1312 0 l 1,2,-1
 -50 0 l 1,3,-1
 785 1456 l 1,0,-1
237 154 m 1,4,-1
 1075 154 l 1,5,-1
 833 1204 l 1,6,-1
 827 1205 l 1,7,-1
 237 154 l 1,4,-1
EndSplineSet
Validated: 1
EndChar

StartChar: Theta
Encoding: 920 920 371
Width: 1396
GlyphClass: 1
Flags: W
LayerCount: 2
Fore
SplineSet
978 659 m 1,0,-1
 469 659 l 1,1,-1
 492 813 l 1,2,-1
 1001 813 l 1,3,-1
 978 659 l 1,0,-1
1292 598 m 2,4,5
 1249 320 1249 320 1060 149.5 c 128,-1,6
 871 -21 871 -21 604 -21 c 0,7,8
 358 -21 358 -21 220.5 156.5 c 128,-1,9
 83 334 83 334 123 598 c 2,10,-1
 162 857 l 2,11,12
 203 1134 203 1134 387 1305.5 c 128,-1,13
 571 1477 571 1477 829 1477 c 0,14,15
 1082 1477 1082 1477 1226 1298.5 c 128,-1,16
 1370 1120 1370 1120 1331 857 c 2,17,-1
 1292 598 l 2,4,5
1134 859 m 2,18,19
 1164 1066 1164 1066 1076 1190.5 c 128,-1,20
 988 1315 988 1315 804 1315 c 0,21,22
 639 1315 639 1315 513.5 1185.5 c 128,-1,23
 388 1056 388 1056 359 859 c 2,24,-1
 320 598 l 2,25,26
 288 389 288 389 371 264.5 c 128,-1,27
 454 140 454 140 628 140 c 0,28,29
 804 140 804 140 934 269 c 128,-1,30
 1064 398 1064 398 1095 598 c 2,31,-1
 1134 859 l 2,18,19
EndSplineSet
Validated: 33
EndChar

StartChar: Lambda
Encoding: 923 923 374
Width: 1345
GlyphClass: 1
Flags: W
LayerCount: 2
Fore
SplineSet
767 1170 m 1,0,-1
 761 1171 l 1,1,-1
 170 0 l 1,2,-1
 -31 0 l 1,3,-1
 721 1456 l 1,4,-1
 891 1456 l 1,5,-1
 1207 0 l 1,6,-1
 1006 0 l 1,7,-1
 767 1170 l 1,0,-1
EndSplineSet
Validated: 1
EndChar

StartChar: Xi
Encoding: 926 926 377
Width: 1173
GlyphClass: 1
Flags: W
LayerCount: 2
Fore
SplineSet
66 154 m 1,0,-1
 1003 154 l 1,1,-1
 980 0 l 1,2,-1
 43 0 l 1,3,-1
 66 154 l 1,0,-1
251 833 m 1,4,-1
 1012 833 l 1,5,-1
 989 678 l 1,6,-1
 228 678 l 1,7,-1
 251 833 l 1,4,-1
262 1456 m 1,8,-1
 1186 1456 l 1,9,-1
 1163 1301 l 1,10,-1
 239 1301 l 1,11,-1
 262 1456 l 1,8,-1
EndSplineSet
Validated: 1
EndChar

StartChar: Pi
Encoding: 928 928 379
Width: 1439
GlyphClass: 1
Flags: W
LayerCount: 2
Fore
SplineSet
1191 0 m 1,0,-1
 994 0 l 1,1,-1
 1189 1301 l 1,2,-1
 480 1301 l 1,3,-1
 285 0 l 1,4,-1
 88 0 l 1,5,-1
 306 1456 l 1,6,-1
 1409 1456 l 1,7,-1
 1191 0 l 1,0,-1
EndSplineSet
Validated: 1
EndChar

StartChar: Sigma
Encoding: 931 931 381
Width: 1173
GlyphClass: 1
Flags: W
LayerCount: 2
Fore
SplineSet
785 715 m 1,0,-1
 257 161 l 1,1,-1
 260 155 l 1,2,-1
 1039 155 l 1,3,-1
 1016 0 l 1,4,-1
 -10 0 l 1,5,-1
 12 147 l 1,6,-1
 579 728 l 1,7,-1
 186 1309 l 1,8,-1
 208 1456 l 1,9,-1
 1184 1456 l 1,10,-1
 1161 1301 l 1,11,-1
 423 1301 l 1,12,-1
 789 739 l 1,13,-1
 785 715 l 1,0,-1
EndSplineSet
Validated: 1
EndChar

StartChar: Phi
Encoding: 934 934 384
Width: 1439
GlyphClass: 1
Flags: W
LayerCount: 2
Fore
SplineSet
924 1229 m 1,0,1
 1145 1224 1145 1224 1281 1081.5 c 128,-1,2
 1417 939 1417 939 1385 723 c 0,3,4
 1350 494 1350 494 1177.5 355.5 c 128,-1,5
 1005 217 1005 217 772 213 c 1,6,-1
 740 0 l 1,7,-1
 543 0 l 1,8,-1
 575 213 l 1,9,10
 352 216 352 216 215.5 359.5 c 128,-1,11
 79 503 79 503 112 721 c 0,12,13
 145 949 145 949 318.5 1087 c 128,-1,14
 492 1225 492 1225 727 1229 c 1,15,-1
 761 1456 l 1,16,-1
 958 1456 l 1,17,-1
 924 1229 l 1,0,1
307 721 m 0,18,19
 281 553 281 553 355.5 462.5 c 128,-1,20
 430 372 430 372 593 374 c 1,21,-1
 599 375 l 1,22,-1
 703 1066 l 1,23,-1
 697 1069 l 1,24,25
 543 1070 543 1070 436.5 974.5 c 128,-1,26
 330 879 330 879 307 721 c 0,18,19
1189 723 m 0,27,28
 1213 889 1213 889 1139.5 979.5 c 128,-1,29
 1066 1070 1066 1070 906 1070 c 1,30,-1
 900 1069 l 1,31,-1
 796 377 l 1,32,-1
 802 374 l 1,33,34
 953 373 953 373 1058.5 468.5 c 128,-1,35
 1164 564 1164 564 1189 723 c 0,27,28
EndSplineSet
Validated: 33
EndChar

StartChar: Psi
Encoding: 936 936 386
Width: 1416
GlyphClass: 1
Flags: W
LayerCount: 2
Fore
SplineSet
779 487 m 1,0,-1
 785 484 l 1,1,2
 929 504 929 504 1033 610 c 128,-1,3
 1137 716 1137 716 1163 885 c 2,4,-1
 1248 1456 l 1,5,-1
 1445 1456 l 1,6,-1
 1360 885 l 2,7,8
 1321 630 1321 630 1158 485.5 c 128,-1,9
 995 341 995 341 755 319 c 1,10,-1
 707 0 l 1,11,-1
 509 0 l 1,12,-1
 557 320 l 1,13,14
 340 346 340 346 221.5 495 c 128,-1,15
 103 644 103 644 140 885 c 2,16,-1
 225 1456 l 1,17,-1
 421 1456 l 1,18,-1
 336 885 l 2,19,20
 309 708 309 708 375 605 c 128,-1,21
 441 502 441 502 575 484 c 1,22,-1
 581 485 l 1,23,-1
 727 1456 l 1,24,-1
 925 1456 l 1,25,-1
 779 487 l 1,0,-1
EndSplineSet
Validated: 33
EndChar

StartChar: Omega
Encoding: 937 937 387
AltUni2: 002126.ffffffff.0 002126.ffffffff.0
Width: 1366
GlyphClass: 1
Flags: W
LayerCount: 2
Fore
SplineSet
663 54 m 1,0,-1
 678 154 l 1,1,-1
 679 159 l 1,2,3
 824 184 824 184 923.5 327.5 c 128,-1,4
 1023 471 1023 471 1061 722 c 2,5,-1
 1079 840 l 2,6,7
 1115 1082 1115 1082 1037.5 1202 c 128,-1,8
 960 1322 960 1322 788 1322 c 0,9,10
 625 1322 625 1322 507 1196 c 128,-1,11
 389 1070 389 1070 355 840 c 2,12,-1
 337 722 l 2,13,14
 298 461 298 461 357 322 c 128,-1,15
 416 183 416 183 557 159 c 1,16,-1
 556 154 l 1,17,-1
 541 54 l 1,18,-1
 533 0 l 1,19,-1
 38 0 l 1,20,-1
 61 154 l 1,21,-1
 314 154 l 1,22,23
 208 247 208 247 161.5 401.5 c 128,-1,24
 115 556 115 556 140 722 c 2,25,-1
 158 838 l 2,26,27
 201 1132 201 1132 380.5 1304.5 c 128,-1,28
 560 1477 560 1477 812 1477 c 0,29,30
 1051 1477 1051 1477 1184.5 1298 c 128,-1,31
 1318 1119 1318 1119 1276 838 c 2,32,-1
 1258 722 l 2,33,34
 1232 549 1232 549 1141.5 397 c 128,-1,35
 1051 245 1051 245 920 154 c 1,36,-1
 1175 154 l 1,37,-1
 1152 0 l 1,38,-1
 655 0 l 1,39,-1
 663 54 l 1,0,-1
EndSplineSet
Validated: 33
EndChar

StartChar: alpha
Encoding: 945 945 395
Width: 1158
GlyphClass: 1
Flags: W
LayerCount: 2
Fore
SplineSet
1083 1081 m 1,0,-1
 962 276 l 2,1,2
 951 201 951 201 967 174.5 c 128,-1,3
 983 148 983 148 1019 148 c 0,4,5
 1033 148 1033 148 1047 149.5 c 128,-1,6
 1061 151 1061 151 1072 155 c 1,7,-1
 1074 13 l 1,8,9
 1042 -7 1042 -7 1011 -14 c 128,-1,10
 980 -21 980 -21 943 -21 c 0,11,12
 872 -21 872 -21 826 11 c 128,-1,13
 780 43 780 43 765 113 c 1,14,15
 701 46 701 46 619 12.5 c 128,-1,16
 537 -21 537 -21 437 -21 c 0,17,18
 246 -21 246 -21 152 124 c 128,-1,19
 58 269 58 269 93 500 c 2,20,-1
 96 521 l 2,21,22
 136 792 136 792 270 947 c 128,-1,23
 404 1102 404 1102 607 1102 c 0,24,25
 705 1102 705 1102 777 1064.5 c 128,-1,26
 849 1027 849 1027 895 957 c 1,27,-1
 966 1081 l 1,28,-1
 1083 1081 l 1,0,-1
290 500 m 2,29,30
 264 330 264 330 316 231.5 c 128,-1,31
 368 133 368 133 510 133 c 0,32,33
 588 133 588 133 651.5 169.5 c 128,-1,34
 715 206 715 206 764 271 c 0,35,36
 764 272 764 272 764.5 273.5 c 128,-1,37
 765 275 765 275 765 276 c 2,38,-1
 846 817 l 1,39,40
 817 877 817 877 764.5 912 c 128,-1,41
 712 947 712 947 634 947 c 0,42,43
 498 947 498 947 409 826 c 128,-1,44
 320 705 320 705 293 521 c 2,45,-1
 290 500 l 2,29,30
EndSplineSet
Validated: 33
EndChar

StartChar: beta
Encoding: 946 946 396
Width: 1213
GlyphClass: 1
Flags: W
LayerCount: 2
Fore
SplineSet
749 1477 m 0,0,1
 936 1477 936 1477 1041 1366 c 128,-1,2
 1146 1255 1146 1255 1120 1083 c 0,3,4
 1105 989 1105 989 1045 913 c 128,-1,5
 985 837 985 837 891 792 c 1,6,7
 1000 746 1000 746 1052.5 648.5 c 128,-1,8
 1105 551 1105 551 1087 425 c 0,9,10
 1054 208 1054 208 911.5 93.5 c 128,-1,11
 769 -21 769 -21 565 -21 c 0,12,13
 485 -21 485 -21 411 2 c 128,-1,14
 337 25 337 25 285 72 c 1,15,-1
 217 -383 l 1,16,-1
 20 -383 l 1,17,-1
 238 1073 l 2,18,19
 263 1245 263 1245 413 1361 c 128,-1,20
 563 1477 563 1477 749 1477 c 0,0,1
570 860 m 1,21,-1
 652 860 l 2,22,23
 769 860 769 860 838.5 921.5 c 128,-1,24
 908 983 908 983 924 1087 c 0,25,26
 939 1185 939 1185 887 1253.5 c 128,-1,27
 835 1322 835 1322 725 1322 c 0,28,29
 622 1322 622 1322 536 1249.5 c 128,-1,30
 450 1177 450 1177 435 1073 c 2,31,-1
 310 239 l 1,32,33
 346 189 346 189 412.5 161 c 128,-1,34
 479 133 479 133 568 133 c 0,35,36
 692 133 692 133 781 214 c 128,-1,37
 870 295 870 295 889 421 c 0,38,39
 906 536 906 536 854 620.5 c 128,-1,40
 802 705 802 705 690 705 c 2,41,-1
 547 705 l 1,42,-1
 555 758 l 1,43,-1
 565 825 l 1,44,-1
 570 860 l 1,21,-1
EndSplineSet
Validated: 33
EndChar

StartChar: gamma
Encoding: 947 947 397
Width: 1031
GlyphClass: 1
Flags: W
LayerCount: 2
Fore
SplineSet
877 1082 m 1,0,-1
 1078 1082 l 1,1,-1
 550 62 l 1,2,-1
 478 -417 l 1,3,-1
 281 -417 l 1,4,-1
 354 67 l 1,5,-1
 128 1082 l 1,6,-1
 330 1082 l 1,7,-1
 472 319 l 1,8,-1
 478 243 l 1,9,-1
 484 242 l 1,10,-1
 514 319 l 1,11,-1
 877 1082 l 1,0,-1
EndSplineSet
Validated: 1
EndChar

StartChar: delta
Encoding: 948 948 398
Width: 1164
GlyphClass: 1
Flags: W
LayerCount: 2
Fore
SplineSet
1076 1456 m 1,0,-1
 1054 1305 l 1,1,-1
 599 1305 l 1,2,-1
 597 1299 l 1,3,-1
 926 1022 l 2,4,5
 1015 947 1015 947 1053 824 c 128,-1,6
 1091 701 1091 701 1069 551 c 1,7,-1
 1065 529 l 1,8,9
 1027 278 1027 278 876 128.5 c 128,-1,10
 725 -21 725 -21 499 -21 c 0,11,12
 283 -21 283 -21 171.5 135 c 128,-1,13
 60 291 60 291 96 529 c 1,14,-1
 100 551 l 1,15,16
 133 774 133 774 259 919.5 c 128,-1,17
 385 1065 385 1065 577 1095 c 1,18,-1
 586 1096 l 1,19,-1
 588 1102 l 1,20,-1
 326 1338 l 1,21,-1
 343 1456 l 1,22,-1
 1076 1456 l 1,0,-1
642 947 m 0,23,24
 506 947 506 947 413.5 832.5 c 128,-1,25
 321 718 321 718 297 551 c 1,26,-1
 293 529 l 1,27,28
 266 351 266 351 322 242 c 128,-1,29
 378 133 378 133 522 133 c 0,30,31
 657 133 657 133 749.5 246.5 c 128,-1,32
 842 360 842 360 868 529 c 1,33,-1
 872 551 l 1,34,35
 898 727 898 727 841.5 837 c 128,-1,36
 785 947 785 947 642 947 c 0,23,24
EndSplineSet
Validated: 33
EndChar

StartChar: epsilon
Encoding: 949 949 399
Width: 1103
GlyphClass: 1
Flags: W
LayerCount: 2
Fore
SplineSet
64 305 m 0,0,1
 78 400 78 400 139 463.5 c 128,-1,2
 200 527 200 527 304 558 c 1,3,4
 224 594 224 594 184 654.5 c 128,-1,5
 144 715 144 715 155 786 c 0,6,7
 178 942 178 942 305 1021 c 128,-1,8
 432 1100 432 1100 636 1100 c 0,9,10
 812 1100 812 1100 927 1012 c 128,-1,11
 1042 924 1042 924 1016 786 c 1,12,-1
 1014 780 l 1,13,-1
 827 780 l 1,14,15
 838 853 838 853 776 900.5 c 128,-1,16
 714 948 714 948 613 948 c 0,17,18
 502 948 502 948 431.5 899.5 c 128,-1,19
 361 851 361 851 352 786 c 0,20,21
 340 709 340 709 387.5 668 c 128,-1,22
 435 627 435 627 552 627 c 2,23,-1
 761 627 l 1,24,-1
 755 587 l 1,25,-1
 739 477 l 1,26,-1
 530 477 l 2,27,28
 413 477 413 477 343.5 434 c 128,-1,29
 274 391 274 391 262 305 c 0,30,31
 250 229 250 229 311 180.5 c 128,-1,32
 372 132 372 132 491 132 c 0,33,34
 598 132 598 132 681 188.5 c 128,-1,35
 764 245 764 245 776 320 c 1,36,-1
 962 320 l 1,37,-1
 963 314 l 1,38,39
 943 145 943 145 799.5 63 c 128,-1,40
 656 -19 656 -19 468 -19 c 0,41,42
 274 -19 274 -19 157.5 68 c 128,-1,43
 41 155 41 155 64 305 c 0,0,1
EndSplineSet
Validated: 33
EndChar

StartChar: zeta
Encoding: 950 950 400
Width: 1071
GlyphClass: 1
Flags: W
LayerCount: 2
Fore
SplineSet
1108 1456 m 1,0,-1
 1092 1344 l 1,1,-1
 685 912 l 1,2,3
 533 760 533 760 459 646 c 128,-1,4
 385 532 385 532 364 387 c 0,5,6
 346 266 346 266 389 210 c 128,-1,7
 432 154 432 154 536 154 c 2,8,-1
 568 154 l 2,9,10
 722 154 722 154 804.5 90 c 128,-1,11
 887 26 887 26 869 -101 c 0,12,13
 850 -212 850 -212 760 -294.5 c 128,-1,14
 670 -377 670 -377 554 -424 c 1,15,-1
 492 -297 l 1,16,17
 562 -266 562 -266 615.5 -223 c 128,-1,18
 669 -180 669 -180 681 -110 c 0,19,20
 688 -56 688 -56 651.5 -28 c 128,-1,21
 615 0 615 0 525 0 c 2,22,-1
 473 0 l 2,23,24
 301 0 301 0 221 108 c 128,-1,25
 141 216 141 216 166 382 c 0,26,27
 184 506 184 506 277 663.5 c 128,-1,28
 370 821 370 821 541 992 c 2,29,-1
 854 1295 l 1,30,-1
 852 1301 l 1,31,-1
 230 1301 l 1,32,-1
 253 1456 l 1,33,-1
 1108 1456 l 1,0,-1
EndSplineSet
Validated: 33
EndChar

StartChar: eta
Encoding: 951 951 401
Width: 1164
GlyphClass: 1
Flags: W
LayerCount: 2
Fore
SplineSet
393 938 m 1,0,1
 458 1017 458 1017 544.5 1059.5 c 128,-1,2
 631 1102 631 1102 732 1102 c 0,3,4
 903 1102 903 1102 985.5 1003.5 c 128,-1,5
 1068 905 1068 905 1035 683 c 2,6,-1
 871 -415 l 1,7,-1
 674 -415 l 1,8,-1
 838 679 l 2,9,10
 860 828 860 828 813 887.5 c 128,-1,11
 766 947 766 947 648 947 c 0,12,13
 565 947 565 947 497.5 911.5 c 128,-1,14
 430 876 430 876 382 814 c 1,15,-1
 260 0 l 1,16,-1
 63 0 l 1,17,-1
 225 1082 l 1,18,-1
 401 1082 l 1,19,-1
 393 938 l 1,0,1
EndSplineSet
Validated: 33
EndChar

StartChar: theta
Encoding: 952 952 402
Width: 1165
GlyphClass: 1
Flags: W
LayerCount: 2
Fore
SplineSet
1043 514 m 2,0,1
 1004 258 1004 258 859 118.5 c 128,-1,2
 714 -21 714 -21 500 -21 c 0,3,4
 297 -21 297 -21 188 124.5 c 128,-1,5
 79 270 79 270 116 514 c 2,6,-1
 180 942 l 2,7,8
 218 1196 218 1196 364 1336.5 c 128,-1,9
 510 1477 510 1477 723 1477 c 0,10,11
 927 1477 927 1477 1035 1331 c 128,-1,12
 1143 1185 1143 1185 1107 942 c 2,13,-1
 1043 514 l 2,0,1
356 803 m 1,14,-1
 889 803 l 1,15,-1
 916 983 l 2,16,17
 940 1146 940 1146 884 1234 c 128,-1,18
 828 1322 828 1322 699 1322 c 0,19,20
 578 1322 578 1322 492.5 1230 c 128,-1,21
 407 1138 407 1138 383 983 c 2,22,-1
 356 803 l 1,14,-1
866 648 m 1,23,-1
 333 648 l 1,24,-1
 307 474 l 2,25,26
 282 311 282 311 338.5 222 c 128,-1,27
 395 133 395 133 523 133 c 0,28,29
 645 133 645 133 730.5 225.5 c 128,-1,30
 816 318 816 318 840 474 c 2,31,-1
 866 648 l 1,23,-1
EndSplineSet
Validated: 33
EndChar

StartChar: iota
Encoding: 953 953 403
Width: 672
GlyphClass: 1
Flags: W
LayerCount: 2
Fore
SplineSet
476 1081 m 1,0,-1
 354 268 l 2,1,2
 343 192 343 192 365 165.5 c 128,-1,3
 387 139 387 139 433 139 c 0,4,5
 456 139 456 139 482.5 146.5 c 128,-1,6
 509 154 509 154 528 165 c 1,7,-1
 552 32 l 1,8,9
 502 1 502 1 456 -10 c 128,-1,10
 410 -21 410 -21 357 -21 c 0,11,12
 242 -21 242 -21 188.5 51 c 128,-1,13
 135 123 135 123 159 279 c 2,14,-1
 279 1081 l 1,15,-1
 476 1081 l 1,0,-1
EndSplineSet
Validated: 33
EndChar

StartChar: lambda
Encoding: 955 955 405
Width: 1164
GlyphClass: 1
Flags: W
LayerCount: 2
Fore
SplineSet
195 0 m 1,0,-1
 -24 0 l 1,1,-1
 521 1029 l 1,2,-1
 488 1173 l 2,3,4
 468 1257 468 1257 432.5 1310 c 128,-1,5
 397 1363 397 1363 337 1363 c 0,6,7
 327 1363 327 1363 300 1360.5 c 128,-1,8
 273 1358 273 1358 269 1358 c 1,9,-1
 290 1503 l 1,10,11
 311 1508 311 1508 343.5 1513 c 128,-1,12
 376 1518 376 1518 400 1518 c 0,13,14
 523 1518 523 1518 590.5 1435 c 128,-1,15
 658 1352 658 1352 681 1248 c 2,16,-1
 899 302 l 1,17,18
 911 231 911 231 940 189 c 128,-1,19
 969 147 969 147 1013 147 c 0,20,21
 1027 147 1027 147 1032 147.5 c 128,-1,22
 1037 148 1037 148 1061 152 c 1,23,-1
 1035 -2 l 1,24,25
 1024 -7 1024 -7 1004 -12 c 128,-1,26
 984 -17 984 -17 973 -17 c 0,27,28
 860 -17 860 -17 795.5 49.5 c 128,-1,29
 731 116 731 116 700 253 c 2,30,-1
 577 782 l 1,31,-1
 571 783 l 1,32,-1
 526 670 l 1,33,-1
 195 0 l 1,0,-1
EndSplineSet
Validated: 1
EndChar

StartChar: xi
Encoding: 958 958 408
Width: 1043
GlyphClass: 1
Flags: W
LayerCount: 2
Fore
SplineSet
1060 1456 m 1,0,-1
 1037 1301 l 1,1,-1
 742 1301 l 1,2,3
 622 1293 622 1293 547 1227 c 128,-1,4
 472 1161 472 1161 458 1067 c 0,5,6
 443 970 443 970 507 919 c 128,-1,7
 571 868 571 868 727 868 c 2,8,-1
 870 868 l 1,9,-1
 853 750 l 1,10,-1
 852 750 l 1,11,-1
 847 713 l 1,12,-1
 704 713 l 2,13,14
 524 713 524 713 411 634 c 128,-1,15
 298 555 298 555 276 404 c 0,16,17
 257 280 257 280 325.5 207 c 128,-1,18
 394 134 394 134 536 134 c 2,19,-1
 596 134 l 2,20,21
 751 134 751 134 833 69.5 c 128,-1,22
 915 5 915 5 897 -122 c 0,23,24
 878 -233 878 -233 788 -315 c 128,-1,25
 698 -397 698 -397 582 -444 c 1,26,-1
 522 -317 l 1,27,28
 592 -286 592 -286 645 -243.5 c 128,-1,29
 698 -201 698 -201 709 -131 c 0,30,31
 717 -77 717 -77 686.5 -48 c 128,-1,32
 656 -19 656 -19 581 -19 c 2,33,-1
 513 -19 l 2,34,35
 298 -19 298 -19 173.5 95.5 c 128,-1,36
 49 210 49 210 79 408 c 0,37,38
 101 560 101 560 196 657 c 128,-1,39
 291 754 291 754 450 796 c 1,40,41
 349 837 349 837 298 907.5 c 128,-1,42
 247 978 247 978 260 1063 c 0,43,44
 271 1142 271 1142 309.5 1202 c 128,-1,45
 348 1262 348 1262 410 1301 c 1,46,-1
 201 1301 l 1,47,-1
 224 1456 l 1,48,-1
 1060 1456 l 1,0,-1
EndSplineSet
Validated: 33
EndChar

StartChar: pi
Encoding: 960 960 410
Width: 1189
GlyphClass: 1
Flags: W
LayerCount: 2
Fore
SplineSet
1177 926 m 1,0,-1
 1053 926 l 1,1,-1
 955 268 l 2,2,3
 944 192 944 192 966 165.5 c 128,-1,4
 988 139 988 139 1034 139 c 0,5,6
 1057 139 1057 139 1083.5 146.5 c 128,-1,7
 1110 154 1110 154 1129 165 c 1,8,-1
 1153 32 l 1,9,10
 1103 1 1103 1 1057 -10 c 128,-1,11
 1011 -21 1011 -21 958 -21 c 0,12,13
 843 -21 843 -21 789.5 51 c 128,-1,14
 736 123 736 123 760 279 c 2,15,-1
 857 926 l 1,16,-1
 489 926 l 1,17,-1
 351 0 l 1,18,-1
 154 0 l 1,19,-1
 292 926 l 1,20,-1
 138 926 l 1,21,-1
 161 1082 l 1,22,-1
 1200 1082 l 1,23,-1
 1177 926 l 1,0,-1
EndSplineSet
Validated: 33
EndChar

StartChar: rho
Encoding: 961 961 411
Width: 1164
GlyphClass: 1
Flags: W
LayerCount: 2
Fore
SplineSet
1055 500 m 2,0,1
 1018 256 1018 256 889 117.5 c 128,-1,2
 760 -21 760 -21 561 -21 c 0,3,4
 466 -21 466 -21 394 10.5 c 128,-1,5
 322 42 322 42 275 103 c 1,6,-1
 198 -416 l 1,7,-1
 1 -416 l 1,8,-1
 149 576 l 1,9,-1
 150 576 l 1,10,-1
 150 577 l 1,11,12
 188 834 188 834 335 968 c 128,-1,13
 482 1102 482 1102 677 1102 c 0,14,15
 895 1102 895 1102 995.5 941.5 c 128,-1,16
 1096 781 1096 781 1058 521 c 2,17,-1
 1055 500 l 2,0,1
861 521 m 2,18,19
 890 716 890 716 842 831.5 c 128,-1,20
 794 947 794 947 654 947 c 0,21,22
 536 947 536 947 451.5 830 c 128,-1,23
 367 713 367 713 346 576 c 2,24,-1
 301 275 l 1,25,26
 329 207 329 207 382.5 170 c 128,-1,27
 436 133 436 133 524 133 c 0,28,29
 658 133 658 133 746 236.5 c 128,-1,30
 834 340 834 340 858 500 c 2,31,-1
 861 521 l 2,18,19
EndSplineSet
Validated: 33
EndChar

StartChar: sigma1
Encoding: 962 962 412
Width: 1102
GlyphClass: 1
Flags: W
LayerCount: 2
Fore
SplineSet
658 1102 m 0,0,1
 839 1102 839 1102 943 996.5 c 128,-1,2
 1047 891 1047 891 1016 714 c 1,3,-1
 1014 709 l 1,4,-1
 835 709 l 1,5,6
 851 816 851 816 800.5 881.5 c 128,-1,7
 750 947 750 947 635 947 c 0,8,9
 503 947 503 947 412.5 830.5 c 128,-1,10
 322 714 322 714 299 562 c 2,11,-1
 293 520 l 2,12,13
 270 372 270 372 337 274 c 128,-1,14
 404 176 404 176 568 152 c 0,15,16
 744 126 744 126 820 73 c 128,-1,17
 896 20 896 20 878 -103 c 0,18,19
 859 -214 859 -214 769 -296 c 128,-1,20
 679 -378 679 -378 563 -425 c 1,21,-1
 501 -298 l 1,22,23
 571 -267 571 -267 624.5 -224.5 c 128,-1,24
 678 -182 678 -182 689 -112 c 0,25,26
 696 -62 696 -62 656.5 -37.5 c 128,-1,27
 617 -13 617 -13 523 0 c 0,28,29
 277 35 277 35 170 170 c 128,-1,30
 63 305 63 305 96 520 c 2,31,-1
 102 562 l 2,32,33
 137 797 137 797 286.5 949.5 c 128,-1,34
 436 1102 436 1102 658 1102 c 0,0,1
EndSplineSet
Validated: 33
EndChar

StartChar: sigma
Encoding: 963 963 413
Width: 1164
GlyphClass: 1
Flags: W
LayerCount: 2
Fore
SplineSet
1207 926 m 1,0,-1
 929 926 l 1,1,2
 1012 854 1012 854 1047 748 c 128,-1,3
 1082 642 1082 642 1063 512 c 2,4,-1
 1060 490 l 2,5,6
 1027 273 1027 273 874 126 c 128,-1,7
 721 -21 721 -21 499 -21 c 0,8,9
 283 -21 283 -21 171.5 135 c 128,-1,10
 60 291 60 291 96 529 c 1,11,-1
 100 551 l 1,12,13
 135 791 135 791 285.5 936 c 128,-1,14
 436 1081 436 1081 661 1082 c 2,15,-1
 1230 1082 l 1,16,-1
 1207 926 l 1,0,-1
293 529 m 1,17,18
 266 351 266 351 322 242 c 128,-1,19
 378 133 378 133 522 133 c 0,20,21
 657 133 657 133 749.5 246.5 c 128,-1,22
 842 360 842 360 868 529 c 1,23,-1
 872 551 l 1,24,25
 896 718 896 718 839 822 c 128,-1,26
 782 926 782 926 639 926 c 2,27,-1
 638 926 l 2,28,29
 503 925 503 925 411.5 817 c 128,-1,30
 320 709 320 709 297 551 c 1,31,-1
 293 529 l 1,17,18
EndSplineSet
Validated: 33
EndChar

StartChar: tau
Encoding: 964 964 414
Width: 1072
GlyphClass: 1
Flags: W
LayerCount: 2
Fore
SplineSet
1047 929 m 1,0,-1
 689 929 l 1,1,-1
 550 0 l 1,2,-1
 353 0 l 1,3,-1
 492 929 l 1,4,-1
 140 929 l 1,5,-1
 163 1082 l 1,6,-1
 1070 1082 l 1,7,-1
 1047 929 l 1,0,-1
EndSplineSet
Validated: 1
EndChar

StartChar: upsilon
Encoding: 965 965 415
Width: 1164
GlyphClass: 1
Flags: W
LayerCount: 2
Fore
SplineSet
420 1082 m 1,0,-1
 329 470 l 2,1,2
 301 288 301 288 357.5 210.5 c 128,-1,3
 414 133 414 133 533 133 c 0,4,5
 665 133 665 133 754 261.5 c 128,-1,6
 843 390 843 390 869 562 c 0,7,8
 885 689 885 689 871.5 818 c 128,-1,9
 858 947 858 947 823 1082 c 1,10,-1
 1029 1082 l 1,11,12
 1064 976 1064 976 1076.5 846 c 128,-1,13
 1089 716 1089 716 1066 562 c 0,14,15
 1026 299 1026 299 892.5 139 c 128,-1,16
 759 -21 759 -21 520 -21 c 0,17,18
 307 -21 307 -21 200.5 101.5 c 128,-1,19
 94 224 94 224 132 472 c 2,20,-1
 223 1082 l 1,21,-1
 420 1082 l 1,0,-1
EndSplineSet
Validated: 33
EndChar

StartChar: phi
Encoding: 966 966 416
Width: 1450
GlyphClass: 1
Flags: W
LayerCount: 2
Fore
SplineSet
896 1082 m 1,0,-1
 755 149 l 1,1,-1
 761 146 l 1,2,3
 935 167 935 167 1041.5 277 c 128,-1,4
 1148 387 1148 387 1169 524 c 0,5,6
 1190 687 1190 687 1113.5 806.5 c 128,-1,7
 1037 926 1037 926 873 926 c 1,8,-1
 895 1075 l 1,9,-1
 901 1076 l 1,10,11
 1117 1080 1117 1080 1259 919 c 128,-1,12
 1401 758 1401 758 1366 524 c 0,13,14
 1332 298 1332 298 1175.5 151.5 c 128,-1,15
 1019 5 1019 5 731 -17 c 1,16,-1
 662 -478 l 1,17,-1
 465 -478 l 1,18,-1
 534 -16 l 1,19,20
 274 11 274 11 163 173.5 c 128,-1,21
 52 336 52 336 88 564 c 0,22,23
 111 724 111 724 161 847.5 c 128,-1,24
 211 971 211 971 281 1082 c 1,25,-1
 487 1082 l 1,26,27
 409 946 409 946 357.5 818 c 128,-1,28
 306 690 306 690 285 564 c 0,29,30
 260 404 260 404 323.5 287 c 128,-1,31
 387 170 387 170 553 147 c 1,32,-1
 559 148 l 1,33,-1
 699 1082 l 1,34,-1
 896 1082 l 1,0,-1
EndSplineSet
Validated: 33
EndChar

StartChar: chi
Encoding: 967 967 417
Width: 1164
GlyphClass: 1
Flags: W
LayerCount: 2
Fore
SplineSet
287 1097 m 0,0,1
 410 1097 410 1097 477 1015 c 128,-1,2
 544 933 544 933 568 829 c 2,3,-1
 626 606 l 1,4,-1
 632 605 l 1,5,-1
 937 1082 l 1,6,-1
 1135 1082 l 1,7,-1
 688 374 l 1,8,-1
 818 -117 l 2,9,10
 841 -193 841 -193 865.5 -232 c 128,-1,11
 890 -271 890 -271 932 -271 c 0,12,13
 946 -271 946 -271 952 -270 c 128,-1,14
 958 -269 958 -269 979 -266 c 1,15,-1
 953 -422 l 1,16,17
 942 -428 942 -428 923 -432.5 c 128,-1,18
 904 -437 904 -437 891 -437 c 0,19,20
 779 -437 779 -437 717 -371 c 128,-1,21
 655 -305 655 -305 624 -165 c 1,22,-1
 543 135 l 1,23,-1
 537 136 l 1,24,-1
 189 -415 l 1,25,-1
 -20 -415 l 1,26,-1
 480 367 l 1,27,-1
 375 753 l 2,28,29
 355 836 355 836 319.5 889 c 128,-1,30
 284 942 284 942 224 942 c 0,31,32
 214 942 214 942 187 939.5 c 128,-1,33
 160 937 160 937 156 937 c 1,34,-1
 177 1082 l 1,35,36
 198 1087 198 1087 230.5 1092 c 128,-1,37
 263 1097 263 1097 287 1097 c 0,0,1
EndSplineSet
Validated: 1
EndChar

StartChar: psi
Encoding: 968 968 418
Width: 1440
GlyphClass: 1
Flags: W
LayerCount: 2
Fore
SplineSet
887 1081 m 1,0,-1
 747 151 l 1,1,-1
 753 148 l 1,2,3
 927 172 927 172 1034 293 c 128,-1,4
 1141 414 1141 414 1165 567 c 0,5,6
 1181 692 1181 692 1167.5 820.5 c 128,-1,7
 1154 949 1154 949 1117 1082 c 1,8,-1
 1324 1082 l 1,9,10
 1359 977 1359 977 1371.5 848.5 c 128,-1,11
 1384 720 1384 720 1362 567 c 0,12,13
 1324 319 1324 319 1168.5 161.5 c 128,-1,14
 1013 4 1013 4 722 -17 c 1,15,-1
 654 -474 l 1,16,-1
 456 -474 l 1,17,-1
 524 -15 l 1,18,19
 288 12 288 12 173 164.5 c 128,-1,20
 58 317 58 317 100 596 c 2,21,-1
 173 1082 l 1,22,-1
 370 1082 l 1,23,-1
 297 594 l 2,24,25
 264 378 264 378 331.5 271 c 128,-1,26
 399 164 399 164 543 148 c 1,27,-1
 549 149 l 1,28,-1
 689 1081 l 1,29,-1
 887 1081 l 1,0,-1
EndSplineSet
Validated: 33
EndChar

StartChar: omega
Encoding: 969 969 419
Width: 1741
GlyphClass: 1
Flags: W
LayerCount: 2
Fore
SplineSet
551 1082 m 1,0,1
 457 947 457 947 394.5 818 c 128,-1,2
 332 689 332 689 309 562 c 0,3,4
 279 365 279 365 317.5 249 c 128,-1,5
 356 133 356 133 477 133 c 0,6,7
 580 133 580 133 657.5 214.5 c 128,-1,8
 735 296 735 296 762 470 c 2,9,-1
 807 770 l 1,10,-1
 1005 770 l 1,11,-1
 960 470 l 2,12,13
 932 288 932 288 983 210.5 c 128,-1,14
 1034 133 1034 133 1143 133 c 0,15,16
 1258 133 1258 133 1334 253 c 128,-1,17
 1410 373 1410 373 1439 562 c 1,18,19
 1453 690 1453 690 1429.5 819.5 c 128,-1,20
 1406 949 1406 949 1353 1082 c 1,21,-1
 1560 1082 l 1,22,23
 1613 976 1613 976 1636 846 c 128,-1,24
 1659 716 1659 716 1636 562 c 0,25,26
 1596 299 1596 299 1472.5 139 c 128,-1,27
 1349 -21 1349 -21 1131 -21 c 0,28,29
 1009 -21 1009 -21 930.5 40.5 c 128,-1,30
 852 102 852 102 826 220 c 1,31,32
 766 99 766 99 669.5 39 c 128,-1,33
 573 -21 573 -21 444 -21 c 0,34,35
 235 -21 235 -21 154.5 145.5 c 128,-1,36
 74 312 74 312 112 562 c 0,37,38
 136 723 136 723 196.5 848.5 c 128,-1,39
 257 974 257 974 345 1082 c 1,40,-1
 551 1082 l 1,0,1
EndSplineSet
Validated: 33
EndChar

StartChar: uni03D1
Encoding: 977 977 425
Width: 1265
GlyphClass: 2
Flags: W
LayerCount: 2
Fore
SplineSet
596 1036 m 1,0,-1
 606 1098 l 2,1,2
 631 1269 631 1269 744.5 1373 c 128,-1,3
 858 1477 858 1477 1003 1477 c 0,4,5
 1162 1477 1162 1477 1237 1379.5 c 128,-1,6
 1312 1282 1312 1282 1285 1098 c 2,7,-1
 1209 592 l 2,8,9
 1167 317 1167 317 985 148 c 128,-1,10
 803 -21 803 -21 564 -21 c 0,11,12
 324 -21 324 -21 202 148 c 128,-1,13
 80 317 80 317 122 592 c 2,14,-1
 221 1252 l 1,15,-1
 418 1254 l 1,16,-1
 319 592 l 2,17,18
 289 395 289 395 364 267.5 c 128,-1,19
 439 140 439 140 588 140 c 0,20,21
 755 140 755 140 866 254.5 c 128,-1,22
 977 369 977 369 1012 585 c 1,23,24
 793 594 793 594 679.5 715 c 128,-1,25
 566 836 566 836 596 1036 c 1,26,-1
 596 1036 l 1,0,-1
1089 1098 m 2,27,28
 1104 1205 1104 1205 1074.5 1260 c 128,-1,29
 1045 1315 1045 1315 978 1315 c 256,30,31
 911 1315 911 1315 865 1262.5 c 128,-1,32
 819 1210 819 1210 803 1098 c 2,33,-1
 793 1034 l 2,34,35
 775 916 775 916 840.5 836.5 c 128,-1,36
 906 757 906 757 1031 752 c 1,37,-1
 1037 753 l 1,38,-1
 1089 1098 l 2,27,28
EndSplineSet
Validated: 37
EndChar

StartChar: uni03D2
Encoding: 978 978 426
Width: 1089
GlyphClass: 1
Flags: W
LayerCount: 2
Fore
SplineSet
848 1239 m 2,0,1
 918 1363 918 1363 987 1415 c 128,-1,2
 1056 1467 1056 1467 1137 1467 c 0,3,4
 1170 1467 1170 1467 1195 1462 c 128,-1,5
 1220 1457 1220 1457 1243 1443 c 1,6,-1
 1198 1291 l 1,7,8
 1193 1294 1193 1294 1182.5 1296.5 c 128,-1,9
 1172 1299 1172 1299 1159 1299 c 0,10,11
 1127 1299 1127 1299 1096.5 1281.5 c 128,-1,12
 1066 1264 1066 1264 1044 1225 c 2,13,-1
 647 578 l 1,14,-1
 560 0 l 1,15,-1
 364 0 l 1,16,-1
 451 578 l 1,17,-1
 248 1225 l 2,18,19
 236 1264 236 1264 211.5 1281.5 c 128,-1,20
 187 1299 187 1299 155 1299 c 0,21,22
 141 1299 141 1299 129.5 1296.5 c 128,-1,23
 118 1294 118 1294 114 1291 c 1,24,-1
 114 1443 l 1,25,26
 141 1457 141 1457 166.5 1462 c 128,-1,27
 192 1467 192 1467 227 1467 c 0,28,29
 304 1467 304 1467 359.5 1414.5 c 128,-1,30
 415 1362 415 1362 448 1239 c 2,31,-1
 565 833 l 1,32,-1
 574 764 l 1,33,-1
 580 763 l 1,34,-1
 609 833 l 1,35,-1
 848 1239 l 2,0,1
EndSplineSet
Validated: 1
EndChar

StartChar: uni03D6
Encoding: 982 982 427
Width: 1608
GlyphClass: 1
Flags: W
LayerCount: 2
Fore
SplineSet
1620 926 m 1,0,-1
 1486 926 l 1,1,2
 1503 845 1503 845 1506 754 c 128,-1,3
 1509 663 1509 663 1494 562 c 0,4,5
 1454 300 1454 300 1344 139.5 c 128,-1,6
 1234 -21 1234 -21 1049 -21 c 0,7,8
 936 -21 936 -21 862 39.5 c 128,-1,9
 788 100 788 100 763 216 c 1,10,11
 705 97 705 97 614 38 c 128,-1,12
 523 -21 523 -21 402 -21 c 0,13,14
 224 -21 224 -21 158.5 146 c 128,-1,15
 93 313 93 313 131 562 c 0,16,17
 146 666 146 666 175.5 756 c 128,-1,18
 205 846 205 846 247 926 c 1,19,-1
 137 926 l 1,20,-1
 160 1082 l 1,21,-1
 1643 1082 l 1,22,-1
 1620 926 l 1,0,-1
1297 562 m 0,23,24
 1307 651 1307 651 1301 742 c 128,-1,25
 1295 833 1295 833 1275 926 c 1,26,-1
 460 926 l 1,27,28
 411 832 411 832 377 741.5 c 128,-1,29
 343 651 343 651 328 562 c 0,30,31
 298 366 298 366 322.5 249.5 c 128,-1,32
 347 133 347 133 436 133 c 0,33,34
 530 133 530 133 602 214.5 c 128,-1,35
 674 296 674 296 701 470 c 2,36,-1
 738 720 l 1,37,-1
 936 720 l 1,38,-1
 899 470 l 2,39,40
 871 288 871 288 916 210.5 c 128,-1,41
 961 133 961 133 1062 133 c 0,42,43
 1146 133 1146 133 1207 253.5 c 128,-1,44
 1268 374 1268 374 1297 562 c 0,23,24
EndSplineSet
Validated: 33
EndChar

StartChar: uni0402
Encoding: 1026 1026 430
Width: 1514
GlyphClass: 1
Flags: W
LayerCount: 2
Fore
SplineSet
1323 1301 m 1,0,-1
 843 1301 l 1,1,-1
 780 880 l 1,2,-1
 961 880 l 2,3,4
 1187 880 1187 880 1320 751 c 128,-1,5
 1453 622 1453 622 1421 404 c 0,6,7
 1398 266 1398 266 1279.5 125 c 128,-1,8
 1161 -16 1161 -16 966 -50 c 1,9,-1
 937 98 l 1,10,11
 1070 132 1070 132 1138 210.5 c 128,-1,12
 1206 289 1206 289 1223 404 c 0,13,14
 1244 551 1244 551 1165 633 c 128,-1,15
 1086 715 1086 715 936 715 c 2,16,-1
 755 715 l 1,17,-1
 648 0 l 1,18,-1
 451 0 l 1,19,-1
 646 1301 l 1,20,-1
 172 1301 l 1,21,-1
 195 1456 l 1,22,-1
 1346 1456 l 1,23,-1
 1323 1301 l 1,0,-1
EndSplineSet
Validated: 33
EndChar

StartChar: uni0404
Encoding: 1028 1028 432
Width: 1386
GlyphClass: 1
Flags: W
LayerCount: 2
Fore
SplineSet
1215 467 m 1,0,-1
 1217 461 l 1,1,2
 1189 248 1189 248 1022 114 c 128,-1,3
 855 -20 855 -20 610 -20 c 0,4,5
 373 -20 373 -20 238.5 156.5 c 128,-1,6
 104 333 104 333 145 599 c 2,7,-1
 184 858 l 2,8,9
 225 1137 225 1137 405 1307.5 c 128,-1,10
 585 1478 585 1478 835 1478 c 0,11,12
 1073 1478 1073 1478 1203.5 1345.5 c 128,-1,13
 1334 1213 1334 1213 1298 998 c 1,14,-1
 1295 992 l 1,15,-1
 1106 992 l 1,16,17
 1130 1151 1130 1151 1053.5 1237 c 128,-1,18
 977 1323 977 1323 811 1323 c 0,19,20
 653 1323 653 1323 531.5 1188.5 c 128,-1,21
 410 1054 410 1054 381 860 c 2,22,-1
 374 813 l 1,23,-1
 936 813 l 1,24,-1
 913 659 l 1,25,-1
 351 659 l 1,26,-1
 342 599 l 2,27,28
 310 392 310 392 388 263 c 128,-1,29
 466 134 466 134 633 134 c 0,30,31
 791 134 791 134 897 223.5 c 128,-1,32
 1003 313 1003 313 1027 467 c 1,33,-1
 1215 467 l 1,0,-1
EndSplineSet
Validated: 33
EndChar

StartChar: uni0405
Encoding: 1029 1029 433
Width: 1252
GlyphClass: 1
Flags: W
LayerCount: 2
Fore
SplineSet
921 367 m 0,0,1
 936 469 936 469 876 534.5 c 128,-1,2
 816 600 816 600 642 647 c 0,3,4
 428 702 428 702 319.5 809 c 128,-1,5
 211 916 211 916 236 1078 c 0,6,7
 262 1255 262 1255 412 1366 c 128,-1,8
 562 1477 562 1477 778 1477 c 0,9,10
 998 1477 998 1477 1119.5 1345 c 128,-1,11
 1241 1213 1241 1213 1210 1042 c 1,12,-1
 1208 1036 l 1,13,-1
 1019 1036 l 1,14,15
 1038 1164 1038 1164 964 1243 c 128,-1,16
 890 1322 890 1322 754 1322 c 0,17,18
 622 1322 622 1322 535.5 1254.5 c 128,-1,19
 449 1187 449 1187 433 1081 c 0,20,21
 418 983 418 983 488.5 921 c 128,-1,22
 559 859 559 859 735 811 c 0,23,24
 946 754 946 754 1044 643 c 128,-1,25
 1142 532 1142 532 1118 369 c 0,26,27
 1090 186 1090 186 938 82.5 c 128,-1,28
 786 -21 786 -21 560 -21 c 0,29,30
 356 -21 356 -21 208.5 97.5 c 128,-1,31
 61 216 61 216 96 413 c 1,32,-1
 98 419 l 1,33,-1
 287 419 l 1,34,35
 265 276 265 276 357 204.5 c 128,-1,36
 449 133 449 133 583 133 c 0,37,38
 718 133 718 133 811.5 196.5 c 128,-1,39
 905 260 905 260 921 367 c 0,0,1
EndSplineSet
Validated: 33
EndChar

StartChar: uni0409
Encoding: 1033 1033 437
Width: 2201
GlyphClass: 1
Flags: W
LayerCount: 2
Fore
SplineSet
1409 1456 m 1,0,-1
 1324 889 l 1,1,-1
 1683 889 l 2,2,3
 1906 889 1906 889 2021 764 c 128,-1,4
 2136 639 2136 639 2108 444 c 0,5,6
 2076 239 2076 239 1930 119.5 c 128,-1,7
 1784 0 1784 0 1550 0 c 2,8,-1
 994 0 l 1,9,-1
 1189 1301 l 1,10,-1
 684 1301 l 1,11,-1
 605 770 l 2,12,13
 543 369 543 369 408 184.5 c 128,-1,14
 273 0 273 0 22 0 c 2,15,-1
 -30 0 l 1,16,-1
 -7 154 l 1,17,-1
 33 154 l 2,18,19
 177 154 177 154 267.5 298.5 c 128,-1,20
 358 443 358 443 409 770 c 2,21,-1
 511 1456 l 1,22,-1
 1409 1456 l 1,0,-1
1301 735 m 1,23,-1
 1214 154 l 1,24,-1
 1573 154 l 2,25,26
 1714 154 1714 154 1803.5 239.5 c 128,-1,27
 1893 325 1893 325 1911 446 c 0,28,29
 1929 571 1929 571 1868.5 653 c 128,-1,30
 1808 735 1808 735 1660 735 c 2,31,-1
 1301 735 l 1,23,-1
EndSplineSet
Validated: 33
EndChar

StartChar: uni040A
Encoding: 1034 1034 438
Width: 2201
GlyphClass: 1
Flags: W
LayerCount: 2
Fore
SplineSet
409 827 m 1,0,-1
 1118 827 l 1,1,-1
 1212 1456 l 1,2,-1
 1409 1456 l 1,3,-1
 1316 840 l 1,4,-1
 1676 840 l 2,5,6
 1900 840 1900 840 2016.5 725 c 128,-1,7
 2133 610 2133 610 2105 424 c 0,8,9
 2075 228 2075 228 1929.5 114 c 128,-1,10
 1784 0 1784 0 1550 0 c 2,11,-1
 994 0 l 1,12,-1
 1095 673 l 1,13,-1
 386 673 l 1,14,-1
 285 0 l 1,15,-1
 88 0 l 1,16,-1
 306 1456 l 1,17,-1
 503 1456 l 1,18,-1
 409 827 l 1,0,-1
1293 685 m 1,19,-1
 1216 165 l 1,20,-1
 1575 165 l 2,21,22
 1717 165 1717 165 1804 240 c 128,-1,23
 1891 315 1891 315 1908 426 c 0,24,25
 1925 542 1925 542 1863.5 613.5 c 128,-1,26
 1802 685 1802 685 1653 685 c 2,27,-1
 1293 685 l 1,19,-1
EndSplineSet
Validated: 33
EndChar

StartChar: uni040B
Encoding: 1035 1035 439
Width: 1670
GlyphClass: 1
Flags: W
LayerCount: 2
Fore
SplineSet
1339 1301 m 1,0,-1
 858 1301 l 1,1,-1
 807 961 l 1,2,-1
 1102 961 l 2,3,4
 1332 961 1332 961 1445 849 c 128,-1,5
 1558 737 1558 737 1522 501 c 2,6,-1
 1447 0 l 1,7,-1
 1250 0 l 1,8,-1
 1325 501 l 2,9,10
 1351 675 1351 675 1292.5 740.5 c 128,-1,11
 1234 806 1234 806 1079 806 c 2,12,-1
 784 806 l 1,13,-1
 664 0 l 1,14,-1
 467 0 l 1,15,-1
 662 1301 l 1,16,-1
 188 1301 l 1,17,-1
 211 1456 l 1,18,-1
 1362 1456 l 1,19,-1
 1339 1301 l 1,0,-1
EndSplineSet
Validated: 33
EndChar

StartChar: uni040F
Encoding: 1039 1039 443
Width: 1439
GlyphClass: 1
Flags: W
LayerCount: 2
Fore
SplineSet
306 1456 m 1,0,-1
 503 1456 l 1,1,-1
 308 154 l 1,2,-1
 1017 154 l 1,3,-1
 1212 1456 l 1,4,-1
 1409 1456 l 1,5,-1
 1191 0 l 1,6,-1
 745 0 l 1,7,-1
 691 -359 l 1,8,-1
 494 -359 l 1,9,-1
 548 0 l 1,10,-1
 88 0 l 1,11,-1
 306 1456 l 1,0,-1
EndSplineSet
Validated: 1
EndChar

StartChar: uni0411
Encoding: 1041 1041 445
Width: 1292
GlyphClass: 1
Flags: W
LayerCount: 2
Fore
SplineSet
1171 1301 m 1,0,-1
 475 1301 l 1,1,-1
 412 880 l 1,2,-1
 771 880 l 2,3,4
 995 880 995 880 1110.5 759 c 128,-1,5
 1226 638 1226 638 1198 444 c 0,6,7
 1166 239 1166 239 1019.5 119.5 c 128,-1,8
 873 0 873 0 639 0 c 2,9,-1
 83 0 l 1,10,-1
 301 1456 l 1,11,-1
 1194 1456 l 1,12,-1
 1171 1301 l 1,0,-1
388 725 m 1,13,-1
 303 154 l 1,14,-1
 662 154 l 2,15,16
 803 154 803 154 893 239.5 c 128,-1,17
 983 325 983 325 1001 446 c 0,18,19
 1019 569 1019 569 958 647 c 128,-1,20
 897 725 897 725 748 725 c 2,21,-1
 388 725 l 1,13,-1
EndSplineSet
Validated: 33
EndChar

StartChar: uni0414
Encoding: 1044 1044 448
Width: 1575
GlyphClass: 1
Flags: W
LayerCount: 2
Fore
SplineSet
1262 154 m 1,0,-1
 1461 154 l 1,1,-1
 1384 -357 l 1,2,-1
 1187 -357 l 1,3,-1
 1241 0 l 1,4,-1
 171 0 l 1,5,-1
 117 -359 l 1,6,-1
 -80 -359 l 1,7,-1
 -3 154 l 1,8,-1
 101 154 l 2,9,10
 228 154 228 154 324 338.5 c 128,-1,11
 420 523 420 523 489 867 c 2,12,-1
 610 1456 l 1,13,-1
 1457 1456 l 1,14,-1
 1262 154 l 1,0,-1
688 867 m 2,15,16
 638 618 638 618 570.5 439.5 c 128,-1,17
 503 261 503 261 410 154 c 1,18,-1
 1065 154 l 1,19,-1
 1237 1301 l 1,20,-1
 775 1301 l 1,21,-1
 688 867 l 2,15,16
EndSplineSet
Validated: 1
EndChar

StartChar: uni0416
Encoding: 1046 1046 450
Width: 1687
GlyphClass: 1
Flags: W
LayerCount: 2
Fore
SplineSet
1019 668 m 1,0,-1
 965 668 l 1,1,-1
 865 0 l 1,2,-1
 669 0 l 1,3,-1
 769 668 l 1,4,-1
 706 668 l 1,5,-1
 191 0 l 1,6,-1
 -54 0 l 1,7,-1
 556 769 l 1,8,-1
 204 1456 l 1,9,-1
 434 1456 l 1,10,-1
 727 823 l 1,11,-1
 792 823 l 1,12,-1
 887 1456 l 1,13,-1
 1083 1456 l 1,14,-1
 988 823 l 1,15,-1
 1045 823 l 1,16,-1
 1528 1456 l 1,17,-1
 1751 1456 l 1,18,-1
 1754 1451 l 1,19,-1
 1200 771 l 1,20,-1
 1580 0 l 1,21,-1
 1335 0 l 1,22,-1
 1019 668 l 1,0,-1
EndSplineSet
Validated: 1
EndChar

StartChar: uni0417
Encoding: 1047 1047 451
Width: 1385
GlyphClass: 1
Flags: W
LayerCount: 2
Fore
SplineSet
1304 1062 m 0,0,1
 1288 957 1288 957 1207.5 874 c 128,-1,2
 1127 791 1127 791 1000 745 c 1,3,4
 1125 701 1125 701 1185 614.5 c 128,-1,5
 1245 528 1245 528 1228 406 c 0,6,7
 1196 197 1196 197 1022.5 88 c 128,-1,8
 849 -21 849 -21 587 -21 c 0,9,10
 369 -21 369 -21 219 86.5 c 128,-1,11
 69 194 69 194 105 398 c 1,12,-1
 108 404 l 1,13,-1
 296 404 l 1,14,15
 277 286 277 286 364 209.5 c 128,-1,16
 451 133 451 133 610 133 c 0,17,18
 781 133 781 133 896.5 208.5 c 128,-1,19
 1012 284 1012 284 1030 402 c 0,20,21
 1051 540 1051 540 969.5 602 c 128,-1,22
 888 664 888 664 706 664 c 2,23,-1
 523 664 l 1,24,-1
 528 698 l 1,25,-1
 546 820 l 1,26,-1
 729 820 l 2,27,28
 896 820 896 820 993 886.5 c 128,-1,29
 1090 953 1090 953 1108 1066 c 0,30,31
 1125 1182 1125 1182 1046 1252 c 128,-1,32
 967 1322 967 1322 788 1322 c 0,33,34
 652 1322 652 1322 542 1250.5 c 128,-1,35
 432 1179 432 1179 417 1075 c 1,36,-1
 230 1075 l 1,37,-1
 228 1081 l 1,38,39
 250 1264 250 1264 417.5 1370.5 c 128,-1,40
 585 1477 585 1477 812 1477 c 0,41,42
 1059 1477 1059 1477 1196 1368 c 128,-1,43
 1333 1259 1333 1259 1304 1062 c 0,0,1
EndSplineSet
Validated: 33
EndChar

StartChar: uni0418
Encoding: 1048 1048 452
Width: 1440
GlyphClass: 1
Flags: W
LayerCount: 2
Fore
SplineSet
1215 1456 m 1,0,-1
 1412 1456 l 1,1,-1
 1194 0 l 1,2,-1
 997 0 l 1,3,-1
 1163 1109 l 1,4,-1
 1158 1112 l 1,5,-1
 290 0 l 1,6,-1
 93 0 l 1,7,-1
 311 1456 l 1,8,-1
 508 1456 l 1,9,-1
 342 348 l 1,10,-1
 347 345 l 1,11,-1
 1215 1456 l 1,0,-1
EndSplineSet
Validated: 1
EndChar

StartChar: uni041B
Encoding: 1051 1051 455
Width: 1439
GlyphClass: 1
Flags: W
LayerCount: 2
Fore
SplineSet
1409 1456 m 1,0,-1
 1191 0 l 1,1,-1
 994 0 l 1,2,-1
 1189 1301 l 1,3,-1
 662 1301 l 1,4,-1
 583 770 l 2,5,6
 520 355 520 355 392 177.5 c 128,-1,7
 264 0 264 0 22 0 c 2,8,-1
 -31 0 l 1,9,-1
 -8 154 l 1,10,-1
 33 154 l 2,11,12
 166 154 166 154 251 298.5 c 128,-1,13
 336 443 336 443 387 770 c 2,14,-1
 490 1456 l 1,15,-1
 1409 1456 l 1,0,-1
EndSplineSet
Validated: 1
EndChar

StartChar: uni0423
Encoding: 1059 1059 463
Width: 1297
GlyphClass: 1
Flags: W
LayerCount: 2
Fore
SplineSet
604 775 m 1,0,-1
 650 584 l 1,1,-1
 656 583 l 1,2,-1
 1134 1456 l 1,3,-1
 1362 1456 l 1,4,-1
 651 239 l 2,5,6
 576 115 576 115 486 47 c 128,-1,7
 396 -21 396 -21 242 -21 c 0,8,9
 180 -21 180 -21 123 -10 c 128,-1,10
 66 1 66 1 36 16 c 1,11,-1
 83 160 l 1,12,13
 115 150 115 150 161.5 141.5 c 128,-1,14
 208 133 208 133 244 133 c 0,15,16
 322 133 322 133 380 176.5 c 128,-1,17
 438 220 438 220 477 285 c 2,18,-1
 529 368 l 1,19,-1
 204 1456 l 1,20,-1
 425 1456 l 1,21,-1
 604 775 l 1,0,-1
EndSplineSet
Validated: 1
EndChar

StartChar: uni0426
Encoding: 1062 1062 466
Width: 1533
GlyphClass: 1
Flags: W
LayerCount: 2
Fore
SplineSet
299 1456 m 1,0,-1
 496 1456 l 1,1,-1
 301 155 l 1,2,-1
 1010 155 l 1,3,-1
 1205 1456 l 1,4,-1
 1402 1456 l 1,5,-1
 1208 160 l 1,6,-1
 1397 160 l 1,7,-1
 1319 -359 l 1,8,-1
 1122 -359 l 1,9,-1
 1176 0 l 1,10,-1
 81 0 l 1,11,-1
 299 1456 l 1,0,-1
EndSplineSet
Validated: 1
EndChar

StartChar: uni0427
Encoding: 1063 1063 467
Width: 1397
GlyphClass: 1
Flags: W
LayerCount: 2
Fore
SplineSet
1366 1456 m 1,0,-1
 1148 0 l 1,1,-1
 951 0 l 1,2,-1
 1041 603 l 1,3,4
 942 574 942 574 851 561 c 128,-1,5
 760 548 760 548 638 548 c 0,6,7
 406 548 406 548 293 654.5 c 128,-1,8
 180 761 180 761 216 996 c 2,9,-1
 285 1456 l 1,10,-1
 483 1456 l 1,11,-1
 414 996 l 2,12,13
 388 824 388 824 447 764 c 128,-1,14
 506 704 506 704 662 704 c 0,15,16
 761 704 761 704 861.5 718.5 c 128,-1,17
 962 733 962 733 1065 760 c 1,18,-1
 1169 1456 l 1,19,-1
 1366 1456 l 1,0,-1
EndSplineSet
Validated: 33
EndChar

StartChar: uni0428
Encoding: 1064 1064 468
Width: 2079
GlyphClass: 1
Flags: W
LayerCount: 2
Fore
SplineSet
499 1456 m 1,0,-1
 304 154 l 1,1,-1
 896 154 l 1,2,-1
 1091 1456 l 1,3,-1
 1287 1456 l 1,4,-1
 1092 154 l 1,5,-1
 1681 154 l 1,6,-1
 1876 1456 l 1,7,-1
 2073 1456 l 1,8,-1
 1855 0 l 1,9,-1
 84 0 l 1,10,-1
 302 1456 l 1,11,-1
 499 1456 l 1,0,-1
EndSplineSet
Validated: 1
EndChar

StartChar: uni0429
Encoding: 1065 1065 469
Width: 2148
GlyphClass: 1
Flags: W
LayerCount: 2
Fore
SplineSet
499 1456 m 1,0,-1
 304 154 l 1,1,-1
 896 154 l 1,2,-1
 1091 1456 l 1,3,-1
 1287 1456 l 1,4,-1
 1092 154 l 1,5,-1
 1681 154 l 1,6,-1
 1876 1456 l 1,7,-1
 2073 1456 l 1,8,-1
 1878 157 l 1,9,-1
 2049 157 l 1,10,-1
 1971 -360 l 1,11,-1
 1774 -360 l 1,12,-1
 1828 0 l 1,13,-1
 84 0 l 1,14,-1
 302 1456 l 1,15,-1
 499 1456 l 1,0,-1
EndSplineSet
Validated: 1
EndChar

StartChar: uni042A
Encoding: 1066 1066 470
Width: 1458
GlyphClass: 1
Flags: W
LayerCount: 2
Fore
SplineSet
138 1456 m 1,0,-1
 661 1456 l 1,1,-1
 574 880 l 1,2,-1
 934 880 l 2,3,4
 1158 880 1158 880 1273.5 759 c 128,-1,5
 1389 638 1389 638 1361 444 c 0,6,7
 1329 239 1329 239 1182.5 119.5 c 128,-1,8
 1036 0 1036 0 802 0 c 2,9,-1
 246 0 l 1,10,-1
 441 1301 l 1,11,-1
 115 1301 l 1,12,-1
 138 1456 l 1,0,-1
551 725 m 1,13,-1
 466 154 l 1,14,-1
 825 154 l 2,15,16
 966 154 966 154 1056 239.5 c 128,-1,17
 1146 325 1146 325 1164 446 c 0,18,19
 1182 569 1182 569 1121 647 c 128,-1,20
 1060 725 1060 725 911 725 c 2,21,-1
 551 725 l 1,13,-1
EndSplineSet
Validated: 33
EndChar

StartChar: uni042B
Encoding: 1067 1067 471
Width: 1749
GlyphClass: 1
Flags: W
LayerCount: 2
Fore
SplineSet
411 880 m 1,0,-1
 771 880 l 2,1,2
 995 880 995 880 1110.5 759 c 128,-1,3
 1226 638 1226 638 1198 444 c 0,4,5
 1166 239 1166 239 1019.5 119.5 c 128,-1,6
 873 0 873 0 639 0 c 2,7,-1
 83 0 l 1,8,-1
 301 1456 l 1,9,-1
 498 1456 l 1,10,-1
 411 880 l 1,0,-1
388 725 m 1,11,-1
 303 154 l 1,12,-1
 662 154 l 2,13,14
 803 154 803 154 893 239.5 c 128,-1,15
 983 325 983 325 1001 446 c 0,16,17
 1019 569 1019 569 958 647 c 128,-1,18
 897 725 897 725 748 725 c 2,19,-1
 388 725 l 1,11,-1
1506 0 m 1,20,-1
 1308 0 l 1,21,-1
 1526 1456 l 1,22,-1
 1724 1456 l 1,23,-1
 1506 0 l 1,20,-1
EndSplineSet
Validated: 33
EndChar

StartChar: uni042C
Encoding: 1068 1068 472
Width: 1290
GlyphClass: 1
Flags: W
LayerCount: 2
Fore
SplineSet
411 880 m 1,0,-1
 771 880 l 2,1,2
 995 880 995 880 1110.5 759 c 128,-1,3
 1226 638 1226 638 1198 444 c 0,4,5
 1166 239 1166 239 1019.5 119.5 c 128,-1,6
 873 0 873 0 639 0 c 2,7,-1
 83 0 l 1,8,-1
 301 1456 l 1,9,-1
 498 1456 l 1,10,-1
 411 880 l 1,0,-1
388 725 m 1,11,-1
 303 154 l 1,12,-1
 662 154 l 2,13,14
 803 154 803 154 893 239.5 c 128,-1,15
 983 325 983 325 1001 446 c 0,16,17
 1019 569 1019 569 958 647 c 128,-1,18
 897 725 897 725 748 725 c 2,19,-1
 388 725 l 1,11,-1
EndSplineSet
Validated: 33
EndChar

StartChar: uni042D
Encoding: 1069 1069 473
Width: 1385
GlyphClass: 1
Flags: W
LayerCount: 2
Fore
SplineSet
258 990 m 1,0,-1
 256 996 l 1,1,2
 282 1207 282 1207 449.5 1342.5 c 128,-1,3
 617 1478 617 1478 862 1478 c 0,4,5
 1099 1478 1099 1478 1233 1301 c 128,-1,6
 1367 1124 1367 1124 1328 858 c 2,7,-1
 1289 599 l 2,8,9
 1247 319 1247 319 1067 149.5 c 128,-1,10
 887 -20 887 -20 637 -20 c 0,11,12
 399 -20 399 -20 268 112 c 128,-1,13
 137 244 137 244 175 459 c 1,14,-1
 178 465 l 1,15,-1
 367 465 l 1,16,17
 342 305 342 305 417.5 219.5 c 128,-1,18
 493 134 493 134 660 134 c 0,19,20
 817 134 817 134 939 268 c 128,-1,21
 1061 402 1061 402 1091 597 c 2,22,-1
 1103 678 l 1,23,-1
 529 678 l 1,24,-1
 552 833 l 1,25,-1
 1126 833 l 1,26,-1
 1130 858 l 2,27,28
 1160 1064 1160 1064 1082 1193.5 c 128,-1,29
 1004 1323 1004 1323 838 1323 c 0,30,31
 679 1323 679 1323 573.5 1233 c 128,-1,32
 468 1143 468 1143 446 990 c 1,33,-1
 258 990 l 1,0,-1
EndSplineSet
Validated: 33
EndChar

StartChar: uni042E
Encoding: 1070 1070 474
Width: 1825
GlyphClass: 1
Flags: W
LayerCount: 2
Fore
SplineSet
1772 598 m 2,0,1
 1729 320 1729 320 1540 149.5 c 128,-1,2
 1351 -21 1351 -21 1084 -21 c 0,3,4
 838 -21 838 -21 700.5 156.5 c 128,-1,5
 563 334 563 334 603 598 c 2,6,-1
 608 632 l 1,7,-1
 402 632 l 1,8,-1
 308 0 l 1,9,-1
 110 0 l 1,10,-1
 328 1456 l 1,11,-1
 526 1456 l 1,12,-1
 425 786 l 1,13,-1
 631 786 l 1,14,-1
 642 857 l 2,15,16
 683 1134 683 1134 867 1305.5 c 128,-1,17
 1051 1477 1051 1477 1309 1477 c 0,18,19
 1562 1477 1562 1477 1706 1298.5 c 128,-1,20
 1850 1120 1850 1120 1811 857 c 2,21,-1
 1772 598 l 2,0,1
1614 859 m 2,22,23
 1644 1066 1644 1066 1556 1190.5 c 128,-1,24
 1468 1315 1468 1315 1284 1315 c 0,25,26
 1119 1315 1119 1315 993.5 1185.5 c 128,-1,27
 868 1056 868 1056 839 859 c 2,28,-1
 800 598 l 2,29,30
 768 389 768 389 851 264.5 c 128,-1,31
 934 140 934 140 1108 140 c 0,32,33
 1284 140 1284 140 1414 269 c 128,-1,34
 1544 398 1544 398 1575 598 c 2,35,-1
 1614 859 l 2,22,23
EndSplineSet
Validated: 33
EndChar

StartChar: uni042F
Encoding: 1071 1071 475
Width: 1211
GlyphClass: 1
Flags: W
LayerCount: 2
Fore
SplineSet
173 0 m 1,0,-1
 -36 0 l 1,1,-1
 405 661 l 1,2,3
 269 712 269 712 210 804 c 128,-1,4
 151 896 151 896 173 1038 c 0,5,6
 202 1234 202 1234 360 1345 c 128,-1,7
 518 1456 518 1456 750 1456 c 2,8,-1
 1216 1456 l 1,9,-1
 998 0 l 1,10,-1
 801 0 l 1,11,-1
 892 609 l 1,12,-1
 569 609 l 1,13,-1
 173 0 l 1,0,-1
996 1301 m 1,14,-1
 727 1301 l 2,15,16
 569 1301 569 1301 478.5 1233.5 c 128,-1,17
 388 1166 388 1166 370 1040 c 0,18,19
 352 919 352 919 425.5 842 c 128,-1,20
 499 765 499 765 645 765 c 2,21,-1
 916 765 l 1,22,-1
 996 1301 l 1,14,-1
EndSplineSet
Validated: 33
EndChar

StartChar: uni0431
Encoding: 1073 1073 477
Width: 1133
GlyphClass: 1
Flags: W
LayerCount: 2
Fore
SplineSet
704 1102 m 0,0,1
 903 1102 903 1102 1003.5 945 c 128,-1,2
 1104 788 1104 788 1069 551 c 1,3,-1
 1065 529 l 1,4,5
 1027 278 1027 278 876 128.5 c 128,-1,6
 725 -21 725 -21 499 -21 c 0,7,8
 283 -21 283 -21 171.5 135 c 128,-1,9
 60 291 60 291 96 529 c 1,10,-1
 100 551 l 2,11,12
 100 556 100 556 101 560 c 128,-1,13
 102 564 102 564 105 579 c 2,14,-1
 140 812 l 2,15,16
 188 1132 188 1132 330.5 1271.5 c 128,-1,17
 473 1411 473 1411 719 1424 c 0,18,19
 858 1431 858 1431 937 1458.5 c 128,-1,20
 1016 1486 1016 1486 1026 1553 c 1,21,-1
 1176 1553 l 1,22,-1
 1178 1547 l 1,23,24
 1159 1382 1159 1382 1042 1322.5 c 128,-1,25
 925 1263 925 1263 711 1258 c 0,26,27
 559 1253 559 1253 455.5 1175 c 128,-1,28
 352 1097 352 1097 331 942 c 1,29,-1
 334 937 l 1,30,31
 403 1010 403 1010 501.5 1056 c 128,-1,32
 600 1102 600 1102 704 1102 c 0,0,1
642 947 m 0,33,34
 507 947 507 947 414.5 832.5 c 128,-1,35
 322 718 322 718 298 551 c 1,36,-1
 294 529 l 1,37,38
 267 350 267 350 322.5 241.5 c 128,-1,39
 378 133 378 133 522 133 c 0,40,41
 657 133 657 133 749.5 246.5 c 128,-1,42
 842 360 842 360 868 529 c 1,43,-1
 872 551 l 1,44,45
 898 727 898 727 841.5 837 c 128,-1,46
 785 947 785 947 642 947 c 0,33,34
EndSplineSet
Validated: 33
EndChar

StartChar: uni0432
Encoding: 1074 1074 478
Width: 1164
GlyphClass: 1
Flags: W
LayerCount: 2
Fore
SplineSet
64 0 m 1,0,-1
 226 1082 l 1,1,-1
 653 1082 l 2,2,3
 859 1082 859 1082 969.5 1006.5 c 128,-1,4
 1080 931 1080 931 1059 784 c 0,5,6
 1046 705 1046 705 992.5 646.5 c 128,-1,7
 939 588 939 588 851 557 c 1,8,9
 947 532 947 532 992.5 464 c 128,-1,10
 1038 396 1038 396 1025 308 c 0,11,12
 1001 151 1001 151 881 75.5 c 128,-1,13
 761 0 761 0 560 0 c 2,14,-1
 64 0 l 1,0,-1
332 474 m 1,15,-1
 283 152 l 1,16,-1
 583 152 l 2,17,18
 688 152 688 152 752 194 c 128,-1,19
 816 236 816 236 828 313 c 0,20,21
 840 392 840 392 791 433 c 128,-1,22
 742 474 742 474 631 474 c 2,23,-1
 332 474 l 1,15,-1
354 625 m 1,24,-1
 598 625 l 2,25,26
 713 626 713 626 780.5 664 c 128,-1,27
 848 702 848 702 860 774 c 0,28,29
 871 854 871 854 814 891.5 c 128,-1,30
 757 929 757 929 630 929 c 2,31,-1
 400 929 l 1,32,-1
 354 625 l 1,24,-1
EndSplineSet
Validated: 33
EndChar

StartChar: uni0433
Encoding: 1075 1075 479
Width: 849
GlyphClass: 1
Flags: W
LayerCount: 2
Fore
SplineSet
890 926 m 1,0,-1
 398 926 l 1,1,-1
 260 0 l 1,2,-1
 63 0 l 1,3,-1
 225 1082 l 1,4,-1
 913 1082 l 1,5,-1
 890 926 l 1,0,-1
EndSplineSet
Validated: 1
EndChar

StartChar: uni0434
Encoding: 1076 1076 480
Width: 1297
GlyphClass: 1
Flags: W
LayerCount: 2
Fore
SplineSet
118 154 m 2,0,1
 192 154 192 154 249 285.5 c 128,-1,2
 306 417 306 417 361 675 c 2,3,-1
 448 1082 l 1,4,-1
 1166 1082 l 1,5,-1
 1027 154 l 1,6,-1
 1170 154 l 1,7,-1
 1093 -358 l 1,8,-1
 896 -358 l 1,9,-1
 950 0 l 1,10,-1
 186 0 l 1,11,-1
 132 -358 l 1,12,-1
 -65 -358 l 1,13,-1
 12 154 l 1,14,-1
 118 154 l 2,0,1
559 675 m 2,15,16
 517 481 517 481 478.5 358 c 128,-1,17
 440 235 440 235 387 154 c 1,18,-1
 830 154 l 1,19,-1
 943 907 l 1,20,-1
 608 907 l 1,21,-1
 559 675 l 2,15,16
EndSplineSet
Validated: 1
EndChar

StartChar: uni0436
Encoding: 1078 1078 482
Width: 1473
GlyphClass: 1
Flags: W
LayerCount: 2
Fore
SplineSet
882 469 m 1,0,-1
 824 469 l 1,1,-1
 754 0 l 1,2,-1
 557 0 l 1,3,-1
 627 469 l 1,4,-1
 570 469 l 1,5,-1
 194 0 l 1,6,-1
 -47 0 l 1,7,-1
 -49 5 l 1,8,-1
 436 571 l 1,9,-1
 142 1082 l 1,10,-1
 380 1082 l 1,11,-1
 599 636 l 1,12,-1
 652 636 l 1,13,-1
 719 1082 l 1,14,-1
 916 1082 l 1,15,-1
 849 636 l 1,16,-1
 903 636 l 1,17,-1
 1257 1082 l 1,18,-1
 1487 1082 l 1,19,-1
 1489 1077 l 1,20,-1
 1048 572 l 1,21,-1
 1366 0 l 1,22,-1
 1118 0 l 1,23,-1
 882 469 l 1,0,-1
EndSplineSet
Validated: 1
EndChar

StartChar: uni0437
Encoding: 1079 1079 483
Width: 1103
GlyphClass: 1
Flags: W
LayerCount: 2
Fore
SplineSet
370 632 m 1,0,-1
 578 632 l 2,1,2
 688 632 688 632 751 673 c 128,-1,3
 814 714 814 714 825 786 c 0,4,5
 835 855 835 855 782 901.5 c 128,-1,6
 729 948 729 948 613 948 c 0,7,8
 515 948 515 948 436.5 898.5 c 128,-1,9
 358 849 358 849 348 780 c 1,10,-1
 162 780 l 1,11,-1
 161 786 l 1,12,13
 176 931 176 931 312.5 1015.5 c 128,-1,14
 449 1100 449 1100 636 1100 c 0,15,16
 829 1100 829 1100 936.5 1017.5 c 128,-1,17
 1044 935 1044 935 1022 786 c 0,18,19
 1010 710 1010 710 952.5 649.5 c 128,-1,20
 895 589 895 589 804 555 c 1,21,22
 896 522 896 522 939.5 458 c 128,-1,23
 983 394 983 394 970 305 c 0,24,25
 946 148 946 148 809 64.5 c 128,-1,26
 672 -19 672 -19 468 -19 c 0,27,28
 289 -19 289 -19 166 67 c 128,-1,29
 43 153 43 153 73 314 c 1,30,-1
 75 320 l 1,31,-1
 262 320 l 1,32,33
 250 241 250 241 313.5 186.5 c 128,-1,34
 377 132 377 132 491 132 c 0,35,36
 603 132 603 132 682 182.5 c 128,-1,37
 761 233 761 233 772 305 c 0,38,39
 785 395 785 395 731 433.5 c 128,-1,40
 677 472 677 472 554 472 c 2,41,-1
 346 472 l 1,42,-1
 352 516 l 1,43,-1
 362 584 l 1,44,-1
 363 587 l 1,45,-1
 370 632 l 1,0,-1
EndSplineSet
Validated: 33
EndChar

StartChar: uni0438
Encoding: 1080 1080 484
Width: 1164
GlyphClass: 1
Flags: W
LayerCount: 2
Fore
SplineSet
905 1082 m 1,0,-1
 1102 1082 l 1,1,-1
 940 0 l 1,2,-1
 743 0 l 1,3,-1
 857 766 l 1,4,-1
 852 769 l 1,5,-1
 259 0 l 1,6,-1
 63 0 l 1,7,-1
 225 1082 l 1,8,-1
 421 1082 l 1,9,-1
 306 315 l 1,10,-1
 311 312 l 1,11,-1
 905 1082 l 1,0,-1
EndSplineSet
Validated: 1
EndChar

StartChar: uni043A
Encoding: 1082 1082 486
Width: 1120
GlyphClass: 1
Flags: W
LayerCount: 2
Fore
SplineSet
439 459 m 1,0,-1
 338 459 l 1,1,-1
 270 0 l 1,2,-1
 73 0 l 1,3,-1
 235 1082 l 1,4,-1
 432 1082 l 1,5,-1
 363 625 l 1,6,-1
 448 625 l 1,7,-1
 903 1082 l 1,8,-1
 1133 1082 l 1,9,-1
 1135 1076 l 1,10,-1
 609 563 l 1,11,-1
 1013 0 l 1,12,-1
 764 0 l 1,13,-1
 439 459 l 1,0,-1
EndSplineSet
Validated: 1
EndChar

StartChar: uni043B
Encoding: 1083 1083 487
Width: 1133
GlyphClass: 1
Flags: W
LayerCount: 2
Fore
SplineSet
1102 1082 m 1,0,-1
 940 0 l 1,1,-1
 743 0 l 1,2,-1
 881 926 l 1,3,-1
 515 926 l 1,4,-1
 470 620 l 2,5,6
 420 288 420 288 315 144 c 128,-1,7
 210 0 210 0 2 0 c 2,8,-1
 -54 0 l 1,9,-1
 -25 168 l 1,10,-1
 16 169 l 2,11,12
 118 169 118 169 176.5 273.5 c 128,-1,13
 235 378 235 378 272 620 c 2,14,-1
 341 1082 l 1,15,-1
 1102 1082 l 1,0,-1
EndSplineSet
Validated: 1
EndChar

StartChar: uni043C
Encoding: 1084 1084 488
Width: 1528
GlyphClass: 1
Flags: W
LayerCount: 2
Fore
SplineSet
718 258 m 1,0,-1
 724 258 l 1,1,-1
 1201 1082 l 1,2,-1
 1447 1082 l 1,3,-1
 1285 0 l 1,4,-1
 1088 0 l 1,5,-1
 1201 750 l 1,6,-1
 1195 753 l 1,7,-1
 750 0 l 1,8,-1
 614 0 l 1,9,-1
 391 770 l 1,10,-1
 385 769 l 1,11,-1
 270 0 l 1,12,-1
 73 0 l 1,13,-1
 235 1082 l 1,14,-1
 489 1082 l 1,15,-1
 718 258 l 1,0,-1
EndSplineSet
Validated: 1
EndChar

StartChar: uni043D
Encoding: 1085 1085 489
Width: 1164
GlyphClass: 1
Flags: W
LayerCount: 2
Fore
SplineSet
939 0 m 1,0,-1
 742 0 l 1,1,-1
 811 460 l 1,2,-1
 329 460 l 1,3,-1
 260 0 l 1,4,-1
 63 0 l 1,5,-1
 225 1082 l 1,6,-1
 422 1082 l 1,7,-1
 352 614 l 1,8,-1
 834 614 l 1,9,-1
 904 1082 l 1,10,-1
 1101 1082 l 1,11,-1
 939 0 l 1,0,-1
EndSplineSet
Validated: 1
EndChar

StartChar: uni043F
Encoding: 1087 1087 491
Width: 1164
GlyphClass: 1
Flags: W
LayerCount: 2
Fore
SplineSet
940 0 m 1,0,-1
 743 0 l 1,1,-1
 881 926 l 1,2,-1
 398 926 l 1,3,-1
 260 0 l 1,4,-1
 63 0 l 1,5,-1
 225 1082 l 1,6,-1
 1102 1082 l 1,7,-1
 940 0 l 1,0,-1
EndSplineSet
Validated: 1
EndChar

StartChar: uni0441
Encoding: 1089 1089 493
Width: 1072
GlyphClass: 1
Flags: W
LayerCount: 2
Fore
SplineSet
513 133 m 0,0,1
 600 133 600 133 678.5 194 c 128,-1,2
 757 255 757 255 771 342 c 1,3,-1
 949 342 l 1,4,-1
 951 336 l 1,5,6
 933 190 933 190 794.5 84.5 c 128,-1,7
 656 -21 656 -21 490 -21 c 0,8,9
 272 -21 272 -21 166.5 135.5 c 128,-1,10
 61 292 61 292 95 520 c 2,11,-1
 101 562 l 2,12,13
 137 799 137 799 283 950.5 c 128,-1,14
 429 1102 429 1102 658 1102 c 0,15,16
 833 1102 833 1102 935 989 c 128,-1,17
 1037 876 1037 876 1008 714 c 1,18,-1
 1006 709 l 1,19,-1
 826 709 l 1,20,21
 841 812 841 812 788 879.5 c 128,-1,22
 735 947 735 947 635 947 c 0,23,24
 496 947 496 947 409 832.5 c 128,-1,25
 322 718 322 718 299 562 c 2,26,-1
 293 520 l 2,27,28
 267 352 267 352 316 242.5 c 128,-1,29
 365 133 365 133 513 133 c 0,0,1
EndSplineSet
Validated: 33
EndChar

StartChar: uni0442
Encoding: 1090 1090 494
Width: 1048
GlyphClass: 1
Flags: W
LayerCount: 2
Fore
SplineSet
1036 929 m 1,0,-1
 679 929 l 1,1,-1
 540 0 l 1,2,-1
 343 0 l 1,3,-1
 482 929 l 1,4,-1
 130 929 l 1,5,-1
 153 1082 l 1,6,-1
 1059 1082 l 1,7,-1
 1036 929 l 1,0,-1
EndSplineSet
Validated: 1
EndChar

StartChar: uni0444
Encoding: 1092 1092 496
Width: 1826
GlyphClass: 1
Flags: W
LayerCount: 2
Fore
SplineSet
96 521 m 2,0,1
 136 792 136 792 270 947 c 128,-1,2
 404 1102 404 1102 607 1102 c 0,3,4
 694 1102 694 1102 760.5 1072.5 c 128,-1,5
 827 1043 827 1043 873 987 c 1,6,-1
 959 1560 l 1,7,-1
 1156 1560 l 1,8,-1
 1069 979 l 1,9,10
 1132 1039 1132 1039 1212.5 1070.5 c 128,-1,11
 1293 1102 1293 1102 1389 1102 c 0,12,13
 1581 1102 1581 1102 1672 940.5 c 128,-1,14
 1763 779 1763 779 1725 521 c 2,15,-1
 1722 500 l 2,16,17
 1685 257 1685 257 1553.5 118 c 128,-1,18
 1422 -21 1422 -21 1223 -21 c 0,19,20
 1128 -21 1128 -21 1056 10.5 c 128,-1,21
 984 42 984 42 937 103 c 1,22,-1
 860 -416 l 1,23,-1
 663 -416 l 1,24,-1
 738 87 l 1,25,26
 677 33 677 33 602 6 c 128,-1,27
 527 -21 527 -21 437 -21 c 0,28,29
 246 -21 246 -21 152 124 c 128,-1,30
 58 269 58 269 93 500 c 2,31,-1
 96 521 l 2,0,1
1528 521 m 2,32,33
 1557 713 1557 713 1503 830 c 128,-1,34
 1449 947 1449 947 1306 947 c 0,35,36
 1224 947 1224 947 1157 906 c 128,-1,37
 1090 865 1090 865 1041 796 c 1,38,-1
 963 275 l 1,39,40
 991 208 991 208 1045 170.5 c 128,-1,41
 1099 133 1099 133 1186 133 c 0,42,43
 1321 133 1321 133 1411 236.5 c 128,-1,44
 1501 340 1501 340 1525 500 c 2,45,-1
 1528 521 l 2,32,33
290 500 m 2,46,47
 264 330 264 330 316 231.5 c 128,-1,48
 368 133 368 133 510 133 c 0,49,50
 589 133 589 133 653 170 c 128,-1,51
 717 207 717 207 766 274 c 1,52,-1
 847 816 l 1,53,54
 818 877 818 877 765.5 912 c 128,-1,55
 713 947 713 947 634 947 c 0,56,57
 498 947 498 947 409 826 c 128,-1,58
 320 705 320 705 293 521 c 2,59,-1
 290 500 l 2,46,47
EndSplineSet
Validated: 33
EndChar

StartChar: uni0446
Encoding: 1094 1094 498
Width: 1218
GlyphClass: 1
Flags: W
LayerCount: 2
Fore
SplineSet
225 1082 m 1,0,-1
 422 1082 l 1,1,-1
 283 154 l 1,2,-1
 766 154 l 1,3,-1
 905 1082 l 1,4,-1
 1102 1082 l 1,5,-1
 963 154 l 1,6,-1
 1095 154 l 1,7,-1
 1019 -354 l 1,8,-1
 822 -354 l 1,9,-1
 875 0 l 1,10,-1
 63 0 l 1,11,-1
 225 1082 l 1,0,-1
EndSplineSet
Validated: 1
EndChar

StartChar: uni0447
Encoding: 1095 1095 499
Width: 1131
GlyphClass: 1
Flags: W
LayerCount: 2
Fore
SplineSet
908 0 m 1,0,-1
 711 0 l 1,1,-1
 769 386 l 1,2,3
 709 371 709 371 648 364 c 128,-1,4
 587 357 587 357 520 357 c 0,5,6
 331 357 331 357 231 461 c 128,-1,7
 131 565 131 565 162 765 c 2,8,-1
 209 1083 l 1,9,-1
 406 1083 l 1,10,-1
 359 765 l 2,11,12
 338 630 338 630 385 571.5 c 128,-1,13
 432 513 432 513 543 513 c 0,14,15
 607 513 607 513 668.5 520.5 c 128,-1,16
 730 528 730 528 792 544 c 1,17,-1
 873 1082 l 1,18,-1
 1070 1082 l 1,19,-1
 908 0 l 1,0,-1
EndSplineSet
Validated: 33
EndChar

StartChar: uni0448
Encoding: 1096 1096 500
Width: 1645
GlyphClass: 1
Flags: W
LayerCount: 2
Fore
SplineSet
422 1082 m 1,0,-1
 283 154 l 1,1,-1
 664 154 l 1,2,-1
 803 1082 l 1,3,-1
 1000 1082 l 1,4,-1
 861 154 l 1,5,-1
 1242 154 l 1,6,-1
 1381 1082 l 1,7,-1
 1578 1082 l 1,8,-1
 1416 0 l 1,9,-1
 63 0 l 1,10,-1
 225 1082 l 1,11,-1
 422 1082 l 1,0,-1
EndSplineSet
Validated: 1
EndChar

StartChar: uni0449
Encoding: 1097 1097 501
Width: 1732
GlyphClass: 1
Flags: W
LayerCount: 2
Fore
SplineSet
422 1082 m 1,0,-1
 283 154 l 1,1,-1
 664 154 l 1,2,-1
 803 1082 l 1,3,-1
 1000 1082 l 1,4,-1
 861 154 l 1,5,-1
 1242 154 l 1,6,-1
 1381 1082 l 1,7,-1
 1578 1082 l 1,8,-1
 1437 145 l 1,9,-1
 1614 145 l 1,10,-1
 1541 -338 l 1,11,-1
 1346 -338 l 1,12,-1
 1397 0 l 1,13,-1
 63 0 l 1,14,-1
 225 1082 l 1,15,-1
 422 1082 l 1,0,-1
EndSplineSet
Validated: 1
EndChar

StartChar: uni044A
Encoding: 1098 1098 502
Width: 1274
GlyphClass: 1
Flags: W
LayerCount: 2
Fore
SplineSet
127 1082 m 1,0,-1
 630 1082 l 1,1,-1
 568 670 l 1,2,-1
 838 670 l 2,3,4
 1022 670 1022 670 1118.5 577 c 128,-1,5
 1215 484 1215 484 1193 339 c 0,6,7
 1169 186 1169 186 1049 93 c 128,-1,8
 929 0 929 0 737 0 c 2,9,-1
 271 0 l 1,10,-1
 410 927 l 1,11,-1
 104 927 l 1,12,-1
 127 1082 l 1,0,-1
545 516 m 1,13,-1
 491 154 l 1,14,-1
 760 154 l 2,15,16
 861 154 861 154 921.5 205.5 c 128,-1,17
 982 257 982 257 994 332 c 0,18,19
 1005 408 1005 408 962.5 462 c 128,-1,20
 920 516 920 516 814 516 c 2,21,-1
 545 516 l 1,13,-1
EndSplineSet
Validated: 33
EndChar

StartChar: uni044B
Encoding: 1099 1099 503
Width: 1617
GlyphClass: 1
Flags: W
LayerCount: 2
Fore
SplineSet
390 670 m 1,0,-1
 660 670 l 2,1,2
 844 670 844 670 940.5 577 c 128,-1,3
 1037 484 1037 484 1015 339 c 0,4,5
 991 186 991 186 871 93 c 128,-1,6
 751 0 751 0 559 0 c 2,7,-1
 93 0 l 1,8,-1
 255 1082 l 1,9,-1
 452 1082 l 1,10,-1
 390 670 l 1,0,-1
1352 0 m 1,11,-1
 1155 0 l 1,12,-1
 1317 1082 l 1,13,-1
 1514 1082 l 1,14,-1
 1352 0 l 1,11,-1
367 516 m 1,15,-1
 313 154 l 1,16,-1
 582 154 l 2,17,18
 683 154 683 154 743.5 205.5 c 128,-1,19
 804 257 804 257 816 332 c 0,20,21
 827 408 827 408 784.5 462 c 128,-1,22
 742 516 742 516 636 516 c 2,23,-1
 367 516 l 1,15,-1
EndSplineSet
Validated: 33
EndChar

StartChar: uni044C
Encoding: 1100 1100 504
Width: 1113
GlyphClass: 1
Flags: W
LayerCount: 2
Fore
SplineSet
370 670 m 1,0,-1
 640 670 l 2,1,2
 824 670 824 670 920.5 577 c 128,-1,3
 1017 484 1017 484 995 339 c 0,4,5
 971 186 971 186 851 93 c 128,-1,6
 731 0 731 0 539 0 c 2,7,-1
 73 0 l 1,8,-1
 235 1082 l 1,9,-1
 432 1082 l 1,10,-1
 370 670 l 1,0,-1
347 516 m 1,11,-1
 293 154 l 1,12,-1
 562 154 l 2,13,14
 663 154 663 154 723.5 205.5 c 128,-1,15
 784 257 784 257 796 332 c 0,16,17
 807 408 807 408 764.5 462 c 128,-1,18
 722 516 722 516 616 516 c 2,19,-1
 347 516 l 1,11,-1
EndSplineSet
Validated: 33
EndChar

StartChar: uni044D
Encoding: 1101 1101 505
Width: 1102
GlyphClass: 1
Flags: W
LayerCount: 2
Fore
SplineSet
582 947 m 0,0,1
 494 947 494 947 411.5 885.5 c 128,-1,2
 329 824 329 824 316 738 c 1,3,-1
 138 738 l 1,4,-1
 136 744 l 1,5,6
 152 889 152 889 294.5 995.5 c 128,-1,7
 437 1102 437 1102 605 1102 c 0,8,9
 816 1102 816 1102 924.5 943.5 c 128,-1,10
 1033 785 1033 785 999 562 c 2,11,-1
 993 520 l 2,12,13
 957 284 957 284 807.5 131.5 c 128,-1,14
 658 -21 658 -21 437 -21 c 0,15,16
 261 -21 261 -21 155.5 91.5 c 128,-1,17
 50 204 50 204 79 366 c 1,18,-1
 81 371 l 1,19,-1
 261 371 l 1,20,21
 245 268 245 268 302 200.5 c 128,-1,22
 359 133 359 133 460 133 c 0,23,24
 580 133 580 133 666.5 232 c 128,-1,25
 753 331 753 331 782 468 c 1,26,-1
 779 474 l 1,27,-1
 395 474 l 1,28,-1
 418 628 l 1,29,-1
 809 628 l 1,30,31
 816 767 816 767 761 857 c 128,-1,32
 706 947 706 947 582 947 c 0,0,1
EndSplineSet
Validated: 33
EndChar

StartChar: uni044E
Encoding: 1102 1102 506
Width: 1671
GlyphClass: 1
Flags: W
LayerCount: 2
Fore
SplineSet
363 625 m 1,0,-1
 620 625 l 1,1,2
 671 844 671 844 817 973 c 128,-1,3
 963 1102 963 1102 1171 1102 c 0,4,5
 1387 1102 1387 1102 1498.5 945.5 c 128,-1,6
 1610 789 1610 789 1575 551 c 1,7,-1
 1571 529 l 1,8,9
 1533 278 1533 278 1382 128.5 c 128,-1,10
 1231 -21 1231 -21 1005 -21 c 0,11,12
 803 -21 803 -21 691 116.5 c 128,-1,13
 579 254 579 254 595 471 c 1,14,-1
 340 471 l 1,15,-1
 270 0 l 1,16,-1
 73 0 l 1,17,-1
 235 1082 l 1,18,-1
 432 1082 l 1,19,-1
 363 625 l 1,0,-1
799 529 m 1,20,21
 772 351 772 351 828 242 c 128,-1,22
 884 133 884 133 1028 133 c 0,23,24
 1163 133 1163 133 1255.5 246.5 c 128,-1,25
 1348 360 1348 360 1374 529 c 1,26,-1
 1378 551 l 1,27,28
 1404 727 1404 727 1347.5 837 c 128,-1,29
 1291 947 1291 947 1148 947 c 0,30,31
 1012 947 1012 947 919.5 832.5 c 128,-1,32
 827 718 827 718 803 551 c 1,33,-1
 799 529 l 1,20,21
EndSplineSet
Validated: 33
EndChar

StartChar: uni044F
Encoding: 1103 1103 507
Width: 1163
GlyphClass: 1
Flags: W
LayerCount: 2
Fore
SplineSet
1092 1082 m 1,0,-1
 930 0 l 1,1,-1
 733 0 l 1,2,-1
 796 420 l 1,3,-1
 529 420 l 1,4,-1
 210 0 l 1,5,-1
 -2 0 l 1,6,-1
 341 451 l 1,7,8
 245 489 245 489 200 568.5 c 128,-1,9
 155 648 155 648 171 751 c 0,10,11
 193 902 193 902 316 992 c 128,-1,12
 439 1082 439 1082 635 1082 c 2,13,-1
 1092 1082 l 1,0,-1
368 749 m 0,14,15
 357 674 357 674 398.5 624.5 c 128,-1,16
 440 575 440 575 538 575 c 2,17,-1
 819 575 l 1,18,-1
 872 929 l 1,19,-1
 612 929 l 2,20,21
 509 929 509 929 444 875 c 128,-1,22
 379 821 379 821 368 749 c 0,14,15
EndSplineSet
Validated: 33
EndChar

StartChar: uni0452
Encoding: 1106 1106 510
Width: 1164
GlyphClass: 1
Flags: W
LayerCount: 2
Fore
SplineSet
680 1228 m 1,0,-1
 444 1228 l 1,1,-1
 401 943 l 1,2,3
 469 1019 469 1019 556 1060.5 c 128,-1,4
 643 1102 643 1102 743 1102 c 0,5,6
 910 1102 910 1102 993.5 997 c 128,-1,7
 1077 892 1077 892 1046 678 c 2,8,-1
 1012 456 l 1,9,-1
 1013 456 l 1,10,-1
 932 -89 l 2,11,12
 905 -262 905 -262 807 -349.5 c 128,-1,13
 709 -437 709 -437 553 -437 c 0,14,15
 522 -437 522 -437 495.5 -433 c 128,-1,16
 469 -429 469 -429 443 -420 c 1,17,-1
 481 -269 l 1,18,19
 492 -274 492 -274 525.5 -278 c 128,-1,20
 559 -282 559 -282 577 -282 c 0,21,22
 635 -282 635 -282 677.5 -230 c 128,-1,23
 720 -178 720 -178 734 -89 c 2,24,-1
 747 0 l 1,25,-1
 815 456 l 1,26,-1
 849 680 l 2,27,28
 870 818 870 818 822 880 c 128,-1,29
 774 942 774 942 659 942 c 0,30,31
 574 942 574 942 502.5 906 c 128,-1,32
 431 870 431 870 381 806 c 1,33,-1
 260 0 l 1,34,-1
 63 0 l 1,35,-1
 247 1228 l 1,36,-1
 90 1228 l 1,37,-1
 109 1352 l 1,38,-1
 265 1352 l 1,39,-1
 297 1560 l 1,40,-1
 494 1560 l 1,41,-1
 462 1352 l 1,42,-1
 699 1352 l 1,43,-1
 680 1228 l 1,0,-1
EndSplineSet
Validated: 33
EndChar

StartChar: uni0454
Encoding: 1108 1108 512
Width: 1103
GlyphClass: 1
Flags: W
LayerCount: 2
Fore
SplineSet
513 133 m 0,0,1
 600 133 600 133 678.5 194 c 128,-1,2
 757 255 757 255 771 342 c 1,3,-1
 949 342 l 1,4,-1
 951 336 l 1,5,6
 933 190 933 190 794.5 84.5 c 128,-1,7
 656 -21 656 -21 490 -21 c 0,8,9
 272 -21 272 -21 166.5 135.5 c 128,-1,10
 61 292 61 292 95 520 c 2,11,-1
 101 562 l 2,12,13
 137 799 137 799 283 950.5 c 128,-1,14
 429 1102 429 1102 658 1102 c 0,15,16
 833 1102 833 1102 935 989 c 128,-1,17
 1037 876 1037 876 1008 714 c 1,18,-1
 1006 709 l 1,19,-1
 826 709 l 1,20,21
 841 812 841 812 788 879.5 c 128,-1,22
 735 947 735 947 635 947 c 0,23,24
 509 947 509 947 426 852 c 128,-1,25
 343 757 343 757 315 623 c 1,26,-1
 318 617 l 1,27,-1
 703 617 l 1,28,-1
 679 463 l 1,29,-1
 286 463 l 1,30,31
 274 316 274 316 326 224.5 c 128,-1,32
 378 133 378 133 513 133 c 0,0,1
EndSplineSet
Validated: 33
EndChar

StartChar: uni0459
Encoding: 1113 1113 517
Width: 1782
GlyphClass: 1
Flags: W
LayerCount: 2
Fore
SplineSet
1102 1082 m 1,0,-1
 1040 671 l 1,1,-1
 1310 671 l 2,2,3
 1494 671 1494 671 1590.5 577.5 c 128,-1,4
 1687 484 1687 484 1665 339 c 0,5,6
 1641 186 1641 186 1521 93 c 128,-1,7
 1401 0 1401 0 1209 0 c 2,8,-1
 743 0 l 1,9,-1
 881 926 l 1,10,-1
 563 926 l 1,11,-1
 518 620 l 2,12,13
 468 290 468 290 359 145 c 128,-1,14
 250 0 250 0 41 0 c 2,15,-1
 -15 0 l 1,16,-1
 13 158 l 1,17,-1
 54 159 l 2,18,19
 156 159 156 159 220.5 269.5 c 128,-1,20
 285 380 285 380 321 620 c 2,21,-1
 390 1082 l 1,22,-1
 1102 1082 l 1,0,-1
1017 517 m 1,23,-1
 963 152 l 1,24,-1
 1232 152 l 2,25,26
 1332 152 1332 152 1393.5 209 c 128,-1,27
 1455 266 1455 266 1467 341 c 0,28,29
 1478 416 1478 416 1436 466.5 c 128,-1,30
 1394 517 1394 517 1287 517 c 2,31,-1
 1017 517 l 1,23,-1
EndSplineSet
Validated: 33
EndChar

StartChar: uni045A
Encoding: 1114 1114 518
Width: 1781
GlyphClass: 1
Flags: W
LayerCount: 2
Fore
SplineSet
361 674 m 1,0,-1
 843 674 l 1,1,-1
 904 1082 l 1,2,-1
 1101 1082 l 1,3,-1
 1039 670 l 1,4,-1
 1309 670 l 2,5,6
 1493 670 1493 670 1589.5 577 c 128,-1,7
 1686 484 1686 484 1664 339 c 0,8,9
 1640 186 1640 186 1520 93 c 128,-1,10
 1400 0 1400 0 1208 0 c 2,11,-1
 742 0 l 1,12,-1
 820 521 l 1,13,-1
 338 521 l 1,14,-1
 260 0 l 1,15,-1
 63 0 l 1,16,-1
 225 1082 l 1,17,-1
 422 1082 l 1,18,-1
 361 674 l 1,0,-1
1016 517 m 1,19,-1
 962 152 l 1,20,-1
 1231 152 l 2,21,22
 1331 152 1331 152 1392.5 209 c 128,-1,23
 1454 266 1454 266 1466 341 c 0,24,25
 1477 416 1477 416 1435 466.5 c 128,-1,26
 1393 517 1393 517 1286 517 c 2,27,-1
 1016 517 l 1,19,-1
EndSplineSet
Validated: 33
EndChar

StartChar: uni045B
Encoding: 1115 1115 519
Width: 1164
GlyphClass: 1
Flags: W
LayerCount: 2
Fore
SplineSet
762 1211 m 1,0,-1
 441 1211 l 1,1,-1
 401 943 l 1,2,3
 469 1019 469 1019 556 1060.5 c 128,-1,4
 643 1102 643 1102 743 1102 c 0,5,6
 910 1102 910 1102 993.5 997 c 128,-1,7
 1077 892 1077 892 1046 678 c 2,8,-1
 944 0 l 1,9,-1
 747 0 l 1,10,-1
 849 680 l 2,11,12
 870 818 870 818 822 880 c 128,-1,13
 774 942 774 942 659 942 c 0,14,15
 574 942 574 942 502.5 906 c 128,-1,16
 431 870 431 870 381 806 c 1,17,-1
 260 0 l 1,18,-1
 63 0 l 1,19,-1
 244 1211 l 1,20,-1
 121 1211 l 1,21,-1
 144 1366 l 1,22,-1
 268 1366 l 1,23,-1
 297 1560 l 1,24,-1
 494 1560 l 1,25,-1
 465 1366 l 1,26,-1
 785 1366 l 1,27,-1
 762 1211 l 1,0,-1
EndSplineSet
Validated: 33
EndChar

StartChar: uni045F
Encoding: 1119 1119 523
Width: 1164
GlyphClass: 1
Flags: W
LayerCount: 2
Fore
SplineSet
422 1082 m 1,0,-1
 283 154 l 1,1,-1
 766 154 l 1,2,-1
 905 1082 l 1,3,-1
 1102 1082 l 1,4,-1
 940 0 l 1,5,-1
 603 0 l 1,6,-1
 550 -356 l 1,7,-1
 353 -356 l 1,8,-1
 406 0 l 1,9,-1
 63 0 l 1,10,-1
 225 1082 l 1,11,-1
 422 1082 l 1,0,-1
EndSplineSet
Validated: 1
EndChar

StartChar: uni0460
Encoding: 1120 1120 524
Width: 1934
GlyphClass: 1
Flags: W
LayerCount: 2
Fore
SplineSet
1236 1434 m 1,0,1
 1292 1454 1292 1454 1355 1465.5 c 128,-1,2
 1418 1477 1418 1477 1485 1477 c 0,3,4
 1691 1477 1691 1477 1807 1308 c 128,-1,5
 1923 1139 1923 1139 1884 878 c 2,6,-1
 1839 578 l 2,7,8
 1797 303 1797 303 1632.5 141 c 128,-1,9
 1468 -21 1468 -21 1247 -21 c 0,10,11
 1137 -21 1137 -21 1052.5 8.5 c 128,-1,12
 968 38 968 38 911 86 c 1,13,14
 840 38 840 38 747 8.5 c 128,-1,15
 654 -21 654 -21 539 -21 c 0,16,17
 328 -21 328 -21 207.5 147.5 c 128,-1,18
 87 316 87 316 127 578 c 2,19,-1
 172 878 l 2,20,21
 213 1153 213 1153 373 1315 c 128,-1,22
 533 1477 533 1477 751 1477 c 0,23,24
 814 1477 814 1477 875 1465.5 c 128,-1,25
 936 1454 936 1454 986 1434 c 1,26,-1
 905 1278 l 1,27,28
 871 1299 871 1299 826 1310.5 c 128,-1,29
 781 1322 781 1322 727 1322 c 0,30,31
 601 1322 601 1322 499 1196 c 128,-1,32
 397 1070 397 1070 369 880 c 2,33,-1
 324 578 l 2,34,35
 293 377 293 377 360.5 255 c 128,-1,36
 428 133 428 133 562 133 c 0,37,38
 661 133 661 133 729 166 c 128,-1,39
 797 199 797 199 833 242 c 1,40,-1
 883 574 l 1,41,-1
 685 574 l 1,42,-1
 708 728 l 1,43,-1
 1302 728 l 1,44,-1
 1279 574 l 1,45,-1
 1081 574 l 1,46,-1
 1031 243 l 1,47,48
 1054 198 1054 198 1109.5 165.5 c 128,-1,49
 1165 133 1165 133 1270 133 c 0,50,51
 1396 133 1396 133 1504.5 260 c 128,-1,52
 1613 387 1613 387 1642 578 c 2,53,-1
 1687 880 l 2,54,55
 1716 1080 1716 1080 1654.5 1201 c 128,-1,56
 1593 1322 1593 1322 1461 1322 c 0,57,58
 1408 1322 1408 1322 1359.5 1310.5 c 128,-1,59
 1311 1299 1311 1299 1271 1278 c 1,60,-1
 1236 1434 l 1,0,1
EndSplineSet
Validated: 33
EndChar

StartChar: uni0461
Encoding: 1121 1121 525
Width: 1410
GlyphClass: 1
Flags: W
LayerCount: 2
Fore
SplineSet
472 319 m 1,0,-1
 478 243 l 1,1,-1
 484 242 l 1,2,-1
 514 319 l 1,3,-1
 706 711 l 1,4,-1
 645 1082 l 1,5,-1
 846 1082 l 1,6,-1
 928 319 l 1,7,-1
 937 207 l 1,8,-1
 943 205 l 1,9,-1
 959 239 l 1,10,11
 1070 379 1070 379 1140 611 c 128,-1,12
 1210 843 1210 843 1234 1082 c 1,13,-1
 1435 1082 l 1,14,15
 1392 772 1392 772 1274.5 503 c 128,-1,16
 1157 234 1157 234 974 0 c 1,17,-1
 825 0 l 1,18,-1
 750 449 l 1,19,-1
 744 450 l 1,20,-1
 518 0 l 1,21,-1
 369 0 l 1,22,-1
 128 1082 l 1,23,-1
 330 1082 l 1,24,-1
 472 319 l 1,0,-1
EndSplineSet
Validated: 1
EndChar

StartChar: uni0462
Encoding: 1122 1122 526
Width: 1290
GlyphClass: 1
Flags: W
LayerCount: 2
Fore
SplineSet
675 1101 m 1,0,-1
 445 1101 l 1,1,-1
 412 880 l 1,2,-1
 771 880 l 2,3,4
 995 880 995 880 1110.5 759 c 128,-1,5
 1226 638 1226 638 1198 444 c 0,6,7
 1166 239 1166 239 1019.5 119.5 c 128,-1,8
 873 0 873 0 639 0 c 2,9,-1
 83 0 l 1,10,-1
 248 1101 l 1,11,-1
 34 1101 l 1,12,-1
 57 1256 l 1,13,-1
 271 1256 l 1,14,-1
 301 1456 l 1,15,-1
 498 1456 l 1,16,-1
 468 1256 l 1,17,-1
 698 1256 l 1,18,-1
 675 1101 l 1,0,-1
388 725 m 1,19,-1
 303 154 l 1,20,-1
 662 154 l 2,21,22
 803 154 803 154 893 239.5 c 128,-1,23
 983 325 983 325 1001 446 c 0,24,25
 1019 569 1019 569 958 647 c 128,-1,26
 897 725 897 725 748 725 c 2,27,-1
 388 725 l 1,19,-1
EndSplineSet
Validated: 33
EndChar

StartChar: uni0463
Encoding: 1123 1123 527
Width: 1113
GlyphClass: 1
Flags: W
LayerCount: 2
Fore
SplineSet
753 1078 m 1,0,-1
 431 1078 l 1,1,-1
 370 670 l 1,2,-1
 640 670 l 2,3,4
 824 670 824 670 920.5 577 c 128,-1,5
 1017 484 1017 484 995 339 c 0,6,7
 971 186 971 186 851 93 c 128,-1,8
 731 0 731 0 539 0 c 2,9,-1
 73 0 l 1,10,-1
 234 1078 l 1,11,-1
 45 1078 l 1,12,-1
 68 1233 l 1,13,-1
 257 1233 l 1,14,-1
 307 1562 l 1,15,-1
 504 1562 l 1,16,-1
 454 1233 l 1,17,-1
 776 1233 l 1,18,-1
 753 1078 l 1,0,-1
347 516 m 1,19,-1
 293 154 l 1,20,-1
 562 154 l 2,21,22
 663 154 663 154 723.5 205.5 c 128,-1,23
 784 257 784 257 796 332 c 0,24,25
 807 408 807 408 764.5 462 c 128,-1,26
 722 516 722 516 616 516 c 2,27,-1
 347 516 l 1,19,-1
EndSplineSet
Validated: 33
EndChar

StartChar: uni0464
Encoding: 1124 1124 528
Width: 1837
GlyphClass: 1
Flags: W
LayerCount: 2
Fore
SplineSet
1277 639 m 1,0,-1
 798 639 l 1,1,-1
 792 599 l 2,2,3
 760 392 760 392 838 263 c 128,-1,4
 916 134 916 134 1083 134 c 0,5,6
 1241 134 1241 134 1347 223.5 c 128,-1,7
 1453 313 1453 313 1477 467 c 1,8,-1
 1665 467 l 1,9,-1
 1667 461 l 1,10,11
 1639 248 1639 248 1472 114 c 128,-1,12
 1305 -20 1305 -20 1060 -20 c 0,13,14
 823 -20 823 -20 688.5 156.5 c 128,-1,15
 554 333 554 333 595 599 c 2,16,-1
 601 639 l 1,17,-1
 404 639 l 1,18,-1
 309 0 l 1,19,-1
 111 0 l 1,20,-1
 329 1456 l 1,21,-1
 527 1456 l 1,22,-1
 427 793 l 1,23,-1
 624 793 l 1,24,-1
 634 858 l 2,25,26
 675 1137 675 1137 855 1307.5 c 128,-1,27
 1035 1478 1035 1478 1285 1478 c 0,28,29
 1523 1478 1523 1478 1653.5 1345.5 c 128,-1,30
 1784 1213 1784 1213 1748 998 c 1,31,-1
 1745 992 l 1,32,-1
 1556 992 l 1,33,34
 1580 1151 1580 1151 1503.5 1237 c 128,-1,35
 1427 1323 1427 1323 1261 1323 c 0,36,37
 1103 1323 1103 1323 981.5 1188.5 c 128,-1,38
 860 1054 860 1054 831 860 c 2,39,-1
 821 793 l 1,40,-1
 1300 793 l 1,41,-1
 1277 639 l 1,0,-1
EndSplineSet
Validated: 33
EndChar

StartChar: uni0465
Encoding: 1125 1125 529
Width: 1530
GlyphClass: 1
Flags: W
LayerCount: 2
Fore
SplineSet
1038 461 m 1,0,-1
 712 461 l 1,1,2
 700 315 700 315 752.5 224 c 128,-1,3
 805 133 805 133 939 133 c 0,4,5
 1026 133 1026 133 1104.5 194 c 128,-1,6
 1183 255 1183 255 1197 342 c 1,7,-1
 1375 342 l 1,8,-1
 1377 336 l 1,9,10
 1359 190 1359 190 1220.5 84.5 c 128,-1,11
 1082 -21 1082 -21 916 -21 c 0,12,13
 712 -21 712 -21 606.5 116 c 128,-1,14
 501 253 501 253 515 461 c 1,15,-1
 337 461 l 1,16,-1
 268 0 l 1,17,-1
 71 0 l 1,18,-1
 233 1082 l 1,19,-1
 430 1082 l 1,20,-1
 360 616 l 1,21,-1
 537 616 l 1,22,23
 584 832 584 832 726.5 967 c 128,-1,24
 869 1102 869 1102 1084 1102 c 0,25,26
 1259 1102 1259 1102 1361 989 c 128,-1,27
 1463 876 1463 876 1434 714 c 1,28,-1
 1432 709 l 1,29,-1
 1252 709 l 1,30,31
 1267 812 1267 812 1214 879.5 c 128,-1,32
 1161 947 1161 947 1061 947 c 0,33,34
 935 947 935 947 852 852 c 128,-1,35
 769 757 769 757 740 622 c 1,36,-1
 743 616 l 1,37,-1
 1061 616 l 1,38,-1
 1038 461 l 1,0,-1
EndSplineSet
Validated: 33
EndChar

StartChar: uni0466
Encoding: 1126 1126 530
Width: 1235
GlyphClass: 1
Flags: W
LayerCount: 2
Fore
SplineSet
887 438 m 1,0,-1
 725 438 l 1,1,-1
 660 0 l 1,2,-1
 464 0 l 1,3,-1
 529 438 l 1,4,-1
 381 438 l 1,5,-1
 164 0 l 1,6,-1
 -37 0 l 1,7,-1
 706 1456 l 1,8,-1
 875 1456 l 1,9,-1
 1171 0 l 1,10,-1
 970 0 l 1,11,-1
 887 438 l 1,0,-1
463 602 m 1,12,-1
 856 602 l 1,13,-1
 749 1165 l 1,14,-1
 743 1166 l 1,15,-1
 463 602 l 1,12,-1
EndSplineSet
Validated: 1
EndChar

StartChar: uni0467
Encoding: 1127 1127 531
Width: 1097
GlyphClass: 1
Flags: W
LayerCount: 2
Fore
SplineSet
709 294 m 1,0,-1
 603 294 l 1,1,-1
 559 0 l 1,2,-1
 363 0 l 1,3,-1
 407 294 l 1,4,-1
 294 294 l 1,5,-1
 134 0 l 1,6,-1
 -67 0 l 1,7,-1
 535 1082 l 1,8,-1
 704 1082 l 1,9,-1
 985 0 l 1,10,-1
 784 0 l 1,11,-1
 709 294 l 1,0,-1
379 449 m 1,12,-1
 670 449 l 1,13,-1
 591 761 l 1,14,-1
 583 828 l 1,15,-1
 577 829 l 1,16,-1
 549 761 l 1,17,-1
 379 449 l 1,12,-1
EndSplineSet
Validated: 1
EndChar

StartChar: uni0468
Encoding: 1128 1128 532
Width: 1805
GlyphClass: 1
Flags: W
LayerCount: 2
Fore
SplineSet
417 603 m 1,0,-1
 799 603 l 1,1,-1
 1235 1456 l 1,2,-1
 1404 1456 l 1,3,-1
 1700 0 l 1,4,-1
 1499 0 l 1,5,-1
 1416 438 l 1,6,-1
 1254 438 l 1,7,-1
 1189 0 l 1,8,-1
 993 0 l 1,9,-1
 1058 438 l 1,10,-1
 910 438 l 1,11,-1
 693 0 l 1,12,-1
 492 0 l 1,13,-1
 716 439 l 1,14,-1
 392 439 l 1,15,-1
 327 0 l 1,16,-1
 129 0 l 1,17,-1
 347 1456 l 1,18,-1
 545 1456 l 1,19,-1
 417 603 l 1,0,-1
992 602 m 1,20,-1
 1385 602 l 1,21,-1
 1278 1165 l 1,22,-1
 1272 1166 l 1,23,-1
 992 602 l 1,20,-1
EndSplineSet
Validated: 1
EndChar

StartChar: uni0469
Encoding: 1129 1129 533
Width: 1549
GlyphClass: 1
Flags: W
LayerCount: 2
Fore
SplineSet
370 449 m 1,0,-1
 630 449 l 1,1,-1
 982 1082 l 1,2,-1
 1151 1082 l 1,3,-1
 1432 0 l 1,4,-1
 1231 0 l 1,5,-1
 1156 294 l 1,6,-1
 1050 294 l 1,7,-1
 1006 0 l 1,8,-1
 810 0 l 1,9,-1
 854 294 l 1,10,-1
 741 294 l 1,11,-1
 581 0 l 1,12,-1
 380 0 l 1,13,-1
 543 293 l 1,14,-1
 347 293 l 1,15,-1
 303 0 l 1,16,-1
 106 0 l 1,17,-1
 268 1082 l 1,18,-1
 465 1082 l 1,19,-1
 370 449 l 1,0,-1
826 449 m 1,20,-1
 1117 449 l 1,21,-1
 1038 761 l 1,22,-1
 1030 828 l 1,23,-1
 1024 829 l 1,24,-1
 996 761 l 1,25,-1
 826 449 l 1,20,-1
EndSplineSet
Validated: 1
EndChar

StartChar: uni046A
Encoding: 1130 1130 534
Width: 1759
GlyphClass: 1
Flags: W
LayerCount: 2
Fore
SplineSet
1143 814 m 1,0,-1
 1164 814 l 2,1,2
 1395 814 1395 814 1508 708.5 c 128,-1,3
 1621 603 1621 603 1587 371 c 2,4,-1
 1531 0 l 1,5,-1
 1334 0 l 1,6,-1
 1390 371 l 2,7,8
 1415 540 1415 540 1356 599.5 c 128,-1,9
 1297 659 1297 659 1141 659 c 2,10,-1
 1025 659 l 1,11,-1
 993 617 l 1,12,-1
 901 0 l 1,13,-1
 704 0 l 1,14,-1
 799 632 l 1,15,-1
 787 659 l 1,16,-1
 655 659 l 2,17,18
 507 659 507 659 426 595.5 c 128,-1,19
 345 532 345 532 322 371 c 2,20,-1
 266 0 l 1,21,-1
 69 0 l 1,22,-1
 125 371 l 2,23,24
 161 614 161 614 297.5 714 c 128,-1,25
 434 814 434 814 678 814 c 2,26,-1
 715 814 l 1,27,-1
 420 1456 l 1,28,-1
 646 1456 l 1,29,-1
 650 1447 l 1,30,-1
 656 1448 l 1,31,-1
 657 1456 l 1,32,-1
 1629 1456 l 1,33,-1
 1143 814 l 1,0,-1
924 814 m 1,34,-1
 933 814 l 1,35,-1
 1290 1301 l 1,36,-1
 713 1301 l 1,37,-1
 924 814 l 1,34,-1
EndSplineSet
Validated: 33
EndChar

StartChar: uni046B
Encoding: 1131 1131 535
Width: 1516
GlyphClass: 1
Flags: W
LayerCount: 2
Fore
SplineSet
1205 1082 m 1,0,-1
 1328 1082 l 1,1,-1
 972 603 l 1,2,3
 1162 592 1162 592 1253 486 c 128,-1,4
 1344 380 1344 380 1311 162 c 2,5,-1
 1287 0 l 1,6,-1
 1089 0 l 1,7,-1
 1113 162 l 2,8,9
 1138 331 1138 331 1089.5 390.5 c 128,-1,10
 1041 450 1041 450 906 450 c 2,11,-1
 858 450 l 1,12,-1
 845 432 l 1,13,-1
 780 0 l 1,14,-1
 583 0 l 1,15,-1
 649 440 l 1,16,-1
 644 450 l 1,17,-1
 585 450 l 2,18,19
 456 450 456 450 385 386.5 c 128,-1,20
 314 323 314 323 290 162 c 2,21,-1
 266 0 l 1,22,-1
 69 0 l 1,23,-1
 93 162 l 2,24,25
 128 396 128 396 248 496.5 c 128,-1,26
 368 597 368 597 576 603 c 1,27,-1
 364 1082 l 1,28,-1
 522 1082 l 1,29,-1
 522 1083 l 1,30,-1
 1205 1083 l 1,31,-1
 1205 1082 l 1,0,-1
775 606 m 1,32,-1
 999 927 l 1,33,-1
 647 927 l 1,34,-1
 775 606 l 1,32,-1
EndSplineSet
Validated: 33
EndChar

StartChar: uni046C
Encoding: 1132 1132 536
Width: 2326
GlyphClass: 1
Flags: W
LayerCount: 2
Fore
SplineSet
1295 660 m 1,0,-1
 380 660 l 1,1,-1
 403 814 l 1,2,-1
 1318 814 l 1,3,-1
 1295 660 l 1,0,-1
308 0 m 1,4,-1
 110 0 l 1,5,-1
 328 1456 l 1,6,-1
 526 1456 l 1,7,-1
 308 0 l 1,4,-1
1710 814 m 1,8,-1
 1731 814 l 2,9,10
 1962 814 1962 814 2075 708.5 c 128,-1,11
 2188 603 2188 603 2154 371 c 2,12,-1
 2098 0 l 1,13,-1
 1901 0 l 1,14,-1
 1957 371 l 2,15,16
 1982 540 1982 540 1923 599.5 c 128,-1,17
 1864 659 1864 659 1708 659 c 2,18,-1
 1592 659 l 1,19,-1
 1560 617 l 1,20,-1
 1468 0 l 1,21,-1
 1271 0 l 1,22,-1
 1366 632 l 1,23,-1
 1354 659 l 1,24,-1
 1222 659 l 2,25,26
 1074 659 1074 659 993 595.5 c 128,-1,27
 912 532 912 532 889 371 c 2,28,-1
 833 0 l 1,29,-1
 636 0 l 1,30,-1
 692 371 l 2,31,32
 728 614 728 614 864.5 714 c 128,-1,33
 1001 814 1001 814 1245 814 c 2,34,-1
 1282 814 l 1,35,-1
 987 1456 l 1,36,-1
 1213 1456 l 1,37,-1
 1217 1447 l 1,38,-1
 1223 1448 l 1,39,-1
 1224 1456 l 1,40,-1
 2196 1456 l 1,41,-1
 1710 814 l 1,8,-1
1491 814 m 1,42,-1
 1500 814 l 1,43,-1
 1857 1301 l 1,44,-1
 1280 1301 l 1,45,-1
 1491 814 l 1,42,-1
EndSplineSet
Validated: 37
EndChar

StartChar: uni046D
Encoding: 1133 1133 537
Width: 2019
GlyphClass: 1
Flags: W
LayerCount: 2
Fore
SplineSet
1260 450 m 1,0,-1
 247 450 l 1,1,-1
 270 605 l 1,2,-1
 1283 605 l 1,3,-1
 1260 450 l 1,0,-1
270 0 m 1,4,-1
 73 0 l 1,5,-1
 235 1082 l 1,6,-1
 432 1082 l 1,7,-1
 270 0 l 1,4,-1
1711 1082 m 1,8,-1
 1834 1082 l 1,9,-1
 1478 603 l 1,10,11
 1668 592 1668 592 1759 486 c 128,-1,12
 1850 380 1850 380 1817 162 c 2,13,-1
 1793 0 l 1,14,-1
 1595 0 l 1,15,-1
 1619 162 l 2,16,17
 1644 331 1644 331 1595.5 390.5 c 128,-1,18
 1547 450 1547 450 1412 450 c 2,19,-1
 1364 450 l 1,20,-1
 1351 432 l 1,21,-1
 1286 0 l 1,22,-1
 1089 0 l 1,23,-1
 1155 440 l 1,24,-1
 1150 450 l 1,25,-1
 1091 450 l 2,26,27
 962 450 962 450 891 386.5 c 128,-1,28
 820 323 820 323 796 162 c 2,29,-1
 772 0 l 1,30,-1
 575 0 l 1,31,-1
 599 162 l 2,32,33
 634 396 634 396 754 496.5 c 128,-1,34
 874 597 874 597 1082 603 c 1,35,-1
 870 1082 l 1,36,-1
 1028 1082 l 1,37,-1
 1028 1083 l 1,38,-1
 1711 1083 l 1,39,-1
 1711 1082 l 1,8,-1
1281 606 m 1,40,-1
 1505 927 l 1,41,-1
 1153 927 l 1,42,-1
 1281 606 l 1,40,-1
EndSplineSet
Validated: 37
EndChar

StartChar: uni046E
Encoding: 1134 1134 538
Width: 1061
GlyphClass: 1
Flags: W
LayerCount: 2
Fore
SplineSet
570 1456 m 2,0,1
 773 1456 773 1456 894 1348.5 c 128,-1,2
 1015 1241 1015 1241 989 1062 c 0,3,4
 973 955 973 955 896 873.5 c 128,-1,5
 819 792 819 792 697 749 c 1,6,7
 818 706 818 706 875 619 c 128,-1,8
 932 532 932 532 913 407 c 0,9,10
 881 199 881 199 734 89.5 c 128,-1,11
 587 -20 587 -20 373 -20 c 2,12,-1
 323 -20 l 2,13,14
 250 -20 250 -20 209 -50 c 128,-1,15
 168 -80 168 -80 161 -132 c 0,16,17
 149 -205 149 -205 188.5 -245.5 c 128,-1,18
 228 -286 228 -286 292 -317 c 1,19,-1
 194 -444 l 1,20,21
 90 -397 90 -397 25.5 -315 c 128,-1,22
 -39 -233 -39 -233 -24 -122 c 0,23,24
 -3 12 -3 12 93.5 73.5 c 128,-1,25
 190 135 190 135 354 135 c 2,26,-1
 396 135 l 2,27,28
 520 135 520 135 608 210 c 128,-1,29
 696 285 696 285 714 403 c 0,30,31
 735 541 735 541 664 605.5 c 128,-1,32
 593 670 593 670 433 670 c 2,33,-1
 290 670 l 1,34,-1
 295 708 l 1,35,-1
 307 785 l 1,36,-1
 313 825 l 1,37,-1
 456 825 l 2,38,39
 603 825 603 825 688.5 889.5 c 128,-1,40
 774 954 774 954 792 1066 c 0,41,42
 807 1172 807 1172 746 1236.5 c 128,-1,43
 685 1301 685 1301 547 1301 c 2,44,-1
 243 1301 l 1,45,-1
 266 1456 l 1,46,-1
 570 1456 l 2,0,1
719 1758 m 1,47,-1
 888 1906 l 1,48,-1
 1058 1906 l 1,49,-1
 1056 1888 l 1,50,-1
 762 1643 l 1,51,-1
 643 1643 l 1,52,-1
 425 1886 l 1,53,-1
 428 1906 l 1,54,-1
 594 1906 l 1,55,-1
 719 1758 l 1,47,-1
EndSplineSet
Validated: 33
EndChar

StartChar: uni046F
Encoding: 1135 1135 539
Width: 986
GlyphClass: 1
Flags: W
LayerCount: 2
Fore
SplineSet
280 618 m 1,0,-1
 423 618 l 2,1,2
 551 618 551 618 622.5 660 c 128,-1,3
 694 702 694 702 705 776 c 0,4,5
 715 843 715 843 660.5 884.5 c 128,-1,6
 606 926 606 926 489 926 c 2,7,-1
 186 926 l 1,8,-1
 209 1082 l 1,9,-1
 512 1082 l 2,10,11
 696 1082 696 1082 810 997 c 128,-1,12
 924 912 924 912 903 772 c 0,13,14
 891 696 891 696 831.5 636.5 c 128,-1,15
 772 577 772 577 675 543 c 1,16,17
 772 510 772 510 819.5 449 c 128,-1,18
 867 388 867 388 855 304 c 0,19,20
 831 148 831 148 698.5 64 c 128,-1,21
 566 -20 566 -20 371 -20 c 2,22,-1
 322 -20 l 2,23,24
 249 -20 249 -20 208 -50 c 128,-1,25
 167 -80 167 -80 160 -132 c 0,26,27
 148 -205 148 -205 188 -245.5 c 128,-1,28
 228 -286 228 -286 292 -317 c 1,29,-1
 193 -444 l 1,30,31
 89 -397 89 -397 24.5 -315 c 128,-1,32
 -40 -233 -40 -233 -25 -122 c 0,33,34
 -4 12 -4 12 93 73.5 c 128,-1,35
 190 135 190 135 353 135 c 2,36,-1
 394 135 l 2,37,38
 500 135 500 135 572.5 181 c 128,-1,39
 645 227 645 227 656 300 c 0,40,41
 669 385 669 385 604.5 424 c 128,-1,42
 540 463 540 463 399 463 c 2,43,-1
 256 463 l 1,44,-1
 274 578 l 1,45,-1
 280 618 l 1,0,-1
595 1414 m 1,46,-1
 764 1562 l 1,47,-1
 934 1562 l 1,48,-1
 932 1544 l 1,49,-1
 638 1299 l 1,50,-1
 519 1299 l 1,51,-1
 301 1542 l 1,52,-1
 304 1562 l 1,53,-1
 470 1562 l 1,54,-1
 595 1414 l 1,46,-1
EndSplineSet
Validated: 33
EndChar

